<svg width="100" height="32" viewBox="0 0 100 32" fill="none" xmlns="http://www.w3.org/2000/svg">
<path fill-rule="evenodd" clip-rule="evenodd" d="M17.6157 0.119421C21.501 0.714146 25.0274 2.78474 27.4438 5.89016C28.2039 6.86708 28.6921 7.66261 29.274 8.8728C30.0763 10.5412 30.5177 12.0172 30.7517 13.8145C31.395 18.7558 29.7779 23.7287 26.3854 27.2425C19.9478 33.91 9.47292 33.4609 3.64384 26.2675C-1.26816 20.2059 -1.20784 11.4662 3.78721 5.48476C6.21428 2.5784 9.62877 0.64936 13.2879 0.117273C14.3691 -0.039982 16.5819 -0.0389077 17.6157 0.119421ZM14.5582 5.2804C13.4308 5.40708 12.586 5.65201 11.5833 6.14295C9.53225 7.14721 8.08052 8.7805 7.29573 10.9666C6.51937 13.1292 6.73737 16.0151 7.86211 18.4659L8.13101 19.0519L8.94818 19.103C11.2042 19.2443 12.9048 20.2227 13.7566 21.8694C14.3324 22.9825 14.4942 23.6533 14.8275 26.3088L14.8897 26.8046H15.4677H16.0456L16.1442 25.8956C16.4323 23.2388 16.9365 21.8171 17.959 20.7788C18.9717 19.7504 20.3023 19.2161 22.1598 19.092L22.9853 19.0369L23.2593 18.3972C24.11 16.4109 24.3231 13.5138 23.7688 11.4717C23.5201 10.5553 22.789 9.14384 22.1501 8.34633C20.7933 6.65272 18.7041 5.51575 16.5267 5.28577C15.5984 5.18777 15.3884 5.18719 14.5582 5.2804Z" fill="#7EC16E"/>
<path fill-rule="evenodd" clip-rule="evenodd" d="M91.9753 5.03589C95.0258 5.34849 97.2934 6.81543 98.3949 9.18872C98.6398 9.71651 98.9939 10.8712 99.0773 11.4139L99.1249 11.7238H96.8642H94.6037L94.4638 11.29C94.2606 10.6601 93.9974 10.2401 93.5348 9.80732C92.7931 9.1136 91.9831 8.83157 90.7322 8.83157C89.0152 8.83157 87.9431 9.59619 87.7684 10.9454C87.6386 11.9482 88.0733 12.8096 88.9421 13.2706C89.5932 13.616 90.0713 13.7436 91.8221 14.0392C94.2432 14.4481 95.647 14.8826 96.6328 15.5283C97.6928 16.2227 98.3928 17.1216 98.781 18.2868C98.9839 18.8959 99.0035 19.0667 99.0044 20.2352C99.0056 21.6741 98.9066 22.1811 98.4322 23.1688C97.5979 24.9054 95.831 26.1525 93.5143 26.6399C90.6911 27.2337 87.534 26.7514 85.6101 25.4323C83.9956 24.3254 82.9151 22.4074 82.7193 20.3007L82.6672 19.7394H84.8966H87.1261L87.2697 20.2559C87.3486 20.54 87.5093 20.9489 87.6269 21.1648C87.9171 21.698 88.7021 22.428 89.2601 22.6835C90.5346 23.2669 92.5123 23.224 93.5149 22.5911C93.8884 22.3553 94.245 21.9416 94.4059 21.5577C94.5518 21.2093 94.5656 20.2079 94.4292 19.8637C94.0265 18.8479 93.1361 18.4166 90.4173 17.9204C88.6791 17.6031 87.8985 17.4075 87.0915 17.087C85.8973 16.6126 84.9702 15.9556 84.3719 15.1596C83.5881 14.117 83.3464 13.3577 83.2915 11.7651C83.2573 10.7754 83.2771 10.5007 83.4289 9.86451C83.9532 7.66633 85.4288 6.15691 87.773 5.42072C88.9449 5.05266 90.6317 4.89822 91.9753 5.03589ZM65.2136 5.40246C69.0501 6.01619 71.8882 8.44161 72.8142 11.8979C72.9286 12.3248 73.0223 12.702 73.0223 12.7361C73.0225 12.7701 71.9891 12.7981 70.7259 12.7981H68.4291L68.1455 12.2042C67.6079 11.0783 66.5679 10.1858 65.3026 9.76427C64.6929 9.56115 64.5243 9.5419 63.3543 9.5419C62.1823 9.5419 62.0163 9.5609 61.4015 9.76568C59.5207 10.392 58.2618 11.8448 57.7147 14.0203C57.4581 15.0404 57.4626 16.9212 57.724 17.8801C58.3358 20.1252 59.7575 21.628 61.7519 22.1381C62.628 22.3622 64.0805 22.3622 64.9566 22.1381C66.3419 21.7838 67.6314 20.8015 68.2138 19.6568L68.4871 19.1196L65.6711 19.0979L62.8552 19.0762L62.8775 17.3213L62.8998 15.5663L67.9725 15.545L73.0452 15.5238L72.9976 17.1564C72.9629 18.3485 72.906 18.9801 72.7867 19.4968C71.9686 23.0411 69.4361 25.5121 65.7507 26.3617C64.7439 26.5938 62.7329 26.6553 61.7006 26.4856C59.484 26.121 57.6696 25.2504 56.1825 23.8379C54.6782 22.4089 53.745 20.6757 53.2638 18.4172C52.9955 17.1581 52.9925 14.8862 53.2573 13.5614C54.1114 9.28961 56.8037 6.47597 60.9578 5.51352C61.9053 5.29404 64.1668 5.23495 65.2136 5.40246ZM44.713 5.36973C47.4021 5.76192 49.5226 7.31711 50.4295 9.56223C50.8478 10.5981 50.9175 11.0184 50.9176 12.5088C50.9177 13.7319 50.893 13.9992 50.7265 14.5747C50.1255 16.6517 48.6107 18.2377 45.9182 19.6089C44.719 20.2197 42.7213 21.0825 41.2917 21.6071L40.0925 22.0472L45.7323 22.0502L51.3722 22.0532V24.1604V26.2676H43.1087H34.8451V23.1384V20.0093L35.5682 19.739C37.8752 18.8765 41.4026 17.3679 43.223 16.4649C44.9055 15.6305 45.6587 15.021 46.1426 14.1025C46.3558 13.698 46.3727 13.5956 46.3727 12.7137C46.3727 11.8071 46.3599 11.7357 46.1049 11.2176C45.2801 9.54206 43.1876 8.87512 41.3313 9.6961C40.693 9.97838 39.8763 10.8054 39.5524 11.4975C39.2883 12.0618 39.0633 12.9695 39.0609 13.4798L39.0595 13.7897H36.858H34.6565L34.7026 12.9013C34.9112 8.88859 37.672 5.93264 41.7397 5.36684C42.4754 5.26454 44.002 5.26603 44.713 5.36973ZM80.1292 15.9795V26.2676H77.9807H75.8322V15.9795V5.69143H77.9807H80.1292V15.9795Z" fill="black"/>
</svg>
