<svg width="156" height="48" viewBox="0 0 156 48" fill="none" xmlns="http://www.w3.org/2000/svg">
<path fill-rule="evenodd" clip-rule="evenodd" d="M22.3688 37.6363C23.9625 36.9257 25.5938 37.7111 26.3063 39.2258C27.2625 41.3015 25.9313 44.7984 23.8688 47.9026H29.1938C30.675 44.6301 31.3313 42.5731 31.3313 40.4413C31.3313 35.4671 27.075 32.6621 23.55 32.6621C17.7563 32.6621 14.1563 38.6461 16.4625 43.7325L20.7563 41.6194C20.2688 40.6096 20.4188 38.4965 22.3688 37.6363Z" fill="#6EADC1"/>
<path fill-rule="evenodd" clip-rule="evenodd" d="M39.6374 7.71589C46.2562 7.71589 54.0749 13.9056 53.9812 22.1336L58.5374 32.6617H54.2999C54.2999 36.0277 54.2999 39.375 54.2999 42.741H46.1624L44.0624 47.8835H33.3562C36.7124 41.5068 35.5499 36.7009 32.9624 33.2227C30.8437 30.399 29.8499 27.4444 29.8499 24.9947C29.8499 19.1977 34.6312 15.065 39.0187 15.0463C42.7874 15.0276 45.6937 17.7391 45.6937 20.9555C45.6937 23.4613 44.3999 26.1915 41.8687 27.0143C40.7062 27.3883 39.7312 26.846 39.2812 26.0606C38.5874 24.8264 39.2249 23.6296 40.1437 23.0499C40.7062 22.6946 41.2124 22.0775 41.1749 21.1799C41.1374 19.8335 39.8624 18.8237 38.4937 19.1416C36.3187 19.6465 34.2562 22.0214 34.2562 24.9386C34.2562 28.5477 37.8562 31.5397 41.2124 31.5397C45.9562 31.5397 50.3249 26.5094 49.9124 21.1986C49.5187 16.1122 45.2624 11.8112 39.6562 11.8112C35.7937 11.8112 33.8437 12.4844 29.1187 16.3179C24.6937 20.0392 19.1249 21.3295 14.8687 17.2342C11.0437 13.569 12.0374 6.4069 16.7999 4.0881C20.9999 2.0498 24.7874 3.11569 27.4687 6.21989L24.1687 8.5761C23.0999 7.1923 20.5312 6.40689 18.4499 7.80939C16.2749 9.26799 16.0687 11.9795 17.2124 13.6999C19.2187 16.7293 22.8562 15.9813 25.4999 14.0178C30.8624 9.9973 33.0187 7.71589 39.6374 7.71589Z" fill="#6EADC1"/>
<path fill-rule="evenodd" clip-rule="evenodd" d="M49.1625 7.95927L51.5063 4.63066C48.8063 2.74196 45.6375 1.45166 42.15 0.965461L41.5875 5.00466C44.4187 5.37866 46.9875 6.42587 49.1625 7.95927ZM38.3625 4.83636L38.1562 0.759766C34.8562 0.928066 31.5562 1.84436 28.5 3.60216L30.5437 7.13646C33.0187 5.71526 35.7 4.96726 38.3625 4.83636Z" fill="#6EADC1"/>
<path fill-rule="evenodd" clip-rule="evenodd" d="M20.8125 12.9145C21.6563 12.9145 22.35 12.2226 22.35 11.3811C22.35 10.5396 21.6563 9.84766 20.8125 9.84766C19.9688 9.84766 19.275 10.5396 19.275 11.3811C19.275 12.2226 19.95 12.9145 20.8125 12.9145Z" fill="#6EADC1"/>
<path fill-rule="evenodd" clip-rule="evenodd" d="M6.22498 16.636C7.74373 15.1213 10.1812 15.1213 11.7 16.636C13.2187 18.1507 13.2187 20.5817 11.7 22.0964C10.1812 23.6111 7.74373 23.6111 6.22498 22.0964C4.72498 20.5817 4.72498 18.132 6.22498 16.636ZM7.18122 19.3662L8.96247 21.1427L10.7437 19.3662L8.96247 17.5897L7.18122 19.3662Z" fill="#6EADC1"/>
<path fill-rule="evenodd" clip-rule="evenodd" d="M7.06879 7.73438C8.77504 7.73438 10.1625 9.11818 10.1438 10.8386C10.1438 12.5403 8.75628 13.9241 7.05003 13.9054C5.34378 13.9054 3.95629 12.5216 3.97504 10.8199C3.97504 9.09948 5.36254 7.73438 7.06879 7.73438ZM6.05629 9.81008V11.811H8.06254V9.81008H6.05629Z" fill="#6EADC1"/>
<path d="M10.2469 3.19873L8.9021 4.68359L10.3909 6.0248L11.7357 4.53994L10.2469 3.19873Z" fill="#6EADC1"/>
<path fill-rule="evenodd" clip-rule="evenodd" d="M5.60624 24.0229C3.73124 26.2669 1.85625 28.5109 0 30.7549L2.2875 32.6623L6 28.2304L10.4438 31.933L14.1562 27.5011L18.6 31.2037L22.3125 26.7718L26.7563 30.4557L28.6687 28.1743C26.4187 26.3043 24.1687 24.4343 21.9187 22.583C20.6812 24.0603 19.4437 25.5376 18.2062 27.0149C16.725 25.7807 15.2437 24.5465 13.7625 23.3123C12.525 24.7896 11.2875 26.2669 10.05 27.7442C8.56875 26.4913 7.08749 25.2571 5.60624 24.0229Z" fill="#6EADC1"/>
<path fill-rule="evenodd" clip-rule="evenodd" d="M5.8313 33.709L13.6501 33.7277V33.7464L7.08755 37.5238L8.38131 39.7491L9.6188 41.8996L11.8501 40.6093L10.5938 38.4588L13.6501 36.7197V43.059H5.8313V33.709Z" fill="#6EADC1"/>
<path fill-rule="evenodd" clip-rule="evenodd" d="M74.7563 16.9162H77.7188V28.3793H74.7563V27.1825C74.0438 27.8931 72.6562 28.6411 71.1375 28.6411C67.9125 28.6411 65.4375 25.8174 65.4375 22.6384C65.4375 19.4594 67.8375 16.6357 71.1375 16.6357C72.75 16.6357 74.0438 17.4024 74.7563 18.1691V16.9162ZM152.213 16.9162H155.175V28.3793H152.213V27.1825C151.5 27.8931 150.112 28.6411 148.594 28.6411C145.369 28.6411 142.894 25.8174 142.894 22.6384C142.894 19.4594 145.294 16.6357 148.594 16.6357C150.206 16.6357 151.5 17.4024 152.213 18.1691V16.9162ZM148.969 25.8735C150.656 25.8735 152.194 24.5271 152.194 22.6571C152.194 20.9928 150.862 19.4407 148.969 19.4407C147.262 19.4407 145.744 20.7871 145.744 22.6571C145.744 24.3401 147.075 25.8735 148.969 25.8735ZM71.5125 25.8735C73.2 25.8735 74.7375 24.5271 74.7375 22.6571C74.7375 20.9928 73.4062 19.4407 71.5125 19.4407C69.8062 19.4407 68.2875 20.7871 68.2875 22.6571C68.2875 24.3401 69.6187 25.8735 71.5125 25.8735ZM136.838 28.6037C133.463 28.6037 130.838 25.8548 130.838 22.6384C130.838 19.3846 133.425 16.6357 136.838 16.6357C138.956 16.6357 140.925 17.7577 141.994 19.5716L139.5 21.0302C138.975 20.1513 137.981 19.4968 136.875 19.4968C135.037 19.4968 133.744 20.9741 133.744 22.6197C133.744 24.3962 135.075 25.7426 136.875 25.7426C137.981 25.7426 138.994 25.0694 139.5 24.1531L141.994 25.6491C140.963 27.4443 138.994 28.6037 136.838 28.6037Z" fill="#6EADC1"/>
<path fill-rule="evenodd" clip-rule="evenodd" d="M71.5125 35.1676C70.9312 35.1115 70.5187 35.2237 70.2375 35.4668C69.9562 35.7099 69.825 36.1026 69.825 36.6823V36.9254H71.5125V37.6734H69.825V42.7785H69.0562V37.6547H68.0625V36.9067H69.0562V36.6636C69.0562 35.8969 69.2625 35.3172 69.6938 34.9245C70.125 34.5318 70.725 34.3635 71.5125 34.4196V35.1676ZM73.1062 37.8791C73.4625 37.1685 74.0812 36.8132 74.9625 36.8132V37.5612C74.4375 37.5612 73.9875 37.7108 73.6313 38.0287C73.275 38.3466 73.1062 38.8328 73.1062 39.506V42.7598H72.3375V36.9067H73.1062V37.8791ZM78.3937 36.7758C79.2562 36.7758 79.9687 37.075 80.5125 37.6921C81.0562 38.3092 81.3188 39.0385 81.3188 39.8613C81.3188 39.9548 81.3187 40.067 81.3 40.2166H76.1437C76.2187 40.815 76.4812 41.2825 76.8937 41.6378C77.325 41.9931 77.85 42.1614 78.4687 42.1614C78.9187 42.1614 79.2938 42.0679 79.6313 41.8809C79.95 41.6939 80.1937 41.4508 80.3625 41.1516L81.0375 41.5443C80.775 41.9557 80.4187 42.2923 79.9875 42.5354C79.5375 42.7785 79.0312 42.8907 78.45 42.8907C77.5312 42.8907 76.7812 42.6102 76.2 42.0305C75.6187 41.4508 75.3375 40.7215 75.3375 39.8239C75.3375 38.945 75.6187 38.2157 76.2 37.636C76.7625 37.0563 77.4937 36.7758 78.3937 36.7758ZM78.3937 37.5238C77.775 37.5238 77.2687 37.7108 76.8562 38.0661C76.4437 38.4214 76.2 38.9076 76.125 39.4873H80.5125C80.4375 38.8702 80.1937 38.384 79.8 38.0474C79.3875 37.6921 78.9187 37.5238 78.3937 37.5238ZM85.2563 36.7758C86.1188 36.7758 86.8312 37.075 87.375 37.6921C87.9187 38.3092 88.1812 39.0385 88.1812 39.8613C88.1812 39.9548 88.1813 40.067 88.1625 40.2166H83.0063C83.0813 40.815 83.3438 41.2825 83.7563 41.6378C84.1875 41.9931 84.7125 42.1614 85.3312 42.1614C85.7812 42.1614 86.1562 42.0679 86.4937 41.8809C86.8125 41.6939 87.0563 41.4508 87.225 41.1516L87.9 41.5443C87.6375 41.9557 87.2812 42.2923 86.85 42.5354C86.4 42.7785 85.8937 42.8907 85.3125 42.8907C84.3937 42.8907 83.6437 42.6102 83.0625 42.0305C82.4812 41.4508 82.2 40.7215 82.2 39.8239C82.2 38.945 82.4812 38.2157 83.0625 37.636C83.625 37.0563 84.3563 36.7758 85.2563 36.7758ZM85.2563 37.5238C84.6375 37.5238 84.1312 37.7108 83.7187 38.0661C83.3062 38.4214 83.0625 38.9076 82.9875 39.4873H87.375C87.3 38.8702 87.0563 38.384 86.6625 38.0474C86.25 37.6921 85.7812 37.5238 85.2563 37.5238ZM89.4 42.7785V34.2139H90.1687V42.7785H89.4ZM96.8813 36.9067H97.65V42.7598H96.8813V41.6191C96.3375 42.4793 95.55 42.9094 94.5 42.9094C93.6562 42.9094 92.9438 42.6102 92.3625 42.0118C91.7625 41.4134 91.4812 40.6841 91.4812 39.8239C91.4812 38.9637 91.7813 38.2344 92.3625 37.636C92.9625 37.0376 93.675 36.7384 94.5 36.7384C95.55 36.7384 96.3375 37.1685 96.8813 38.0287V36.9067ZM92.925 41.4882C93.375 41.937 93.9187 42.1614 94.575 42.1614C95.2312 42.1614 95.775 41.937 96.225 41.4882C96.675 41.0394 96.9 40.4971 96.9 39.8426C96.9 39.1881 96.675 38.6458 96.225 38.197C95.775 37.7482 95.2312 37.5238 94.575 37.5238C93.9187 37.5238 93.375 37.7482 92.925 38.197C92.475 38.6458 92.25 39.1881 92.25 39.8426C92.25 40.4971 92.475 41.0394 92.925 41.4882ZM102.056 36.7758C102.769 36.7758 103.331 37.0002 103.744 37.4303C104.156 37.8604 104.363 38.4401 104.363 39.1881V42.7785H103.594V39.1881C103.594 38.6645 103.462 38.2531 103.181 37.9726C102.9 37.6921 102.506 37.5425 102 37.5425C101.437 37.5425 100.969 37.7295 100.631 38.0848C100.275 38.4401 100.106 38.9824 100.106 39.7304V42.7972H99.3375V36.9067H100.106V37.823C100.519 37.1311 101.175 36.7758 102.056 36.7758ZM108.6 42.9094C107.719 42.9094 106.969 42.6102 106.387 42.0305C105.806 41.4508 105.506 40.7028 105.506 39.8426C105.506 38.9824 105.806 38.2531 106.387 37.6547C106.969 37.0563 107.719 36.7758 108.6 36.7758C109.181 36.7758 109.706 36.9067 110.156 37.1872C110.625 37.4677 110.962 37.8417 111.169 38.3092L110.531 38.6645C110.381 38.3092 110.119 38.0287 109.781 37.823C109.425 37.6173 109.031 37.5051 108.6 37.5051C107.944 37.5051 107.4 37.7295 106.95 38.1783C106.5 38.6271 106.275 39.1694 106.275 39.8239C106.275 40.4784 106.5 41.0207 106.95 41.4695C107.4 41.9183 107.944 42.1427 108.6 42.1427C109.031 42.1427 109.425 42.0305 109.781 41.8248C110.119 41.6191 110.4 41.3386 110.587 40.9833L111.225 41.3573C110.981 41.8248 110.625 42.1988 110.156 42.4793C109.687 42.7785 109.181 42.9094 108.6 42.9094ZM115.012 36.7758C115.875 36.7758 116.587 37.075 117.131 37.6921C117.675 38.3092 117.937 39.0385 117.937 39.8613C117.937 39.9548 117.937 40.067 117.919 40.2166H112.744C112.819 40.815 113.081 41.2825 113.494 41.6378C113.925 41.9931 114.45 42.1614 115.069 42.1614C115.519 42.1614 115.894 42.0679 116.231 41.8809C116.55 41.6939 116.794 41.4508 116.962 41.1516L117.637 41.5443C117.375 41.9557 117.019 42.2923 116.587 42.5354C116.137 42.7785 115.631 42.8907 115.05 42.8907C114.131 42.8907 113.381 42.6102 112.8 42.0305C112.219 41.4508 111.937 40.7215 111.937 39.8239C111.937 38.945 112.219 38.2157 112.8 37.636C113.381 37.0563 114.112 36.7758 115.012 36.7758ZM115.012 37.5238C114.394 37.5238 113.887 37.7108 113.475 38.0661C113.062 38.4214 112.819 38.9076 112.744 39.4873H117.131C117.056 38.8702 116.812 38.384 116.419 38.0474C116.006 37.6921 115.537 37.5238 115.012 37.5238ZM119.681 42.7037C119.55 42.8346 119.4 42.8907 119.231 42.8907C119.044 42.8907 118.894 42.8346 118.781 42.7037C118.65 42.5728 118.594 42.4232 118.594 42.2549C118.594 42.0679 118.65 41.9183 118.781 41.8061C118.912 41.6752 119.062 41.6191 119.231 41.6191C119.419 41.6191 119.569 41.6752 119.681 41.8061C119.812 41.937 119.869 42.0866 119.869 42.2549C119.869 42.4232 119.794 42.5728 119.681 42.7037ZM125.981 34.5692H126.75V42.7785H125.981V41.6378C125.437 42.498 124.65 42.9281 123.6 42.9281C122.756 42.9281 122.044 42.6289 121.462 42.0305C120.862 41.4321 120.581 40.7028 120.581 39.8426C120.581 38.9824 120.881 38.2531 121.462 37.6547C122.062 37.0563 122.775 36.7571 123.6 36.7571C124.65 36.7571 125.437 37.1872 125.981 38.0474V34.5692ZM122.025 41.4882C122.475 41.937 123.019 42.1614 123.675 42.1614C124.331 42.1614 124.875 41.937 125.325 41.4882C125.775 41.0394 126 40.4971 126 39.8426C126 39.1881 125.775 38.6458 125.325 38.197C124.875 37.7482 124.331 37.5238 123.675 37.5238C123.019 37.5238 122.475 37.7482 122.025 38.197C121.575 38.6458 121.35 39.1881 121.35 39.8426C121.35 40.4971 121.575 41.0394 122.025 41.4882ZM129.187 35.5042C129.075 35.6164 128.944 35.6725 128.794 35.6725C128.644 35.6725 128.512 35.6164 128.4 35.5042C128.287 35.392 128.231 35.2611 128.231 35.1115C128.231 34.9619 128.287 34.831 128.4 34.7188C128.512 34.6066 128.644 34.5505 128.794 34.5505C128.944 34.5505 129.075 34.6066 129.187 34.7188C129.3 34.831 129.356 34.9619 129.356 35.1115C129.356 35.2611 129.3 35.392 129.187 35.5042ZM128.4 42.7785V36.9067H129.169V42.7598H128.4V42.7785ZM135.881 36.9067H136.65V42.5354C136.65 43.3769 136.369 44.0501 135.787 44.5363C135.206 45.0225 134.513 45.2656 133.706 45.2656C132.319 45.2656 131.4 44.7794 130.912 43.8444L131.587 43.4517C131.944 44.1623 132.637 44.5176 133.687 44.5176C134.362 44.5176 134.887 44.3306 135.281 43.9753C135.675 43.62 135.863 43.1338 135.863 42.5354V41.6191C135.319 42.4793 134.531 42.9094 133.481 42.9094C132.637 42.9094 131.925 42.6102 131.344 42.0118C130.744 41.4134 130.462 40.6841 130.462 39.8239C130.462 38.9637 130.762 38.2344 131.344 37.636C131.944 37.0376 132.656 36.7384 133.481 36.7384C134.531 36.7384 135.319 37.1685 135.863 38.0287V36.9067H135.881ZM131.906 41.4882C132.356 41.937 132.9 42.1614 133.556 42.1614C134.212 42.1614 134.756 41.937 135.206 41.4882C135.656 41.0394 135.881 40.4971 135.881 39.8426C135.881 39.1881 135.656 38.6458 135.206 38.197C134.756 37.7482 134.212 37.5238 133.556 37.5238C132.9 37.5238 132.356 37.7482 131.906 38.197C131.456 38.6458 131.231 39.1881 131.231 39.8426C131.25 40.4971 131.475 41.0394 131.906 41.4882ZM139.087 35.5042C138.975 35.6164 138.844 35.6725 138.694 35.6725C138.544 35.6725 138.412 35.6164 138.3 35.5042C138.188 35.392 138.131 35.2611 138.131 35.1115C138.131 34.9619 138.188 34.831 138.3 34.7188C138.412 34.6066 138.544 34.5505 138.694 34.5505C138.844 34.5505 138.975 34.6066 139.087 34.7188C139.2 34.831 139.256 34.9619 139.256 35.1115C139.256 35.2611 139.2 35.392 139.087 35.5042ZM138.3 42.7785V36.9067H139.069V42.7598H138.3V42.7785ZM143.831 37.6547H142.144V41.2077C142.144 41.5256 142.2 41.75 142.331 41.8996C142.463 42.0305 142.65 42.1053 142.894 42.1053C143.138 42.1053 143.456 42.1053 143.831 42.0866V42.7598C143.006 42.8907 142.387 42.8346 141.975 42.5915C141.562 42.3484 141.356 41.8809 141.356 41.2077V37.6547H140.119V36.9067H141.356V35.5042L142.125 35.2611V36.9067H143.812V37.6547H143.831ZM149.831 36.9067H150.6V42.7598H149.831V41.6191C149.287 42.4793 148.5 42.9094 147.45 42.9094C146.606 42.9094 145.894 42.6102 145.312 42.0118C144.712 41.4134 144.431 40.6841 144.431 39.8239C144.431 38.9637 144.731 38.2344 145.312 37.636C145.912 37.0376 146.625 36.7384 147.45 36.7384C148.5 36.7384 149.287 37.1685 149.831 38.0287V36.9067ZM145.875 41.4882C146.325 41.937 146.869 42.1614 147.525 42.1614C148.181 42.1614 148.725 41.937 149.175 41.4882C149.625 41.0394 149.85 40.4971 149.85 39.8426C149.85 39.1881 149.625 38.6458 149.175 38.197C148.725 37.7482 148.181 37.5238 147.525 37.5238C146.869 37.5238 146.325 37.7482 145.875 38.197C145.425 38.6458 145.2 39.1881 145.2 39.8426C145.2 40.4971 145.425 41.0394 145.875 41.4882ZM152.25 42.7785V34.2139H153.019V42.7785H152.25Z" fill="#6EADC1"/>
<path fill-rule="evenodd" clip-rule="evenodd" d="M80.8688 12.4102C80.8688 17.7397 80.8688 23.0505 80.8688 28.38H83.8313V22.1903H90.075V19.2357H83.8313V15.3648H90.2625V12.4102H80.8688ZM129.375 28.38V25.4254H122.513V21.8724H128.813V18.9178H122.513V15.3648H129.375V12.4102H119.55C119.55 17.7397 119.55 23.0505 119.55 28.38H129.375ZM116.981 28.38V25.4254H110.119V21.8724H116.419V18.9178H110.119V15.3648H116.981V12.4102H107.156C107.156 17.7397 107.156 23.0505 107.156 28.38H116.981ZM105.094 28.38L101.213 21.9659C103.2 21.3301 104.625 19.4788 104.625 17.3096C104.625 14.6168 102.431 12.4102 99.7125 12.4102H92.8125C92.8125 17.7397 92.8125 23.0505 92.8125 28.38H95.775V22.1903H98.0063L101.756 28.38C102.863 28.38 103.969 28.38 105.094 28.38ZM99.7125 19.2357H95.775V15.3648H99.7125C100.781 15.3648 101.663 16.225 101.663 17.3096C101.644 18.3568 100.781 19.2357 99.7125 19.2357Z" fill="#6EADC1"/>
</svg>
