<svg width="10" height="11" viewBox="0 0 10 11" fill="none" xmlns="http://www.w3.org/2000/svg">
<path fill-rule="evenodd" clip-rule="evenodd" d="M2.34604 0.0315843C2.09889 0.0966384 1.89101 0.284558 1.79571 0.529043C1.75933 0.622315 1.74479 0.716489 1.73643 0.912705C1.73017 1.05967 1.61226 1.17729 1.46528 1.18319L1.39841 1.18588C1.11771 1.19718 1.04586 1.20769 0.890178 1.26024C0.56284 1.37077 0.303515 1.58719 0.14555 1.88166C-0.0132258 2.17762 -0.00357247 1.88789 0.00292163 6.15926L0.00856173 9.87244C0.00869115 9.95764 0.0246789 10.0421 0.0557081 10.1214C0.192764 10.472 0.412006 10.7123 0.740111 10.8717C1.01721 11.0063 0.805052 11 5 11C9.19494 11 8.98279 11.0063 9.25988 10.8717C9.58799 10.7123 9.80723 10.472 9.94429 10.1214C9.97532 10.0421 9.9913 9.95764 9.99143 9.87244L9.99707 6.15926C10.0036 1.88933 10.0132 2.17992 9.85491 1.88009C9.74745 1.67657 9.49578 1.42998 9.29938 1.33578C9.0967 1.23858 8.93654 1.20301 8.62899 1.18691C8.47739 1.17897 8.35698 1.05374 8.3519 0.902023C8.34082 0.572262 8.29595 0.439897 8.13777 0.270352C8.00363 0.126576 7.85729 0.0482615 7.66131 0.0153369C7.28695 -0.0475465 6.9171 0.167065 6.77598 0.529043C6.73947 0.622659 6.72506 0.716554 6.71657 0.915928C6.7103 1.0631 6.58916 1.1792 6.44185 1.1792H6.29469H6.13687C5.99521 1.1792 5.87841 1.06815 5.87126 0.926674C5.85595 0.624098 5.81942 0.495968 5.70303 0.33676C5.34063 -0.158979 4.58282 -0.0864242 4.31132 0.469985C4.24756 0.600673 4.24267 0.628031 4.23549 0.894437C4.23122 1.05293 4.1015 1.1792 3.94295 1.1792H3.80214H3.60897C3.48056 1.1792 3.37647 1.07511 3.37647 0.946704C3.37647 0.681824 3.34119 0.533835 3.24135 0.379786C3.11708 0.188041 2.94163 0.0667655 2.7227 0.0213115C2.57368 -0.00961444 2.49435 -0.00746532 2.34604 0.0315843ZM2.6806 0.478087C2.76598 0.51387 2.86065 0.609334 2.8924 0.691667C2.90741 0.730545 2.91574 1.04387 2.91574 1.56812C2.91574 2.46953 2.91535 2.47241 2.77803 2.59053C2.59271 2.74993 2.33961 2.68876 2.23299 2.45881C2.19624 2.37959 2.19266 2.30158 2.19222 1.57072C2.19181 0.895383 2.19707 0.756979 2.2257 0.689883C2.31098 0.48995 2.49949 0.40218 2.6806 0.478087ZM5.2545 0.523885C5.40533 0.636585 5.40588 0.640389 5.40588 1.57678C5.40588 2.5112 5.40858 2.49306 5.25219 2.60991C5.08523 2.73465 4.85787 2.68702 4.74864 2.50443C4.71213 2.4434 4.69284 2.3736 4.69284 2.30248V1.57289C4.69284 0.74071 4.69322 0.733962 4.74317 0.639916C4.84346 0.451137 5.08405 0.396549 5.2545 0.523885ZM7.66087 0.478087C7.74626 0.51387 7.84092 0.609334 7.87267 0.691667C7.88768 0.730566 7.89601 1.04582 7.89601 1.57481C7.89601 2.39208 7.89569 2.39805 7.84549 2.49102C7.7895 2.59476 7.64895 2.68358 7.54084 2.68358C7.38947 2.68358 7.23888 2.56401 7.19492 2.40891C7.16459 2.30194 7.16459 0.830135 7.19492 0.723173C7.25481 0.511914 7.47067 0.398376 7.66087 0.478087ZM9.23384 6.44993C9.23336 9.80207 9.23301 9.8302 9.18871 9.92614C9.12605 10.0619 9.02568 10.1555 8.88908 10.2056C8.77366 10.2479 8.71671 10.2485 5 10.2485C1.28329 10.2485 1.22634 10.2479 1.11091 10.2056C0.974316 10.1555 0.873943 10.0619 0.811283 9.92614C0.766987 9.8302 0.766636 9.80207 0.766154 6.44993L0.765814 4.07057C0.765735 3.51823 1.21347 3.07043 1.76581 3.07043H5H8.23418C8.78652 3.07043 9.23426 3.51823 9.23418 4.07057L9.23384 6.44993ZM1.45571 4.43005C1.44985 4.44499 1.4477 4.72304 1.45091 5.04792C1.45416 5.37586 1.71954 5.64074 2.04748 5.64337L2.16432 5.64431L2.24834 5.64498C2.59189 5.64774 2.87186 5.37 2.87186 5.02643C2.87186 4.68206 2.59269 4.40289 2.24832 4.40289H2.16912C1.62294 4.40289 1.46398 4.40895 1.45571 4.43005ZM3.35453 5.02613C3.35453 5.37034 3.63357 5.64938 3.97778 5.64938H4.0566H4.13542C4.47963 5.64938 4.75866 5.37034 4.75866 5.02613C4.75866 4.68192 4.47963 4.40289 4.13542 4.40289H4.0566H3.97778C3.63357 4.40289 3.35453 4.68192 3.35453 5.02613ZM5.24133 5.02613C5.24133 5.37034 5.52037 5.64938 5.86458 5.64938H5.9434H6.02222C6.36643 5.64938 6.64546 5.37034 6.64546 5.02613C6.64546 4.68192 6.36642 4.40289 6.02221 4.40289H5.9434H5.86458C5.52037 4.40289 5.24133 4.68192 5.24133 5.02613ZM7.12813 5.02583C7.12813 5.37021 7.4073 5.64938 7.75168 5.64938H7.8415H7.93698C8.27729 5.64938 8.55226 5.3718 8.54904 5.03151C8.54582 4.68854 8.26832 4.41143 7.92535 4.40868L7.83568 4.40796L7.75166 4.40728C7.40811 4.40453 7.12813 4.68227 7.12813 5.02583ZM1.45571 6.08488C1.44985 6.09981 1.4477 6.37787 1.45091 6.70275C1.45416 7.03069 1.71954 7.29557 2.04748 7.2982L2.16432 7.29913L2.24834 7.29981C2.59189 7.30256 2.87186 7.02483 2.87186 6.68126C2.87186 6.33688 2.59269 6.05771 2.24832 6.05771H2.16912C1.62294 6.05771 1.46398 6.06377 1.45571 6.08488ZM3.35453 6.68096C3.35453 7.02517 3.63357 7.30421 3.97778 7.30421H4.0566H4.13542C4.47963 7.30421 4.75866 7.02517 4.75866 6.68096C4.75866 6.33675 4.47963 6.05771 4.13542 6.05771H4.0566H3.97778C3.63357 6.05771 3.35453 6.33675 3.35453 6.68096ZM5.24133 6.68096C5.24133 7.02517 5.52037 7.30421 5.86458 7.30421H5.9434H6.02221C6.36642 7.30421 6.64546 7.02517 6.64546 6.68096C6.64546 6.33675 6.36642 6.05771 6.02221 6.05771H5.9434H5.86458C5.52037 6.05771 5.24133 6.33675 5.24133 6.68096ZM7.12813 6.68096C7.12813 7.02469 7.40824 7.30256 7.75196 7.29981L7.83568 7.29913L7.93075 7.29837C8.2698 7.29565 8.54323 7.02003 8.54323 6.68096C8.54323 6.34189 8.2698 6.06627 7.93075 6.06355L7.83568 6.06279L7.75196 6.06211C7.40824 6.05936 7.12813 6.33723 7.12813 6.68096ZM1.4458 8.32504C1.4458 8.66332 1.72002 8.93754 2.0583 8.93754H2.15883H2.25936C2.59764 8.93754 2.87186 8.66332 2.87186 8.32504C2.87186 7.98677 2.59764 7.71254 2.25936 7.71254H2.15883H2.0583C1.72002 7.71254 1.4458 7.98677 1.4458 8.32504ZM3.35453 8.32504C3.35453 8.66332 3.62876 8.93754 3.96704 8.93754H4.0566H4.14616C4.48444 8.93754 4.75866 8.66332 4.75866 8.32504C4.75866 7.98677 4.48444 7.71254 4.14616 7.71254H4.0566H3.96704C3.62876 7.71254 3.35453 7.98677 3.35453 8.32504ZM5.24133 8.32504C5.24133 8.66332 5.51556 8.93754 5.85383 8.93754H5.9434H6.03296C6.37124 8.93754 6.64546 8.66332 6.64546 8.32504C6.64546 7.98677 6.37124 7.71254 6.03296 7.71254H5.9434H5.85383C5.51556 7.71254 5.24133 7.98677 5.24133 8.32504ZM7.12813 8.32504C7.12813 8.66332 7.40236 8.93754 7.74063 8.93754H7.84117H7.9417C8.27997 8.93754 8.5542 8.66332 8.5542 8.32504C8.5542 7.98677 8.27997 7.71254 7.9417 7.71254H7.84117H7.74063C7.40236 7.71254 7.12813 7.98677 7.12813 8.32504Z" fill="#D8EBF7"/>
</svg>
