<svg width="34" height="33" viewBox="0 0 34 33" fill="none" xmlns="http://www.w3.org/2000/svg">
<path fill-rule="evenodd" clip-rule="evenodd" d="M15.1776 0.03872C11.9341 0.349243 8.72519 1.65145 6.19609 3.68358C5.40513 4.31902 4.01794 5.73798 3.4354 6.50735C1.70073 8.79827 0.634456 11.3338 0.182629 14.2422C0.0209921 15.2825 0.0209921 17.722 0.182629 18.7622C0.474711 20.6422 0.938415 22.1183 1.75482 23.7665C2.62604 25.5253 3.59717 26.8633 4.99918 28.2366C7.64965 30.8326 10.834 32.3719 14.6793 32.9157C15.5758 33.0425 18.0919 33.0225 19.0187 32.8812C21.5294 32.4985 23.9407 31.6005 25.8881 30.3231C28.426 28.6583 30.3818 26.4576 31.7148 23.7665C32.5312 22.1183 32.9949 20.6422 33.287 18.7622C33.4486 17.722 33.4486 15.2825 33.287 14.2422C32.9949 12.3622 32.5312 10.8861 31.7148 9.23794C30.8436 7.47914 29.8724 6.1411 28.4704 4.76786C27.0939 3.41961 25.833 2.53363 24.076 1.68012C22.4302 0.880601 20.9066 0.409101 19.084 0.135254C18.2644 0.0121167 16.0315 -0.0430918 15.1776 0.03872ZM17.0611 9.45696V14.9385L17.2295 14.9803C17.6541 15.0858 18.1662 15.5923 18.2727 16.0122L18.3148 16.1784L22.37 16.195L26.4252 16.2116L26.4446 16.6132C26.4712 17.1645 26.3716 17.4835 26.0989 17.7204C25.6432 18.1163 25.64 18.1166 20.8177 18.1161C17.8746 18.1159 16.3577 18.0929 16.1863 18.0458C15.8447 17.9519 15.2698 17.383 15.1749 17.0449C15.1265 16.8724 15.104 14.9562 15.1038 10.977C15.1034 4.45068 15.0875 4.68624 15.5594 4.21933L15.8059 3.97537H16.4335H17.0611V9.45696Z" fill="#7EC16E"/>
</svg>
