<svg width="60" height="59" viewBox="0 0 60 59" fill="none" xmlns="http://www.w3.org/2000/svg">
<path fill-rule="evenodd" clip-rule="evenodd" d="M22.5223 0.306033C21.6008 0.768716 21.308 1.34713 21.2364 2.84606L21.1806 4.01446H15.4744H9.76822L9.51334 4.28772C9.17548 4.65015 9.18216 5.19998 9.52834 5.52769L9.79822 5.78312L29.96 5.81406C46.8432 5.83992 50.1532 5.87121 50.3154 6.0069C50.4893 6.15227 50.5093 6.61602 50.5093 10.5063C50.5093 14.9756 50.555 15.4774 50.9826 15.708C51.3555 15.9091 51.8596 15.8398 52.1295 15.5503C52.3822 15.2792 52.3843 15.2382 52.3843 10.6457C52.3843 5.60114 52.3744 5.51694 51.7042 4.7967C51.5304 4.60988 51.1772 4.35858 50.9194 4.23836C50.4753 4.03111 49.9423 4.01954 40.7532 4.01706L31.0558 4.01446V2.88881C31.0558 2.21049 30.9929 1.61142 30.8975 1.38126C30.6882 0.876533 29.9985 0.278636 29.4476 0.124527C29.1933 0.0533174 27.756 0.000412406 26.0689 5.81319e-05C23.1423 -0.000650417 23.131 0.000294335 22.5223 0.306033ZM29.1767 2.1172C29.2433 2.24285 29.298 2.72112 29.298 3.18003V4.01446H26.1924H23.0869V3.09335C23.0869 2.53442 23.1422 2.11649 23.2275 2.03052C23.3291 1.92814 24.1564 1.88881 26.2118 1.88881C28.9031 1.88881 29.0618 1.90098 29.1767 2.1172ZM1.46547 4.23836C0.891005 4.50631 0.423888 4.9932 0.182595 5.57539C0.020639 5.96604 0.000599609 8.08354 0.000599609 24.7986C0.000599609 45.3889 -0.0459246 44.0196 0.68065 44.8004C1.36726 45.5384 1.59484 45.5772 5.24483 45.5801L8.55543 45.5827V46.8361C8.55543 48.2761 8.73004 48.7406 9.46119 49.2455L9.88565 49.5387L14.5526 49.5722C17.1195 49.5905 19.2197 49.6296 19.2197 49.6588C19.2197 49.6882 18.2968 51.5207 17.1689 53.731C15.9135 56.1911 15.118 57.8813 15.118 58.0892C15.118 58.6083 15.4759 58.9743 15.9835 58.9743C16.2183 58.9743 16.4855 58.8973 16.5773 58.803C16.669 58.7089 17.7719 56.6124 19.0281 54.1443L21.3121 49.6568L26.1681 49.626L31.024 49.5952L33.3158 54.1135C34.7499 56.9408 35.7169 58.7149 35.8996 58.8538C36.4129 59.244 37.2668 58.8007 37.2668 58.1438C37.2668 57.973 36.344 56.013 35.216 53.7884C34.0881 51.5638 33.1652 49.7109 33.1652 49.6708C33.1652 49.6306 35.1823 49.5966 37.6477 49.5952C41.755 49.5928 42.1695 49.5744 42.599 49.3746C43.5842 48.9164 43.8295 48.3944 43.8295 46.7559V45.5827H46.5911C48.1684 45.5827 49.4447 45.5331 49.5672 45.4671C49.9067 45.2839 50.0408 44.7458 49.857 44.3049C49.7707 44.0984 49.6845 43.9165 49.6653 43.9008C49.646 43.8852 38.9666 43.8453 25.933 43.8122C3.38468 43.7552 2.22544 43.742 2.02634 43.5413C1.82723 43.3407 1.81704 42.4314 1.81704 24.7986C1.81704 7.1727 1.82723 6.25631 2.0261 6.05579C2.20939 5.87086 2.53857 5.83756 4.70189 5.78583C6.97079 5.73151 7.18197 5.70836 7.33467 5.49757C7.59084 5.14389 7.54127 4.56642 7.22955 4.27119C6.96821 4.02391 6.86591 4.01458 4.4463 4.01706C2.25157 4.0193 1.87504 4.04729 1.46547 4.23836ZM37.2476 9.25725C35.6465 9.83366 34.8689 11.8351 35.6461 13.3801L35.8723 13.8299L33.5061 17.1736L31.1398 20.5174L30.3946 20.4572C29.7275 20.4032 29.5696 20.4364 28.8883 20.7745L28.1271 21.152L26.6061 20.2888L25.0852 19.4254L25.081 18.7759C25.0705 17.1342 23.7719 15.8288 22.1494 15.8288C20.5264 15.8288 19.2273 17.1351 19.2185 18.7759L19.215 19.4254L17.6857 20.2866L16.1562 21.1479L15.4427 20.7885C14.3312 20.2289 13.2401 20.3212 12.2842 21.056C11.2009 21.8887 10.8343 23.3893 11.4133 24.6214C11.943 25.7486 12.876 26.3574 14.0735 26.3574C15.7107 26.3574 16.9843 25.0998 16.9905 23.4771L16.9931 22.8053L18.5783 21.8971C20.0475 21.0553 20.1786 21.0026 20.3698 21.1768C21.169 21.9057 23.127 21.9083 23.924 21.1815C24.1082 21.0135 24.2566 21.073 25.7 21.894L27.2749 22.7898L27.2805 23.4201C27.2909 24.5751 27.8915 25.5525 28.8953 26.0474C30.502 26.8395 32.3464 26.0984 32.9891 24.4026C33.2483 23.7185 33.1772 22.6178 32.8359 22.035L32.6018 21.6351L34.977 18.2865L37.352 14.9379L38.0839 14.9785C39.0248 15.0309 39.7297 14.7652 40.3747 14.1151C41.1729 13.3107 41.4435 12.1508 41.0769 11.1041C40.5279 9.53595 38.7951 8.70033 37.2476 9.25725ZM39.0805 11.3064C39.614 11.844 39.3929 12.837 38.6842 13.0859C38.2055 13.2541 37.7722 13.1264 37.4297 12.7163C37.1877 12.4265 37.1397 12.2706 37.192 11.9457C37.3519 10.9522 38.3827 10.6033 39.0805 11.3064ZM44.35 16.4591C41.7116 16.8951 39.6275 18.0239 37.7302 20.045C36.6511 21.1945 36.1705 21.9263 35.5636 23.3438C33.4917 28.1828 34.8864 33.7252 39.0132 37.0522C41.3518 38.9375 44.7874 39.8717 47.7056 39.4155L48.7107 39.2584L51.3385 43.8511C52.963 46.6901 54.1131 48.5736 54.3505 48.7839C55.1048 49.4518 55.6396 49.6528 56.6617 49.6525C57.4527 49.6523 57.6937 49.6024 58.2038 49.3333C59.6855 48.5514 60.3828 46.7064 59.788 45.1411C59.6705 44.8318 58.4814 42.6769 57.1457 40.3522C55.8098 38.0275 54.6894 36.053 54.6556 35.9644C54.6218 35.8757 54.8619 35.4684 55.1891 35.0592C56.8397 32.9951 57.7996 29.8861 57.6132 27.208C57.196 21.2135 52.4664 16.5827 46.5248 16.3511C45.8159 16.3235 44.894 16.3692 44.35 16.4591ZM22.9164 18.003C23.1156 18.2036 23.2041 18.424 23.2041 18.7192C23.2041 19.2896 23.0267 19.5906 22.5794 19.779C21.6271 20.1799 20.7527 19.3104 21.1485 18.3561C21.3441 17.8842 21.6079 17.7213 22.184 17.7166C22.5032 17.7141 22.71 17.7949 22.9164 18.003ZM48.4513 18.4713C50.2301 18.9698 51.4618 19.6549 52.7148 20.8425C54.1633 22.2154 55.0895 23.8361 55.5628 25.8258C55.8745 27.1364 55.819 29.2089 55.4359 30.5639C53.8155 36.294 47.4777 39.2542 42.1159 36.7852C39.9774 35.8006 38.3048 34.1162 37.3275 31.9638C36.6907 30.5612 36.5092 29.6622 36.5124 27.928C36.5172 25.2512 37.2782 23.2494 39.0116 21.3544C40.4491 19.7827 42.0457 18.8745 44.2982 18.3471C45.1593 18.1454 47.5426 18.2167 48.4513 18.4713ZM44.474 19.6513C41.8086 20.2746 39.7305 21.8841 38.6077 24.1946C36.5823 28.363 38.2833 33.396 42.4232 35.4832C44.0922 36.3248 46.2297 36.5827 47.936 36.1486C50.615 35.4671 52.5712 33.8824 53.665 31.5079C54.4639 29.7738 54.674 28.1298 54.3289 26.3146C54.0143 24.6596 53.5602 23.8538 52.9421 23.8538C52.0495 23.8538 51.8135 24.4217 52.2237 25.5821C52.5832 26.5982 52.7067 28.1597 52.5093 29.1893C52.0542 31.5636 50.073 33.6917 47.7504 34.3013C46.8751 34.531 45.363 34.5333 44.4978 34.3062C41.6524 33.5594 39.6106 30.9028 39.6106 27.9476C39.6106 26.1693 40.1894 24.721 41.4293 23.3965C42.7861 21.9471 44.4406 21.3009 46.5248 21.4063C47.7606 21.4687 48.5134 21.7049 49.6222 22.3778C50.4757 22.8956 50.9759 22.9221 51.3303 22.4681C51.6524 22.0554 51.57 21.535 51.1243 21.1675C50.6366 20.7654 49.3403 20.1069 48.5024 19.8358C47.5186 19.5173 45.4516 19.4227 44.474 19.6513ZM14.6669 22.4462C14.9745 22.6121 15.2301 23.2373 15.1541 23.6378C14.9938 24.4827 13.8379 24.812 13.2892 24.1694C12.4682 23.2074 13.5559 21.847 14.6669 22.4462ZM30.9813 22.6299C31.5175 23.1704 31.3736 24.0364 30.6882 24.3936C29.774 24.87 28.7589 23.8453 29.232 22.9236C29.4624 22.4745 29.7122 22.3268 30.2488 22.3222C30.5532 22.3197 30.7592 22.4062 30.9813 22.6299ZM19.7417 26.6237L19.454 26.9135V33.4192V39.925L19.7417 40.2148C20.0259 40.5013 20.0548 40.5047 22.1494 40.5047C24.244 40.5047 24.2729 40.5013 24.5571 40.2148L24.8448 39.925V33.4192V26.9135L24.5571 26.6237C24.2729 26.3372 24.244 26.3338 22.1494 26.3338C20.0548 26.3338 20.0259 26.3372 19.7417 26.6237ZM22.9697 33.4192V38.6153H22.1494H21.3291V33.4192V28.2232H22.1494H22.9697V33.4192ZM11.8794 30.9594C11.3977 31.1944 11.368 31.4751 11.368 35.7921V39.925L11.6557 40.2148C11.9399 40.5013 11.9687 40.5047 14.0633 40.5047C16.158 40.5047 16.1868 40.5013 16.471 40.2148L16.7587 39.925V35.737C16.7587 33.4337 16.7259 31.4631 16.6859 31.358C16.5189 30.9194 16.0263 30.8209 14.0399 30.8293C12.9817 30.8336 12.018 30.8917 11.8794 30.9594ZM28.0675 30.9576C27.54 31.2484 27.5401 31.2472 27.5401 35.724V39.9912L27.8113 40.248C28.0692 40.4921 28.1872 40.5047 30.2008 40.5047C32.1113 40.5047 32.3461 40.4827 32.5956 40.2791L32.8722 40.0534L32.9058 35.7867L32.9393 31.5201L32.5925 31.1707L32.2457 30.8212L30.2738 30.8248C29.0741 30.827 28.2101 30.879 28.0675 30.9576ZM14.8837 35.663V38.6153H14.0633H13.243V35.663V32.7107H14.0633H14.8837V35.663ZM31.0558 35.663V38.6153H30.1769H29.298V35.663V32.7107H30.1769H31.0558V35.663ZM35.8606 36.3715C35.648 36.5858 35.6262 36.7651 35.6262 38.2995C35.6262 40.6193 35.4901 40.5059 38.2705 40.501C39.809 40.4982 40.426 40.4561 40.5729 40.3438C40.8803 40.1083 41.0297 39.6094 40.8976 39.2591C40.7174 38.7817 40.1436 38.6153 38.6769 38.6153H37.384V37.6338C37.384 36.8092 37.3458 36.6109 37.1451 36.3939C36.8348 36.0581 36.1828 36.0468 35.8606 36.3715ZM55.7775 41.6648C58.3307 46.1378 58.3848 46.2721 57.9647 47.0906C57.7314 47.5454 57.2337 47.8264 56.6617 47.8264C55.9327 47.8264 55.6029 47.5526 54.9182 46.3783C53.3711 43.7257 50.5116 38.692 50.5383 38.6688C50.5546 38.6547 50.8843 38.481 51.271 38.2827C51.6577 38.0845 52.2378 37.74 52.5601 37.5171C53.079 37.1583 53.1603 37.1338 53.2712 37.3027C53.3401 37.4076 54.4679 39.3705 55.7775 41.6648ZM41.9544 46.646V47.7091L26.1631 47.6793L10.3719 47.6493L10.338 46.616L10.3041 45.5827H26.1293H41.9544V46.646Z" fill="white"/>
</svg>
