<svg width="51" height="51" viewBox="0 0 51 51" fill="none" xmlns="http://www.w3.org/2000/svg">
<path fill-rule="evenodd" clip-rule="evenodd" d="M10.3493 0.0785689C8.72821 0.349285 7.32619 1.64097 6.90611 3.25091C6.78551 3.7131 6.7641 6.70783 6.7641 23.1111V42.427H3.73128C1.72036 42.427 0.616704 42.4643 0.455766 42.5377C0.00502193 42.7433 -0.0237596 42.9295 0.010101 45.4234L0.0417706 47.7596L0.360558 48.4333C0.985287 49.7532 2.1957 50.68 3.57722 50.8962C4.43817 51.0309 39.6436 51.0363 40.4641 50.9017C42.2175 50.6144 43.6916 49.209 44.0093 47.5218C44.1501 46.7738 44.1443 38.8892 44.0028 38.6244C43.9436 38.5137 43.7441 38.36 43.5593 38.2827C43.173 38.1212 42.8732 38.1984 42.5667 38.5386C42.3757 38.7507 42.3656 38.9371 42.3177 43.1102C42.2694 47.3284 42.2614 47.4727 42.053 47.8593C41.2451 49.3579 39.2926 49.65 38.0951 48.4515C37.4145 47.7704 37.3382 47.4268 37.3382 45.043V43.0097L37.0471 42.7184L36.756 42.427H22.6051H8.45414L8.48053 23.1151L8.50692 3.80311L8.79354 3.21892C9.09022 2.61419 9.6308 2.13197 10.2812 1.89195C10.5188 1.80424 14.6746 1.77304 26.8564 1.76736C35.7984 1.76317 43.1145 1.77503 43.1145 1.79367C43.1145 1.81231 42.9821 2.09269 42.8204 2.41664C42.3619 3.33534 42.3076 3.99857 42.3391 8.30302C42.3663 12.0434 42.3758 12.2141 42.5667 12.4261C42.8498 12.7403 43.1551 12.8338 43.5026 12.7126C44.0597 12.5183 44.1104 12.3198 44.1104 10.3353V8.53765H47.2053H50.3003L50.5994 8.23823L50.8985 7.93891L50.8617 5.62177C50.8275 3.48196 50.8071 3.26018 50.594 2.72224C50.161 1.62921 49.2334 0.737717 48.0182 0.246521L47.4466 0.0154749L29.1719 0.00132109C18.4718 -0.00705157 10.67 0.0250436 10.3493 0.0785689ZM47.7483 2.03648C48.1616 2.24908 48.5223 2.59984 48.8477 3.10539C49.0142 3.36414 49.0446 3.62928 49.0733 5.07396L49.1067 6.74351H46.6085H44.1104L44.111 5.37298C44.1113 4.61925 44.1602 3.82713 44.2195 3.61283C44.4399 2.81862 44.9919 2.23343 45.8485 1.88587C46.2753 1.71273 47.2729 1.79178 47.7483 2.03648ZM10.1502 7.64058V8.53765H23.7442H37.3382V7.64058V6.74351H23.7442H10.1502V7.64058ZM10.1502 11.0295V11.9266H23.7442H37.3382V11.0295V10.1324H23.7442H10.1502V11.0295ZM31.538 18.8798C25.8871 24.5355 25.2878 25.1657 25.2878 25.4527C25.2878 25.6445 25.383 25.8809 25.528 26.0499L25.7682 26.3296L27.7189 26.3604L29.6698 26.3913L29.673 31.1946C29.6763 36.2595 29.6694 36.1814 30.1363 36.4303C30.2963 36.5156 32.4098 36.5462 38.1334 36.5462C46.6979 36.5462 46.3686 36.5699 46.5894 35.9363C46.664 35.722 46.6997 34.1252 46.6997 31.0054V26.3915L48.5842 26.3606C50.4213 26.3304 50.4751 26.3235 50.7253 26.088C51.1469 25.6912 51.0833 25.2245 50.5339 24.6849L50.0858 24.2448V21.4895C50.0858 19.73 50.0458 18.6196 49.9754 18.4173C49.7844 17.8689 49.524 17.8074 47.3941 17.8074H45.4893L45.1982 18.0987C45.0161 18.2809 44.9071 18.4939 44.9071 18.667C44.9071 18.9094 44.5119 18.5503 41.7356 15.7841C38.6615 12.7213 38.5523 12.6243 38.1762 12.6243C37.7958 12.6243 37.6663 12.7463 31.538 18.8798ZM10.1502 14.4185V15.3155H21.603H33.0559V14.4185V13.5214H21.603H10.1502V14.4185ZM41.4718 18.1166C43.2791 19.9313 44.9325 21.546 45.1461 21.7049C45.5824 22.0293 45.8973 22.0673 46.2476 21.8376C46.5725 21.6245 46.6997 21.2016 46.6997 20.3342V19.6015H47.4964H48.2931V22.086V24.5705L46.8402 24.6028C45.3886 24.6351 45.3871 24.6353 45.1472 24.9148L44.9071 25.1945V29.9733V34.7521H43.2742H41.6413L41.6027 32.3848C41.5595 29.7409 41.4987 29.4623 40.8162 28.7793C40.2323 28.1949 39.7374 28.0358 38.369 27.9925C36.4316 27.9312 35.5352 28.3354 34.9832 29.5192C34.7604 29.9971 34.7508 30.1147 34.7499 32.3848L34.7489 34.7521H33.0559H31.3628V29.9352V25.1184L31.1061 24.8767C30.8674 24.6519 30.7621 24.6328 29.5962 24.6017L28.3431 24.5683L33.2137 19.6927C35.8926 17.0112 38.1073 14.8172 38.1352 14.8172C38.1631 14.8172 39.6646 16.3019 41.4718 18.1166ZM10.1502 17.8572V18.7045H19.91H29.6698V17.8572V17.01H19.91H10.1502V17.8572ZM36.0545 19.6378C35.6027 19.8944 35.5529 20.1293 35.5491 22.0218C35.5452 24.0155 35.624 24.3701 36.1167 24.5743C36.3267 24.6613 36.9701 24.6882 38.3174 24.6662C40.8605 24.6246 40.6648 24.8308 40.705 22.1527L40.7355 20.124L40.4898 19.8379L40.244 19.5517L38.2683 19.5272C36.7522 19.5083 36.2372 19.5341 36.0545 19.6378ZM10.1502 21.2462V22.0934H18.217H26.2837V21.2462V20.3989H18.217H10.1502V21.2462ZM38.9317 22.0934V22.8908H38.135H37.3382V22.0934V21.296H38.135H38.9317V22.0934ZM10.1502 24.6351V25.4823H17.3704H24.5907V24.6351V23.7879H17.3704H10.1502V24.6351ZM10.1502 28.024V28.8713H17.3704H24.5907V28.024V27.1768H17.3704H10.1502V28.024ZM39.3702 29.8818C39.7656 30.0621 39.828 30.4427 39.828 32.6738V34.7521H38.1281H36.4283L36.46 32.5006L36.4917 30.2491L36.7712 30.0088C37.0277 29.788 37.1353 29.7683 38.0861 29.7683C38.6555 29.7683 39.2334 29.8194 39.3702 29.8818ZM10.1502 31.413V32.2602H17.3704H24.5907V31.413V30.5657H17.3704H10.1502V31.413ZM10.1712 34.8268L10.2 35.699L17.3953 35.7246L24.5907 35.7501V34.8524V33.9547H17.3666H10.1424L10.1712 34.8268ZM10.1502 38.2416V39.1395L15.2541 39.1137L20.3581 39.0879L20.3869 38.2158L20.4157 37.3436H15.2829H10.1502V38.2416ZM21.1471 37.4776C21.1188 37.5512 21.109 37.9437 21.1253 38.3497L21.1549 39.0879L22.8728 39.1152L24.5907 39.1424V38.2431V37.3436H22.8946C21.5665 37.3436 21.1872 37.3727 21.1471 37.4776ZM35.5473 45.5419C35.5493 47.0428 35.7167 48.01 36.0902 48.6787C36.2288 48.9271 36.3423 49.1471 36.3423 49.1676C36.3423 49.1881 29.0039 49.2045 20.0345 49.2039L3.7266 49.2029L3.22865 48.967C2.95478 48.8371 2.58729 48.5796 2.41211 48.3947C1.85819 47.8104 1.75591 47.4259 1.70592 45.7412L1.66081 44.2212H18.6032H35.5456L35.5473 45.5419Z" fill="white"/>
</svg>
