<svg width="34" height="36" viewBox="0 0 34 36" fill="none" xmlns="http://www.w3.org/2000/svg">
<path fill-rule="evenodd" clip-rule="evenodd" d="M15.9008 0.0993124C15.3244 0.20735 14.7669 0.393674 14.2676 0.64527C14.0733 0.743179 11.1051 2.3788 7.67139 4.28001C1.10067 7.91821 1.03143 7.96132 0.538439 8.7211C0.0695025 9.44375 -0.10736 10.3882 0.0697154 11.2234C0.320075 12.404 0.868752 13.0858 2.13055 13.7843C2.58012 14.0333 2.94924 14.2578 2.9508 14.2834C2.95236 14.3089 2.61134 14.5146 2.19291 14.7406C1.24298 15.2534 0.728994 15.7397 0.372786 16.4625C-0.294367 17.8165 -0.0330818 19.4027 1.03001 20.4517C1.29349 20.7117 1.69454 20.9902 2.19291 21.2593C2.61134 21.4852 2.95236 21.6909 2.9508 21.7165C2.94924 21.7421 2.58012 21.9666 2.13055 22.2155C0.867333 22.9148 0.321423 23.5888 0.0744686 24.754C-0.247544 26.2732 0.491049 27.7554 1.97462 28.5673C2.22044 28.7018 5.02342 30.2523 8.20346 32.0128C11.3835 33.7732 14.145 35.2927 14.3401 35.3892C16.0239 36.2222 18.025 36.2023 19.7673 35.3349C20.4786 34.9807 20.8314 34.5154 20.8314 33.9313C20.8314 32.8413 19.6603 32.2266 18.6199 32.7704C17.8273 33.1846 16.9907 33.2925 16.1851 33.0844C15.8865 33.0073 13.9271 31.9586 9.38439 29.4445C3.61902 26.2538 2.99372 25.8907 2.90618 25.6837C2.78323 25.3926 2.8451 25.1478 3.09439 24.9399C3.2023 24.8498 3.88513 24.4512 4.61173 24.0538L5.93291 23.3315L10.145 25.6609C12.4616 26.942 14.545 28.0659 14.7747 28.1584C15.3978 28.4095 16.1984 28.5505 17.0005 28.5505C18.1289 28.5505 19.0632 28.3085 20.0766 27.7537C20.3161 27.6226 22.1563 26.6046 24.1658 25.4915C26.1752 24.3785 27.8832 23.439 27.9612 23.4037C28.0751 23.3523 28.3697 23.4872 29.451 24.0861C30.1924 24.4966 30.8681 24.8965 30.9526 24.9749C31.1619 25.169 31.2103 25.4099 31.095 25.6837C31.009 25.8877 30.6493 26.1059 27.8189 27.6713C24.8851 29.2938 24.6243 29.4532 24.4434 29.7341C24.0495 30.3456 24.1123 30.9778 24.6166 31.4778C24.897 31.7558 25.2791 31.9253 25.6273 31.9263C25.9103 31.927 26.2653 31.7577 28.0322 30.7788C29.0077 30.2383 30.4057 29.4649 31.1389 29.06C31.94 28.6177 32.6237 28.1864 32.8524 27.9791C34.2973 26.6699 34.3874 24.4913 33.0558 23.0629C32.7906 22.7782 32.4597 22.5417 31.8704 22.2155C31.4208 21.9666 31.0517 21.7454 31.0501 21.724C31.0486 21.7025 31.3894 21.4968 31.8074 21.2668C32.7586 20.7435 33.276 20.252 33.6281 19.5373C34.124 18.531 34.124 17.4688 33.6281 16.4625C33.276 15.7478 32.7586 15.2563 31.8074 14.733C31.3894 14.503 31.0486 14.2973 31.0501 14.2758C31.0517 14.2545 31.4208 14.0333 31.8704 13.7843C32.4597 13.4581 32.7906 13.2216 33.0558 12.937C34.3865 11.5095 34.2972 9.32987 32.8545 8.02259C32.5806 7.77444 31.3435 7.05299 28.3741 5.40977C26.1181 4.16136 23.3464 2.62618 22.2148 1.99842C21.0833 1.37059 19.9659 0.7621 19.7318 0.646114C18.5394 0.0554923 17.1745 -0.139271 15.9008 0.0993124ZM17.8191 2.91589C18.1218 2.99376 19.9257 3.95611 24.1658 6.30165C31.6895 10.4638 31.0199 10.0729 31.1148 10.3581C31.2169 10.6649 31.1265 10.9009 30.8211 11.1242C30.4471 11.3977 18.5781 17.9388 18.1033 18.1331C17.4896 18.3841 16.5121 18.3846 15.9008 18.1341C15.6667 18.0381 14.0386 17.164 12.2827 16.1914C10.5269 15.2189 7.82923 13.7283 6.28799 12.8789C4.74674 12.0296 3.36043 11.2438 3.20733 11.1328C2.8595 10.8807 2.76933 10.64 2.90377 10.3221C2.99472 10.1072 3.55248 9.78313 9.39091 6.5531C13.4184 4.32496 15.9191 2.98173 16.1589 2.91779C16.6639 2.7831 17.3003 2.78239 17.8191 2.91589ZM10.2322 18.2785C13.2231 19.935 14.6557 20.69 15.0699 20.828C15.9165 21.1101 16.8333 21.208 17.6714 21.1059C18.787 20.97 19.3327 20.7397 21.87 19.3342C23.1522 18.6239 25.0741 17.5598 26.141 16.9695L28.0807 15.8961L29.4753 16.6705C30.2424 17.0964 30.9331 17.5066 31.0102 17.582C31.2004 17.7682 31.2004 18.2314 31.0102 18.4187C30.7846 18.6408 18.4316 25.4501 17.9815 25.6004C17.4315 25.7841 16.569 25.784 16.0185 25.6001C15.793 25.5248 15.0997 25.1806 14.4777 24.8352C13.8557 24.4898 12.1018 23.5184 10.5801 22.6766C9.05833 21.8347 6.75976 20.5627 5.47214 19.8498C4.18451 19.1369 3.06786 18.4922 2.99074 18.4171C2.8004 18.2318 2.8004 17.7681 2.99074 17.5825C3.13994 17.4369 5.86828 15.8928 5.94043 15.913C5.96385 15.9196 7.89514 16.984 10.2322 18.2785Z" fill="#695697"/>
</svg>
