<svg width="53" height="53" viewBox="0 0 53 53" fill="none" xmlns="http://www.w3.org/2000/svg">
<path fill-rule="evenodd" clip-rule="evenodd" d="M18.836 0.973249C18.4364 1.15927 18.2222 1.39863 16.1414 3.98382C15.1745 5.18519 14.3332 6.22055 14.2718 6.28465C14.2105 6.34876 12.788 6.61484 11.1109 6.87594C9.43371 7.13694 7.90139 7.39854 7.70572 7.45717C7.20461 7.60732 6.73022 8.09305 6.59859 8.59077C6.5372 8.82291 6.27952 10.3386 6.02602 11.9591C5.77251 13.5795 5.55499 14.9379 5.54269 14.9779C5.53039 15.0178 4.37995 15.9779 2.98607 17.1114C1.5922 18.2449 0.357191 19.3014 0.241619 19.4591C-0.179096 20.0332 -0.0760267 20.5057 1.17768 23.7502C1.80504 25.374 2.31846 26.7684 2.31856 26.8489C2.31866 26.9293 1.80504 28.321 1.17738 29.9414C-0.0770432 33.1796 -0.180011 33.651 0.241619 34.2264C0.357191 34.3842 1.5922 35.4407 2.98607 36.5742C4.37995 37.7077 5.53039 38.6678 5.54269 38.7077C5.55499 38.7476 5.77251 40.106 6.02602 41.7265C6.27952 43.3469 6.5372 44.8626 6.59859 45.0948C6.71914 45.5507 7.19322 46.0738 7.60408 46.2041C7.74384 46.2485 9.28622 46.5164 11.0317 46.7995L14.2052 47.3142L16.2665 49.8472C17.4002 51.2404 18.4569 52.4748 18.6147 52.5903C19.1869 53.0092 19.6619 52.9054 22.9052 51.6536C24.5283 51.027 25.9245 50.5145 26.0078 50.5145C26.0911 50.5145 27.4618 51.0181 29.0538 51.6337C30.6458 52.2492 32.1327 52.7798 32.3579 52.8128C33.2318 52.9406 33.3692 52.8143 36.25 49.2343L37.8071 47.2993L40.8749 46.818C42.5622 46.5534 44.1028 46.2883 44.2985 46.2291C44.7162 46.1026 45.1915 45.6921 45.3359 45.3331C45.392 45.1934 45.6732 43.6299 45.9609 41.8586L46.4839 38.6381L49.0182 36.5756C50.4121 35.4413 51.6471 34.3842 51.7627 34.2264C52.1842 33.651 52.0812 33.1795 50.8268 29.9414C50.1991 28.321 49.6855 26.9293 49.6856 26.8489C49.6857 26.7684 50.1942 25.3783 50.8156 23.7597C51.4371 22.141 51.9679 20.6507 51.995 20.4481C52.1064 19.6183 51.9471 19.4475 48.4064 16.6013L46.4719 15.046L45.9877 11.9787C45.7214 10.2916 45.4547 8.74255 45.3949 8.53631C45.2625 8.07893 44.7773 7.60092 44.2985 7.45625C44.1028 7.39712 42.5622 7.13216 40.8749 6.86751L37.8071 6.38625L36.25 4.45126C33.3692 0.871248 33.2318 0.744964 32.3579 0.872771C32.1327 0.90579 30.6458 1.43632 29.0538 2.05189C27.4618 2.66745 26.0911 3.17106 26.0078 3.17106C25.9245 3.17106 24.5283 2.66176 22.9052 2.03929C21.2821 1.41681 19.7712 0.890347 19.5475 0.869419C19.3239 0.848389 19.0037 0.895122 18.836 0.973249ZM12.241 18.9754C12.7742 19.3738 12.9405 19.6983 12.9405 20.3407C12.9405 20.983 12.7742 21.3076 12.241 21.7059C12.0065 21.8813 11.7794 21.921 10.8496 21.9497L9.73865 21.9842V23.5917V25.1993L10.8496 25.2337C12.0502 25.2708 12.2765 25.3591 12.7309 25.9675C13.0248 26.3609 13.0248 27.3246 12.7309 27.718C12.2769 28.326 12.0497 28.4148 10.8543 28.4517L9.7479 28.4861L9.71782 31.213C9.68956 33.7835 9.67584 33.9561 9.47824 34.2203C9.07978 34.7534 8.75502 34.9196 8.11231 34.9196C7.4695 34.9196 7.14463 34.7532 6.74638 34.2201C6.53943 33.943 6.53679 33.8519 6.53679 26.8528V19.766L6.8092 19.4091C7.31062 18.752 7.49969 18.7105 9.8586 18.7398C11.8003 18.7639 11.982 18.7819 12.241 18.9754ZM22.6634 18.9861C26.0928 20.1989 27.0916 24.4726 24.5352 26.9952C24.1623 27.3631 23.666 27.7241 23.2826 27.9061C22.9335 28.0718 22.6478 28.2342 22.6478 28.2671C22.6478 28.3001 23.3794 29.3061 24.2737 30.5028C25.9405 32.7334 26.0873 33.0117 25.9586 33.6975C25.766 34.7232 24.3942 35.285 23.5046 34.7024C23.352 34.6024 22.3903 33.4063 21.3675 32.0445L19.5081 29.5682L19.477 31.7542C19.4482 33.7767 19.4302 33.9612 19.2363 34.2204C18.8377 34.7534 18.5131 34.9196 17.8704 34.9196C17.2276 34.9196 16.9027 34.7532 16.5044 34.2201C16.2975 33.943 16.2949 33.8519 16.2949 26.8528V19.766L16.5673 19.4091C17.0801 18.7371 17.2364 18.705 19.8017 18.7462C21.7681 18.7777 22.1692 18.8114 22.6634 18.9861ZM34.8103 18.8819C35.0036 18.9735 35.285 19.21 35.4355 19.4073C35.7936 19.8765 35.8256 20.7797 35.4997 21.2159C35.0453 21.8244 34.819 21.9127 33.6185 21.9497L32.5075 21.9842V23.6007V25.2172H33.4832C34.6145 25.2172 35.0159 25.3596 35.4355 25.9094C35.7936 26.3786 35.8256 27.2818 35.4997 27.718C35.0453 28.3265 34.819 28.4148 33.6185 28.4518L32.5075 28.4863V30.1028V31.7194H33.4832C34.6145 31.7194 35.0159 31.8617 35.4355 32.4115C35.7936 32.8807 35.8256 33.7839 35.4997 34.2201C34.9826 34.9125 34.9523 34.9196 32.5075 34.9196C30.0627 34.9196 30.0324 34.9125 29.5152 34.2201C29.3082 33.943 29.3056 33.8519 29.3056 26.8528V19.766L29.578 19.4091C30.0632 18.7734 30.2877 18.72 32.4921 18.7175C34.1082 18.7156 34.5215 18.7449 34.8103 18.8819ZM44.5683 18.8819C44.7617 18.9735 45.043 19.21 45.1936 19.4073C45.5517 19.8765 45.5837 20.7797 45.2578 21.2159C44.8033 21.8244 44.5771 21.9127 43.3765 21.9497L42.2655 21.9842V23.6007V25.2172H43.2412C44.3726 25.2172 44.774 25.3596 45.1936 25.9094C45.5517 26.3786 45.5837 27.2818 45.2578 27.718C44.8033 28.3265 44.5771 28.4148 43.3765 28.4518L42.2655 28.4863V30.1028V31.7194H43.2412C44.3726 31.7194 44.774 31.8617 45.1936 32.4115C45.5517 32.8807 45.5837 33.7839 45.2578 34.2201C44.7406 34.9125 44.7103 34.9196 42.2655 34.9196C39.8207 34.9196 39.7905 34.9125 39.2733 34.2201C39.0671 33.9443 39.0632 33.8257 39.0331 27.0639C39.0129 22.54 39.0385 20.0645 39.1076 19.8266C39.2226 19.4309 39.5071 19.1199 39.9785 18.875C40.4354 18.6374 44.0646 18.6429 44.5683 18.8819ZM19.4967 23.5917V25.2352L20.6077 25.2008C21.5375 25.172 21.7646 25.1323 21.9991 24.957C22.4422 24.6259 22.6662 24.26 22.7204 23.778C22.787 23.1883 22.5653 22.6784 22.0824 22.3098C21.7231 22.0356 21.6287 22.0148 20.5978 21.9827L19.4967 21.9482V23.5917Z" fill="#976EC1"/>
</svg>
