<svg width="43" height="46" viewBox="0 0 43 46" fill="none" xmlns="http://www.w3.org/2000/svg">
<path fill-rule="evenodd" clip-rule="evenodd" d="M19.6129 0.0440271C18.7966 0.340901 18.3959 0.695333 9.56613 8.92956C-0.409619 18.2327 0.0699262 17.7333 0.00496534 18.8868C-0.0578451 20.0035 0.47797 20.9541 1.45767 21.4637C2.07923 21.7871 3.13868 21.8038 3.76239 21.5001C4.04114 21.3643 6.76582 18.8868 12.1845 13.842L20.1944 6.38468L20.4637 6.64091C20.6118 6.78192 24.1965 10.1377 28.4298 14.0983C33.6696 19.0005 36.2581 21.3634 36.5387 21.5C37.1285 21.7873 38.2131 21.7841 38.811 21.4931C39.3528 21.2295 39.9839 20.5286 40.1682 19.9858C40.4424 19.1777 40.3113 18.1613 39.8486 17.509C39.7401 17.3562 35.6367 13.4694 30.7298 8.87164C24.4522 2.98956 21.6754 0.444416 21.3602 0.283703C20.9221 0.0603052 19.939 -0.0745966 19.6129 0.0440271ZM30.3389 2.96591C30.152 3.06601 29.9203 3.27744 29.824 3.436C29.4506 4.05061 29.3113 3.88594 33.6374 7.94523C36.2423 10.3896 37.6429 11.6453 37.6739 11.5642C37.7001 11.4958 37.7093 9.72413 37.6945 7.62704C37.6689 4.00241 37.6587 3.79897 37.4884 3.50876C37.3898 3.34076 37.1954 3.11817 37.0563 3.01412C36.8122 2.83137 36.698 2.82408 33.7411 2.80448C30.8183 2.78505 30.6632 2.79243 30.3389 2.96591ZM13.2064 16.5866C9.36256 20.1695 6.00484 23.2463 5.74482 23.4241L5.27208 23.7474L5.29681 31.6777C5.321 39.4229 5.32575 39.6151 5.50074 39.9134C5.59931 40.0814 5.79374 40.3039 5.93289 40.408L6.18584 40.5973L17.7602 40.6201L29.3347 40.6427L28.7523 40.1283C26.7585 38.3672 26.2452 37.6752 26.0484 36.4831L25.9488 35.8798L25.0285 35.1133L24.1083 34.3467L23.7021 34.5214C20.2706 35.9978 16.1059 35.1151 13.471 32.3528C12.289 31.1138 11.5319 29.772 11.0818 28.1189C10.9081 27.4807 10.8799 27.1567 10.8799 25.8031C10.8799 24.4495 10.9081 24.1254 11.0818 23.4873C11.5632 21.7194 12.3203 20.4262 13.6487 19.103C15.4846 17.2743 17.5909 16.4069 20.1953 16.4069C22.7998 16.4069 24.9061 17.2743 26.742 19.103C28.07 20.4258 28.8247 21.7089 29.3019 23.4553C29.5689 24.4327 29.6335 26.4061 29.4304 27.3794L29.2807 28.0964L29.6446 28.4241C29.8447 28.6045 30.2848 28.9788 30.6226 29.2563C31.1404 29.6815 31.2773 29.7526 31.4953 29.7093C32.2567 29.5581 33.6688 30.0734 34.4668 30.7936C34.7107 31.0137 34.9359 31.1679 34.9673 31.1365C34.9987 31.105 35.0243 29.4336 35.0243 27.4222V23.7651L34.5987 23.4597C34.2799 23.2311 22.9887 12.7441 20.5537 10.4151L20.1953 10.0723L13.2064 16.5866ZM18.8651 19.1988C16.2721 19.7821 14.3369 21.6369 13.6957 24.1532C13.458 25.0864 13.4574 26.5178 13.6945 27.4483C14.2908 29.7883 16.0745 31.6225 18.4073 32.2942C19.4157 32.5845 20.975 32.5845 21.9833 32.2942C24.3162 31.6225 26.0999 29.7883 26.6962 27.4483C26.9327 26.5199 26.9327 25.0862 26.6962 24.1579C26.1047 21.8366 24.3141 19.9827 22.0307 19.3275C21.1374 19.0712 19.6932 19.0125 18.8651 19.1988ZM27.8815 31.179C27.7229 31.4127 27.3444 31.8796 27.0404 32.2166C26.7365 32.5537 26.5235 32.8606 26.5672 32.8988C26.686 33.0027 28.8828 34.8264 28.9107 34.8443C28.9238 34.8527 28.8737 34.977 28.7992 35.1204C28.636 35.4344 28.6222 36.048 28.7709 36.3756C28.9286 36.7229 38.6432 45.4629 39.1908 45.7499C39.8067 46.073 40.8636 46.0847 41.499 45.7755C42.0408 45.5119 42.6719 44.8109 42.8562 44.2681C43.1498 43.4032 42.9833 42.3406 42.4527 41.6946C41.9645 41.1 32.5013 32.623 32.1713 32.4846C31.7819 32.3213 31.3176 32.3824 30.966 32.6433C30.7422 32.8095 30.691 32.8174 30.5599 32.7061C29.6514 31.9345 28.2197 30.75 28.1977 30.7518C28.1824 30.7531 28.0401 30.9453 27.8815 31.179Z" fill="#7EC16E"/>
</svg>
