<svg width="45" height="45" viewBox="0 0 45 45" fill="none" xmlns="http://www.w3.org/2000/svg">
<path fill-rule="evenodd" clip-rule="evenodd" d="M21.877 0.103393C21.4486 0.303475 0.386388 18.1782 0.179712 18.5171C-0.0599206 18.9102 -0.0599207 19.6283 0.179812 20.079C0.524039 20.726 1.44569 21.0501 2.16439 20.7769C2.31561 20.7194 2.97412 20.219 3.62781 19.665L4.81632 18.6578V29.6972C4.81632 41.7075 4.79633 41.2568 5.37979 42.4083C5.73868 43.1168 6.61131 44.0065 7.31523 44.3817C8.5358 45.0324 7.7328 44.9997 22.4999 44.9997C37.267 44.9997 36.464 45.0324 37.6846 44.3817C38.3885 44.0065 39.2611 43.1168 39.62 42.4083C40.2035 41.2568 40.1835 41.7075 40.1835 29.6972V18.6578L41.372 19.665C42.0257 20.219 42.6842 20.7194 42.8354 20.7769C43.5541 21.0501 44.4757 20.726 44.82 20.079C45.0613 19.6254 45.0598 18.9103 44.8167 18.5115C44.6621 18.258 24.7437 1.29504 23.4753 0.336839C23.0375 0.00611586 22.3123 -0.0998038 21.877 0.103393ZM17.2207 17.8194C19.7939 18.4898 21.3932 21.1266 20.7424 23.6255C20.0681 26.2147 17.4391 27.8158 14.9334 27.163C12.3489 26.4897 10.745 23.8551 11.3966 21.353C12.0728 18.7562 14.6995 17.1626 17.2207 17.8194ZM29.8107 19.542C30.4422 20.0136 30.6953 20.8065 30.4226 21.4587C30.3479 21.6375 27.3066 25.1359 23.6644 29.233C18.6971 34.8208 16.9527 36.7199 16.6844 36.8319C15.7183 37.2357 14.6083 36.5814 14.4908 35.5391C14.462 35.2838 14.4982 34.964 14.5772 34.775C14.7775 34.2961 27.8879 19.5834 28.2679 19.411C28.6789 19.2247 29.4765 19.2925 29.8107 19.542ZM15.4114 21.0228C14.3977 21.4643 14.1583 22.8121 14.9524 23.6065C16.0813 24.7356 17.9311 23.7243 17.6341 22.1404C17.4564 21.1932 16.3255 20.6245 15.4114 21.0228ZM30.0815 29.0747C31.8145 29.5262 33.1493 30.8656 33.6032 32.6082C34.2539 35.1072 32.6547 37.7439 30.0815 38.4143C27.5673 39.0693 24.9335 37.4771 24.2613 34.8959C23.3658 31.4573 26.6435 28.179 30.0815 29.0747ZM28.2722 32.278C27.2585 32.7196 27.019 34.0674 27.8132 34.8618C28.942 35.9908 30.7919 34.9796 30.4949 33.3957C30.3171 32.4484 29.1863 31.8797 28.2722 32.278Z" fill="#6EADC1"/>
</svg>
