<svg width="51" height="51" viewBox="0 0 51 51" fill="none" xmlns="http://www.w3.org/2000/svg">
<path fill-rule="evenodd" clip-rule="evenodd" d="M29.1848 0.0238524C26.0884 0.584259 23.6865 2.10619 22.079 4.52634C19.4848 8.43214 19.9435 13.7565 23.1628 17.1071L23.7868 17.7564L23.8325 20.2983C23.8743 22.6233 23.8999 22.9221 24.1327 23.8008C24.4701 25.0739 24.8452 25.8231 25.4498 26.432C26.0089 26.995 26.4693 27.1786 27.3042 27.1719C28.6939 27.1605 29.6382 26.3103 30.2339 24.534C30.5154 23.6946 30.6804 22.2924 30.5547 21.8068C30.4713 21.485 30.0644 21.1954 29.6953 21.1954C29.5873 21.1954 29.3669 21.3065 29.2055 21.4424C28.9473 21.6599 28.904 21.7763 28.8431 22.4143C28.7054 23.8609 28.2597 25.0043 27.7215 25.2927C26.8204 25.7753 26.1426 24.9312 25.7398 22.8249C25.542 21.7907 25.5186 18.8262 25.6942 17.0586C26.0869 13.1055 27.2525 10.3752 28.9593 9.41111C29.6346 9.02963 29.8265 8.75281 29.739 8.28641C29.6007 7.54837 28.7288 7.43473 27.772 8.03003L27.266 8.34482L27.3266 8.04209C27.589 6.72849 29.4794 6.40124 30.253 7.53541C30.772 8.29638 30.6408 9.02185 29.835 9.84801C29.2715 10.4258 29.1875 10.6596 29.4002 11.0594C29.9282 12.0515 31.3015 11.3876 32.0339 9.78651C32.5137 8.73736 32.3204 7.28491 31.5756 6.34373C30.0171 4.37413 26.8693 4.74713 25.8173 7.02594C25.4765 7.76418 25.4126 8.71543 25.6524 9.47859L25.8267 10.0332L25.4297 10.9043C24.8105 12.2629 24.5338 13.1393 24.2598 14.6095C24.1736 15.0716 24.0869 15.466 24.0671 15.4859C24.0107 15.5422 23.3674 14.5325 23.0239 13.8486C22.8531 13.5085 22.5954 12.8356 22.4512 12.3534C22.0985 11.1739 22.0777 9.30824 22.4037 8.08734C23.4132 4.30475 26.6754 1.75491 30.5217 1.74175C33.0343 1.73318 35.0471 2.60011 36.7776 4.43613C40.1657 8.03102 39.6918 13.802 35.7578 16.8544C34.7069 17.6698 33.6086 18.1795 32.3089 18.4552C31.4236 18.6429 29.7106 18.6381 28.8861 18.4455C27.6262 18.1513 27.3383 18.1501 27.0511 18.4376C26.8785 18.6105 26.7947 18.8025 26.7947 19.0255C26.7947 19.5439 27.0264 19.7742 27.7702 19.9956C31.7533 21.1808 36.2069 19.6888 38.7683 16.311C39.4655 15.3916 40.1986 13.848 40.4962 12.6727C41.2136 9.84063 40.7175 6.96065 39.0869 4.48966C38.0789 2.96225 36.1492 1.37712 34.4728 0.699291C33.2413 0.201484 32.4085 0.0415956 30.8779 0.00929896C30.0836 -0.00744745 29.3218 -0.000968182 29.1848 0.0238524ZM8.76122 7.03302L8.47012 7.32439V8.72759V10.1308H5.3905H2.31078L2.00445 10.3889L1.69801 10.647V29.9762V49.3054H1.09599C0.589473 49.3054 0.455026 49.3443 0.249473 49.5501C-0.0831576 49.883 -0.0831576 50.4224 0.249473 50.7553L0.493866 51H25.5H50.5061L50.7505 50.7553C51.0832 50.4224 51.0832 49.883 50.7505 49.5501L50.5061 49.3054H43.9784H37.4508V47.5629V45.8204L37.7247 45.756C38.7015 45.5261 39.9504 44.4565 40.4085 43.4574C40.8103 42.5814 40.8778 41.8932 40.7487 39.9927C40.4476 35.5617 39.6298 32.7247 38.2619 31.3652C37.1943 30.3046 36.0102 30.2751 34.9098 31.2818C33.6058 32.4747 32.7224 35.3315 32.3783 39.4673C32.1776 41.8794 32.2617 42.6791 32.8246 43.7144C33.3087 44.6048 34.4769 45.5357 35.3843 45.7544L35.6582 45.8204V47.5642V49.3081L32.297 49.2818L28.9359 49.2556L28.8861 39.2537L28.8363 29.2519L28.6011 29.0613C28.2599 28.7848 27.7734 28.8155 27.4555 29.1336L27.193 29.3964V39.3513V49.3062L15.3169 49.2809L3.44083 49.2556L3.41564 30.5903L3.39054 11.9251H6.43321C9.80174 11.9251 9.94834 11.901 10.1524 11.3151C10.213 11.1408 10.2627 10.4442 10.2627 9.76707V8.53591H14.0503C17.0911 8.53591 17.9045 8.5081 18.1754 8.39486C18.7944 8.13589 18.9143 7.51099 18.4368 7.03302L18.1457 6.74165H13.599H9.05233L8.76122 7.03302ZM12.4537 10.2015C11.7268 10.469 11.7121 11.5179 12.4309 11.8159C12.6341 11.9001 13.5136 11.9258 15.4819 11.9047L18.2475 11.8752L18.4877 11.5955C18.8199 11.2088 18.8017 10.7874 18.4368 10.4222L18.1457 10.1308L15.3744 10.1387C13.8502 10.143 12.5359 10.1713 12.4537 10.2015ZM5.61757 13.6188C5.04423 13.8504 4.92034 14.5676 5.37517 15.0228C5.62733 15.2752 5.74056 15.3142 6.22168 15.3142H6.77709V17.8062V20.2983H6.37555C5.26203 20.2983 4.68083 21.1633 5.34658 21.8298C5.57056 22.0539 5.69495 22.0925 6.1931 22.0925H6.77709V24.6344V27.1762H6.1931C5.69495 27.1762 5.57056 27.2148 5.34658 27.439C5.0037 27.7822 4.99643 28.2486 5.32826 28.6071C5.54049 28.8362 5.65143 28.8708 6.17477 28.8708H6.77709V31.4127V33.9546H6.22168C5.74056 33.9546 5.62733 33.9935 5.37517 34.2459C5.01296 34.6085 4.99214 35.0327 5.318 35.4119C5.51439 35.6403 5.65043 35.6912 6.16452 35.7284L6.77709 35.7727V38.2408V40.7089L6.16452 40.7533C5.65043 40.7905 5.51439 40.8414 5.318 41.0698C4.99214 41.449 5.01296 41.8732 5.37517 42.2357C5.62733 42.4881 5.74056 42.5271 6.22168 42.5271H6.77709V44.7267C6.77709 46.9538 6.81355 47.2116 7.16679 47.4831C7.4306 47.6858 7.93552 47.6328 8.24047 47.3704L8.51992 47.13L8.55159 44.8286L8.58316 42.5271H10.2144H11.8457L11.8759 44.8286L11.906 47.1301L12.1854 47.3704C12.5425 47.6776 12.9625 47.6776 13.3196 47.3704L13.599 47.1301L13.6291 44.8286L13.6593 42.5271H15.2905H16.9218L16.9534 44.8286L16.9851 47.13L17.2645 47.3704C17.5695 47.6328 18.0744 47.6858 18.3382 47.4831C18.6914 47.2116 18.7279 46.9538 18.7279 44.7267V42.5271H20.4209H22.1139V44.8243V47.1215L22.3584 47.3661C22.6958 47.7038 23.1966 47.6963 23.5445 47.3481L23.807 47.0852V44.8062V42.5271H24.3115C25.1174 42.5271 25.4913 42.2417 25.4968 41.6224C25.5016 41.0836 25.1531 40.8063 24.4031 40.7521L23.807 40.7089V38.2408V35.7727L24.4031 35.7296C25.1531 35.6753 25.5016 35.398 25.4968 34.8593C25.4913 34.2399 25.1174 33.9546 24.3115 33.9546H23.807V31.4127C23.807 29.0182 23.8175 28.8708 23.9888 28.8708C24.2937 28.8708 24.6435 28.4097 24.6435 28.0079C24.6435 27.7396 24.5741 27.589 24.3691 27.4125C24.2182 27.2826 24.03 27.1762 23.9508 27.1762C23.8717 27.1762 23.807 27.1115 23.807 27.0323C23.807 26.9531 23.7007 26.7647 23.5709 26.6136C23.3946 26.4084 23.2441 26.3389 22.9761 26.3389C22.5746 26.3389 22.1139 26.6891 22.1139 26.9942C22.1139 27.1633 21.9936 27.1762 20.4209 27.1762H18.7279V24.6344V22.0925H20.1584C21.5712 22.0925 21.5921 22.0892 21.8514 21.8298C22.1323 21.5486 22.1938 21.1323 22.0064 20.7817C21.8112 20.4168 21.3135 20.2983 19.9759 20.2983H18.7279V17.8194V15.3404L19.134 15.2859C19.8222 15.1936 20.1571 14.6838 19.9147 14.098C19.6689 13.5042 19.8648 13.5194 12.5334 13.5262C8.84707 13.5297 5.73499 13.5714 5.61757 13.6188ZM11.8562 17.8062V20.2983H10.2129H8.56971V17.8062V15.3142H10.2129H11.8562V17.8062ZM16.9353 17.8062V20.2983H15.292H13.6488V17.8062V15.3142H15.292H16.9353V17.8062ZM40.7397 16.0095C40.4736 16.2758 40.3923 16.6564 40.5301 16.9896C40.593 17.1414 42.5923 19.2148 44.9731 21.5974L49.302 25.9293V27.4001V28.8708H47.7738C45.8242 28.8708 45.9159 28.9506 45.9159 27.2568C45.9159 26.0397 45.9092 26.0004 45.6534 25.7444C45.4294 25.5202 45.3051 25.4817 44.8069 25.4817H44.2229V24.9767C44.2229 24.4509 44.102 24.1214 43.8332 23.9149C43.7287 23.8346 43.2494 23.7924 42.4208 23.7903C40.7958 23.7862 40.8368 23.8259 40.8368 22.2542C40.8368 20.428 40.6985 20.2999 38.7264 20.2989C38.1408 20.2986 37.6361 20.2569 37.605 20.2063C37.4912 20.022 36.9709 19.9848 36.6721 20.1394C36.0467 20.4631 36.0826 21.2629 36.7478 21.8231C37.0484 22.0763 37.1273 22.0925 38.056 22.0925H39.0442V22.9946C39.0442 24.0644 39.1209 24.2456 39.8752 24.9597L40.4265 25.4817H41.4165H42.4064L42.4495 26.0784C42.5108 26.9263 42.7597 27.1762 43.5431 27.1762H44.1233V28.0171C44.1233 28.4795 44.1706 28.9842 44.2285 29.1385C44.3892 29.5673 45.313 30.4548 45.7151 30.5666C45.9077 30.6201 46.9743 30.6642 48.0852 30.6645C50.2327 30.6651 50.6692 30.5899 50.8875 30.1816C50.9562 30.053 50.995 29.0887 50.995 27.509V25.0376L46.3867 20.4252L41.7785 15.8126H41.3574C41.071 15.8126 40.8736 15.8755 40.7397 16.0095ZM11.8562 24.6344V27.1762H10.2129H8.56971V24.6344V22.0925H10.2129H11.8562V24.6344ZM16.9353 24.6344V27.1762H15.292H13.6488V24.6344V22.0925H15.292H16.9353V24.6344ZM11.8562 31.4127V33.9546H10.2129H8.56971V31.4127V28.8708H10.2129H11.8562V31.4127ZM16.9353 31.4127V33.9546H15.292H13.6488V31.4127V28.8708H15.292H16.9353V31.4127ZM22.0907 31.4376L22.1173 33.9546H20.4226H18.7279V31.4103V28.866L20.396 28.8934L22.0641 28.9207L22.0907 31.4376ZM37.1778 32.7449C38.0796 33.744 38.8776 37.1359 39.0151 40.5546C39.0658 41.8138 39.0492 42.0866 38.8976 42.484C38.4186 43.7392 37.0827 44.3923 35.7513 44.0221C35.2377 43.8794 34.5718 43.2641 34.3012 42.6822C34.1041 42.2586 34.0665 42.0181 34.0657 41.1738C34.063 38.4546 34.7224 34.9097 35.5261 33.3223C36.0614 32.265 36.5807 32.0834 37.1778 32.7449ZM11.8562 38.2408V40.7329H10.2129H8.56971V38.2408V35.7488H10.2129H11.8562V38.2408ZM16.9353 38.2408V40.7329H15.292H13.6488V38.2408V35.7488H15.292H16.9353V38.2408ZM22.1139 38.2408V40.7329H20.4209H18.7279V38.2408V35.7488H20.4209H22.1139V38.2408Z" fill="white"/>
</svg>
