<svg width="37" height="34" viewBox="0 0 37 34" fill="none" xmlns="http://www.w3.org/2000/svg">
<path fill-rule="evenodd" clip-rule="evenodd" d="M14.3809 7.11366L2.99902 14.2272L1.49951 14.2274L0 14.2275V15.3219V16.4163H1.08398H2.16797V21.9249V27.4335H1.08398H0V30.7167V34H18.5H37V24.1137V14.2275H35.916H34.832V8.20815V2.18884H35.916H37V1.09442V0H31.3813H25.7627L14.3809 7.11366ZM32.6641 8.20815V14.2275H29.918H27.1719V8.20815V2.18884H29.918H32.6641V8.20815ZM25.0039 8.64592V14.2275H23.9199H22.8359V16.4528V18.6781H21.21H19.584V12.5633V6.44847L22.2759 4.76102C23.7565 3.83288 24.9759 3.07146 24.9858 3.06897C24.9957 3.06642 25.0039 5.57607 25.0039 8.64592ZM17.416 13.2425V18.6781H16.332H15.248V20.867V23.0558H13.6221H11.9961V17.1234V11.191L14.688 9.50351C16.1686 8.57537 17.388 7.81394 17.3979 7.81146C17.4079 7.80891 17.416 10.2529 17.416 13.2425ZM9.81056 17.8208L9.79199 23.0193L8.68994 23.0395L7.58789 23.0596V25.2465V27.4335H5.96148H4.33507L4.35357 21.6954L4.37207 15.9572L7.04091 14.2898C8.50877 13.3727 9.73664 12.6223 9.76945 12.6223C9.80225 12.6223 9.82075 14.9617 9.81056 17.8208ZM34.8143 24.132L34.8327 31.8112H18.5004H2.16797V30.7167V29.6223H5.99805H9.82812V27.4335V25.2446H13.6221H17.416V23.0558V20.867H21.21H25.0039V18.6903C25.0039 17.4931 25.0258 16.4915 25.0526 16.4645C25.0794 16.4374 27.2826 16.4238 29.9486 16.434L34.7959 16.4528L34.8143 24.132Z" fill="#695697"/>
</svg>
