<svg width="34" height="33" viewBox="0 0 34 33" fill="none" xmlns="http://www.w3.org/2000/svg">
<path fill-rule="evenodd" clip-rule="evenodd" d="M17.279 0.0390314C17.279 0.0750244 17.2057 0.603372 17.116 1.21306C17.0263 1.82274 16.9529 2.37296 16.9529 2.43579C16.9529 2.52828 17.0487 2.56499 17.4584 2.62962C19.4604 2.9451 21.8614 3.87963 23.6023 5.02089C24.6734 5.72307 25.3517 6.26652 26.2382 7.13286C28.536 9.37829 30.0453 12.0947 30.7443 15.2426C30.8672 15.7964 30.9052 15.8861 31.013 15.8772C31.3363 15.8504 33.3613 15.5094 33.4017 15.475C33.4268 15.4535 33.3772 15.115 33.2913 14.7225C32.06 9.09209 28.287 4.31084 23.0732 1.77417C21.4199 0.969752 19.7533 0.415151 18.1914 0.14959C17.851 0.0917308 17.5065 0.0284529 17.4258 0.00890834C17.3451 -0.0105717 17.279 0.00297402 17.279 0.0390314ZM5.17109 3.21254C4.54347 3.34161 4.25585 3.56266 2.58019 5.20389C1.68809 6.07771 0.859331 6.94309 0.738476 7.12699C-0.432698 8.90942 -0.0821999 11.8638 1.77216 15.84C3.84789 20.2909 7.58218 24.7824 11.8657 27.9802C14.3881 29.8633 17.3949 31.4853 19.8879 32.3077C21.9479 32.9873 23.8852 33.1795 25.1187 32.8266C26.0419 32.5626 26.2471 32.4086 28.0858 30.5988C29.6336 29.0754 29.8141 28.8752 30.0056 28.4695C30.1856 28.0878 30.2168 27.9492 30.2168 27.5305C30.2168 27.1123 30.1855 26.9726 30.0061 26.5914C29.8112 26.1772 29.6183 25.969 27.4342 23.8145C25.5097 21.9162 25.0066 21.454 24.7142 21.3159C24.2201 21.0824 23.7523 21.0037 23.3283 21.0828C22.6251 21.2138 22.3627 21.4072 20.7281 22.9989C19.8808 23.8238 19.1377 24.4988 19.0766 24.4988C18.9184 24.4988 17.3813 23.7154 16.7883 23.3326C14.4843 21.8451 11.8662 19.3237 10.1912 16.9792C9.61512 16.1728 9.34537 15.7254 8.9603 14.9377C8.72218 14.4505 8.66453 14.2723 8.69981 14.1323C8.72903 14.0165 9.27623 13.4239 10.2379 12.4668C11.572 11.139 11.752 10.9346 11.9317 10.5424C12.2736 9.79673 12.201 9.08577 11.7084 8.35494C11.5836 8.16969 10.4746 7.02585 9.24408 5.81299C7.23501 3.8328 6.9635 3.58814 6.5828 3.41456C6.11673 3.20209 5.58922 3.12655 5.17109 3.21254ZM16.9331 6.75319C16.8428 7.2202 16.6048 9.08216 16.6319 9.10899C16.6491 9.12602 16.8972 9.18768 17.1831 9.24599C20.5264 9.92773 23.1972 12.5019 23.9986 15.8148C24.0661 16.0941 24.1301 16.3295 24.1406 16.338C24.1709 16.3622 26.6051 15.9419 26.6413 15.9062C26.6817 15.8662 26.5698 15.3194 26.3999 14.7265C25.2229 10.6196 21.7244 7.46802 17.4647 6.67734L16.9657 6.58471L16.9331 6.75319Z" fill="#FF5F5F"/>
</svg>
