<svg width="33" height="36" viewBox="0 0 33 36" fill="none" xmlns="http://www.w3.org/2000/svg">
<path fill-rule="evenodd" clip-rule="evenodd" d="M4.02507 0.104368C3.82265 0.159131 3.53252 0.267602 3.38037 0.345524C2.94868 0.566688 2.4006 1.16486 2.15709 1.68061C1.941 2.13842 1.9389 2.15405 1.91625 3.45359L1.89332 4.76467L1.34826 4.79634C0.697388 4.83414 0.397861 4.99005 0.160244 5.41457C-0.151834 5.97192 0.00508165 6.67772 0.516494 7.01756C0.735249 7.16292 0.899807 7.2055 1.3416 7.23119L1.89332 7.26322L1.91625 8.5743C1.93904 9.88306 1.93953 9.88623 2.1641 10.3623C2.41133 10.8862 2.93466 11.4541 3.38107 11.6826C4.08965 12.0456 3.62851 12.0323 15.4763 12.0323C22.6364 12.0323 26.6272 12.0073 26.8727 11.9608C27.9727 11.7527 28.8999 10.8218 29.1073 9.71743C29.1464 9.50887 29.1784 8.8674 29.1784 8.29204V7.24577H29.8796H30.5807V10.8347V14.4236L23.294 14.4421C16.0582 14.4606 16.0059 14.4617 15.8136 14.6059C15.7071 14.6857 15.555 14.8384 15.4755 14.9453C15.3368 15.1316 15.3301 15.241 15.3108 17.6306L15.2907 20.1217L15.0304 20.1609C13.8208 20.3431 13.1176 20.8162 12.6743 21.7461L12.4562 22.2036L12.4371 27.9344C12.4158 34.3121 12.4004 34.078 12.8895 34.8177C13.1823 35.2606 13.5274 35.5475 14.0803 35.8076L14.4895 36H16.4878H18.486L18.8952 35.8076C19.4481 35.5475 19.7932 35.2606 20.0861 34.8177C20.5751 34.078 20.5598 34.3121 20.5385 27.9344L20.5193 22.2036L20.3012 21.7461C19.8576 20.8154 19.1558 20.3435 17.9426 20.1604L17.6797 20.1207V18.4707V16.8207L24.9595 16.8022L32.2393 16.7836L32.4968 16.5864C33.0315 16.1769 32.9996 16.5421 32.9996 10.8356V5.73238L32.827 5.42978C32.5014 4.85892 32.371 4.82055 30.6683 4.79472L29.1784 4.77213V3.73085C29.1784 3.15823 29.1464 2.51902 29.1073 2.31046C28.8999 1.20604 27.9727 0.275204 26.8727 0.0670615C26.6265 0.0205339 22.6457 -0.00276517 15.4441 0.000261589C6.1524 0.00413303 4.33448 0.020745 4.02507 0.104368ZM26.6143 2.56984C26.7113 2.66733 26.7244 3.07735 26.7244 6.01394C26.7244 8.95054 26.7113 9.36056 26.6143 9.45805C26.515 9.55765 25.4111 9.56863 15.5098 9.56863C5.36846 9.56863 4.50795 9.55962 4.41918 9.4522C4.27685 9.27996 4.27685 2.74793 4.41918 2.57568C4.50795 2.46827 5.36846 2.45926 15.5098 2.45926C25.4111 2.45926 26.515 2.47024 26.6143 2.56984ZM18.0303 22.6597C18.122 22.7178 18.1378 23.404 18.1543 28.0103C18.1671 31.6133 18.1496 33.3384 18.0992 33.433C18.0292 33.5644 17.9455 33.5715 16.4878 33.5715C15.03 33.5715 14.9464 33.5644 14.8763 33.433C14.8259 33.3384 14.8084 31.6133 14.8212 28.0103C14.8377 23.404 14.8536 22.7178 14.9453 22.6597C15.0031 22.6229 15.6972 22.5929 16.4878 22.5929C17.2783 22.5929 17.9724 22.6229 18.0303 22.6597Z" fill="#695697"/>
</svg>
