<svg width="34" height="40" viewBox="0 0 34 40" fill="none" xmlns="http://www.w3.org/2000/svg">
<path fill-rule="evenodd" clip-rule="evenodd" d="M14.9687 0.0882233C11.5233 0.438895 8.0629 1.96077 5.49652 4.25398C2.63079 6.81465 0.829515 10.0952 0.21083 13.8803C-0.001047 15.1768 0.0143742 17.221 0.244484 18.3437C1.33262 23.6513 5.82373 30.3363 13.2398 37.687C14.8807 39.3135 15.1803 39.576 15.6208 39.7734C16.0423 39.9623 16.2298 39.9994 16.7672 40C17.3277 40.0007 17.4816 39.9678 17.972 39.743C18.4842 39.5081 18.7343 39.2892 20.7852 37.2795C27.1864 31.007 31.0163 25.6056 32.6972 20.4792C33.5849 17.7719 33.6411 15.0206 32.8673 12.1492C30.7781 4.39623 23.1493 -0.744427 14.9687 0.0882233ZM18.1289 8.2501C19.6463 8.56308 20.9403 9.31753 22.0101 10.5131C22.5275 11.0911 23.2417 12.4743 23.446 13.2937C23.656 14.1363 23.636 15.6199 23.4034 16.461C22.7764 18.7268 21.0751 20.4855 18.8153 21.2042C17.8343 21.5162 16.4015 21.5979 15.3944 21.3991C13.2121 20.9685 11.4174 19.5776 10.4704 17.5828C10.0122 16.6175 9.86033 15.9293 9.86033 14.8187C9.86033 13.6241 10.0186 12.9769 10.5873 11.8469C11.5276 9.97805 13.21 8.69243 15.2903 8.253C15.9748 8.1084 17.4347 8.10691 18.1289 8.2501Z" fill="#976EC1"/>
</svg>
