<svg width="35" height="35" viewBox="0 0 35 35" fill="none" xmlns="http://www.w3.org/2000/svg">
<path fill-rule="evenodd" clip-rule="evenodd" d="M4.37419 0.094952C3.55707 0.27266 3.19295 0.524036 1.74691 1.90883C0.0982142 3.48768 0 3.61846 0 4.23435C0 4.62061 0.0287456 4.73176 0.18712 4.95838C0.557254 5.48808 1.12806 5.70006 1.74055 5.53528C1.98523 5.46941 2.19528 5.30442 2.85081 4.66309L3.65932 3.87209L3.67759 15.3224L3.69587 26.7727L3.88696 27.3883C4.43675 29.1598 5.82448 30.5468 7.59706 31.0962L8.21303 31.2872L19.634 31.3055L31.0551 31.3237L30.2637 32.1382C29.632 32.7883 29.4563 33.0122 29.3928 33.2479C29.1073 34.3076 30.0402 35.2338 31.1047 34.9473C31.3678 34.8765 31.6071 34.6693 32.8714 33.4183C34.2164 32.0873 34.3553 31.9273 34.6027 31.424C35.1198 30.3721 35.1169 29.3655 34.5939 28.3212C34.3583 27.8506 34.1812 27.6482 32.8701 26.3507C31.607 25.1005 31.3678 24.8934 31.1047 24.8226C30.5003 24.66 29.8885 24.8909 29.5327 25.4158C29.3931 25.6217 29.3616 25.7512 29.3616 26.1179C29.3616 26.6781 29.4263 26.7793 30.4495 27.8169L31.2093 28.5873L19.8822 28.5693L8.55524 28.5511L8.18716 28.4005C7.42109 28.0869 6.89101 27.5629 6.59253 26.8241L6.43354 26.4307L6.41541 15.0761L6.39734 3.72161L7.16827 4.48094C8.20571 5.50272 8.30844 5.56852 8.86323 5.56681C9.23302 5.56565 9.3543 5.53405 9.58187 5.3796C10.1159 5.0172 10.3292 4.44906 10.1662 3.82325C10.0954 3.55129 9.92018 3.35354 8.63635 2.09632C7.04528 0.538332 6.67918 0.279773 5.80093 0.0937892C5.2417 -0.0246825 4.9231 -0.0244089 4.37419 0.094952ZM12.803 0.0430351C12.4887 0.123065 12.1451 0.431215 11.969 0.791076C11.6546 1.43309 11.8402 2.08681 12.4564 2.50809L12.7302 2.69531L22.0383 2.72951L31.3464 2.76371L31.6077 2.92603C31.7514 3.01529 31.9516 3.21311 32.0525 3.36565L32.2362 3.64288L32.2704 12.9848L32.3046 22.3266L32.4919 22.6002C32.7471 22.973 33.0731 23.1778 33.49 23.2271C33.964 23.2832 34.4957 23.0309 34.7771 22.6164L34.9738 22.3266L34.9919 13.0413C35.012 2.72247 35.0326 3.22884 34.5533 2.2507C34.2069 1.54384 33.4567 0.794086 32.7495 0.448041C31.7812 -0.0257086 32.2784 -0.00491443 22.1068 0.00254135C17.0626 0.00630344 12.8759 0.0244983 12.803 0.0430351ZM25.6389 7.45483C24.3916 7.69964 23.3527 8.80166 23.1529 10.092C23.0607 10.6869 23.1134 10.9792 23.3787 11.3452C23.9055 12.0721 25.0305 12.0721 25.5573 11.3452C25.6716 11.1874 25.7831 10.9466 25.8049 10.8099C25.8845 10.3126 25.9119 10.2477 26.0732 10.1743C26.2966 10.0726 26.5462 10.1471 26.6536 10.3477C26.7322 10.4947 26.7204 10.5543 26.551 10.8655C26.2543 11.4102 25.3284 12.5144 24.244 13.6165C23.4178 14.4562 23.243 14.6701 23.1701 14.9305C22.9499 15.7163 23.4791 16.5315 24.2868 16.6506C24.4429 16.6737 25.4792 16.6828 26.5897 16.6709C28.5773 16.6496 28.6128 16.6467 28.87 16.4869C29.0137 16.3977 29.2139 16.1998 29.3148 16.0473C29.4673 15.8171 29.4985 15.6937 29.4985 15.3204C29.4985 14.5186 29.0318 14.0312 28.2001 13.9645C27.9544 13.9448 27.7532 13.9141 27.7532 13.8964C27.7532 13.8787 27.9032 13.6751 28.0867 13.4441C28.8548 12.4763 29.3404 11.5336 29.4309 10.835C29.4552 10.6469 29.4429 10.2969 29.4036 10.057C29.1146 8.29235 27.4022 7.10872 25.6389 7.45483ZM10.0412 12.2422C9.72464 12.339 9.29606 12.7901 9.20715 13.1201C9.15678 13.3071 9.13933 14.8504 9.15226 17.9682L9.17122 22.5419L9.35485 22.8191C9.63758 23.246 9.97213 23.421 10.5058 23.421C11.0395 23.421 11.374 23.2461 11.6568 22.8192L11.8405 22.5421L11.8747 19.0826C11.9088 15.6401 11.9097 15.6222 12.0615 15.4093C12.4667 14.8417 13.3359 14.8417 13.7411 15.4093C13.893 15.6222 13.8939 15.6401 13.9279 19.0826L13.9622 22.5421L14.1458 22.8192C14.4286 23.2461 14.7631 23.421 15.2968 23.421C15.8304 23.421 16.165 23.2461 16.4478 22.8192L16.6314 22.5421L16.6656 19.0826C16.6997 15.6401 16.7006 15.6222 16.8525 15.4093C17.2953 14.7889 18.2847 14.8664 18.6078 15.5467C18.7055 15.7525 18.7189 16.1763 18.7189 19.0629V22.3452L18.9094 22.7097C19.0637 23.0049 19.1695 23.1106 19.4648 23.2648C19.9308 23.508 20.2446 23.508 20.7106 23.2648C21.0059 23.1106 21.1117 23.0049 21.266 22.7097L21.4566 22.3452V19.0138C21.4566 16.9338 21.4289 15.5301 21.3829 15.2767C21.1245 13.8522 19.8473 12.5828 18.3893 12.3012C17.5166 12.1328 16.494 12.328 15.7072 12.8134L15.2999 13.0646L14.8444 12.79C14.1731 12.3854 13.7549 12.2771 12.8671 12.278C12.322 12.2786 12.0237 12.3119 11.7861 12.3986C11.4648 12.5159 11.4531 12.5154 11.2227 12.3731C10.9508 12.2051 10.3721 12.141 10.0412 12.2422Z" fill="#695697"/>
</svg>
