<svg width="22" height="22" viewBox="0 0 22 22" fill="none" xmlns="http://www.w3.org/2000/svg">
<path fill-rule="evenodd" clip-rule="evenodd" d="M9.88281 0.057215C7.45267 0.358235 5.26286 1.43052 3.52232 3.17173C1.74255 4.95214 0.658969 7.24506 0.426766 9.72203C0.356512 10.4711 0.39673 11.7195 0.51352 12.4145C0.70082 13.5295 1.01621 14.4947 1.52999 15.5256L1.84873 16.1651L0.924344 18.8925C0.41598 20.3926 0 21.6734 0 21.7388C0 21.8846 0.119109 22 0.269457 22C0.331246 22 1.66263 21.5926 3.22811 21.0946L6.07441 20.1892L6.57138 20.4234C7.64801 20.9306 8.84804 21.2683 10.0332 21.3974C10.583 21.4572 11.7991 21.4578 12.3535 21.3984C14.3588 21.1836 16.2646 20.4058 17.918 19.1274C18.3566 18.7882 19.3166 17.84 19.6443 17.4222C21.2143 15.4203 22 13.1838 22 10.7166C22 5.27212 17.9195 0.711093 12.4609 0.0541632C11.8501 -0.0193401 10.4879 -0.0177497 9.88281 0.057215ZM12.425 2.33642C15.1442 2.72504 17.554 4.45047 18.8194 6.91477C19.1774 7.61202 19.4576 8.45825 19.6226 9.34111C19.7121 9.81965 19.7455 11.0889 19.6832 11.6427C19.3306 14.7766 17.1947 17.5187 14.2441 18.6257C12.5226 19.2716 10.7736 19.3651 8.9882 18.9067C8.28923 18.7272 7.43682 18.3639 6.77114 17.9616C6.57353 17.8422 6.38511 17.7445 6.35237 17.7445C6.31963 17.7445 5.65576 17.9466 4.87717 18.1936C4.09853 18.4405 3.45331 18.6344 3.44339 18.6244C3.43342 18.6145 3.63103 17.9993 3.88257 17.2573C4.13407 16.5153 4.33954 15.8813 4.33916 15.8485C4.33877 15.8156 4.21102 15.5953 4.05526 15.3589C3.55966 14.6067 3.14089 13.6665 2.9257 12.8228C2.58895 11.5025 2.58049 9.98037 2.9028 8.70833C3.29257 7.17022 4.02127 5.89204 5.15402 4.75979C7.07837 2.83628 9.73259 1.95162 12.425 2.33642ZM7.60547 5.75617C6.87582 5.90657 6.50951 6.15601 6.18492 6.72353C5.86266 7.28701 5.7105 8.09198 5.79756 8.77281C5.90223 9.59115 6.23975 10.3406 6.9532 11.3388C8.48989 13.4889 9.9556 14.6792 11.9453 15.3928C13.7238 16.0307 14.6618 16.0484 15.6538 15.4628C16.0807 15.2107 16.5074 14.7712 16.6216 14.4659C16.7555 14.1078 16.856 13.5516 16.8342 13.2889C16.7998 12.8735 16.7423 12.8322 15.1465 12.0759C14.3382 11.6929 14.2701 11.6685 14.0017 11.6655C13.6635 11.6617 13.6573 11.666 13.2122 12.2211C13.0416 12.4338 12.8269 12.6904 12.7352 12.7913L12.5684 12.9747L12.2355 12.8281C11.2563 12.3968 10.1309 11.4464 9.31709 10.3632L9.01536 9.96163L9.18053 9.76661C9.76168 9.08049 9.90443 8.82207 9.87284 8.51293C9.84229 8.2141 8.96951 6.1487 8.78036 5.92763C8.5415 5.64845 8.29946 5.61316 7.60547 5.75617Z" fill="#7EC16E"/>
</svg>
