<svg width="36" height="33" viewBox="0 0 36 33" fill="none" xmlns="http://www.w3.org/2000/svg">
<path d="M16.1553 1.40436C16.8407 -0.232116 19.1593 -0.232119 19.8447 1.40436L23.11 9.20029C23.3983 9.88875 24.046 10.3594 24.7899 10.4209L33.2133 11.1172C34.9815 11.2634 35.698 13.4685 34.3534 14.6261L27.948 20.1406C27.3824 20.6276 27.135 21.389 27.3064 22.1155L29.2471 30.3418C29.6544 32.0686 27.7786 33.4314 26.2622 32.5104L19.0383 28.1226C18.4003 27.7351 17.5997 27.7351 16.9617 28.1226L9.73777 32.5104C8.22136 33.4314 6.34555 32.0686 6.75293 30.3418L8.69364 22.1155C8.86502 21.389 8.61761 20.6276 8.05195 20.1406L1.64659 14.6261C0.302018 13.4685 1.01851 11.2634 2.7867 11.1172L11.2101 10.4209C11.954 10.3594 12.6017 9.88875 12.89 9.20029L16.1553 1.40436Z" fill="white"/>
<path fill-rule="evenodd" clip-rule="evenodd" d="M21.2652 9.97293L18 2.177L14.7348 9.97293C14.1581 11.3499 12.8626 12.2911 11.3749 12.4141L2.95147 13.1104L9.35683 18.6249C10.4882 19.5989 10.983 21.1218 10.6402 22.5747L8.6995 30.801L15.9235 26.4132C17.1994 25.6382 18.8006 25.6382 20.0765 26.4132L27.3005 30.801L25.3598 22.5747C25.017 21.1218 25.5118 19.5989 26.6432 18.6249L33.0485 13.1104L24.6251 12.4141C23.1374 12.2911 21.8419 11.3499 21.2652 9.97293ZM19.8447 1.40436C19.1593 -0.232119 16.8407 -0.232116 16.1553 1.40436L12.89 9.20029C12.6017 9.88875 11.954 10.3594 11.2101 10.4209L2.7867 11.1172C1.01851 11.2634 0.302018 13.4685 1.64659 14.6261L8.05195 20.1406C8.61761 20.6276 8.86502 21.389 8.69364 22.1155L6.75293 30.3418C6.34555 32.0686 8.22136 33.4314 9.73777 32.5104L16.9617 28.1226C17.5997 27.7351 18.4003 27.7351 19.0383 28.1226L26.2622 32.5104C27.7786 33.4314 29.6544 32.0686 29.2471 30.3418L27.3064 22.1155C27.135 21.389 27.3824 20.6276 27.948 20.1406L34.3534 14.6261C35.698 13.4685 34.9815 11.2634 33.2133 11.1172L24.7899 10.4209C24.046 10.3594 23.3983 9.88875 23.11 9.20029L19.8447 1.40436Z" fill="#C8DBE7"/>
</svg>
