<svg width="68" height="81" viewBox="0 0 68 81" fill="none" xmlns="http://www.w3.org/2000/svg">
<path fill-rule="evenodd" clip-rule="evenodd" d="M30.2663 0.178652C23.2711 0.888763 16.2455 3.97055 11.0349 8.6143C5.21665 13.7997 1.5595 20.4428 0.303386 28.1075C-0.126789 30.733 -0.0954795 34.8726 0.371712 37.1461C2.58097 47.8938 11.6993 61.4311 26.7561 76.3162C30.0877 79.6098 30.696 80.1415 31.5902 80.5412C32.446 80.9236 32.8268 80.9987 33.9179 81C35.0558 81.0014 35.3682 80.9349 36.3639 80.4796C37.404 80.0039 37.9116 79.5606 42.0756 75.4911C55.072 62.7892 62.8477 51.8512 66.2606 41.4704C68.0628 35.9881 68.177 30.4166 66.606 24.6021C62.3642 8.90237 46.8755 -1.50746 30.2663 0.178652ZM36.6825 16.7065C39.7632 17.3402 42.3904 18.868 44.5625 21.2889C45.613 22.4596 47.063 25.2604 47.4779 26.9198C47.9043 28.626 47.8637 31.6303 47.3913 33.3336C46.1184 37.9217 42.6642 41.4831 38.0761 42.9384C36.0844 43.5703 33.1754 43.7356 31.1307 43.3332C26.6998 42.4613 23.056 39.6446 21.1335 35.6052C20.2031 33.6505 19.8948 32.2568 19.8948 30.0079C19.8948 27.5889 20.2162 26.2782 21.3707 23.99C23.2799 20.2055 26.6957 17.6022 30.9194 16.7123C32.309 16.4195 35.2731 16.4165 36.6825 16.7065Z" fill="white"/>
</svg>
