<svg width="31" height="32" viewBox="0 0 31 32" fill="none" xmlns="http://www.w3.org/2000/svg">
<path fill-rule="evenodd" clip-rule="evenodd" d="M17.6158 0.119421C21.5011 0.714146 25.0275 2.78474 27.4438 5.89016C28.204 6.86708 28.6922 7.66261 29.2741 8.8728C30.0764 10.5412 30.5178 12.0172 30.7518 13.8145C31.395 18.7558 29.778 23.7287 26.3854 27.2425C19.9479 33.91 9.47298 33.4609 3.6439 26.2675C-1.2681 20.2059 -1.20778 11.4662 3.78727 5.48476C6.21435 2.5784 9.62884 0.64936 13.288 0.117273C14.3692 -0.039982 16.5819 -0.0389077 17.6158 0.119421ZM14.5583 5.2804C13.4309 5.40708 12.586 5.65201 11.5834 6.14295C9.53231 7.14721 8.08058 8.7805 7.29579 10.9666C6.51944 13.1292 6.73743 16.0151 7.86217 18.4659L8.13107 19.0519L8.94824 19.103C11.2043 19.2443 12.9049 20.2227 13.7567 21.8694C14.3325 22.9825 14.4943 23.6533 14.8276 26.3088L14.8898 26.8046H15.4677H16.0457L16.1443 25.8956C16.4323 23.2388 16.9366 21.8171 17.959 20.7788C18.9717 19.7504 20.3024 19.2161 22.1599 19.092L22.9854 19.0369L23.2593 18.3972C24.1101 16.4109 24.3232 13.5138 23.7689 11.4717C23.5201 10.5553 22.7891 9.14384 22.1501 8.34633C20.7933 6.65272 18.7042 5.51575 16.5268 5.28577C15.5985 5.18777 15.3885 5.18719 14.5583 5.2804Z" fill="#7EC16E"/>
</svg>
