<svg width="141" height="77" viewBox="0 0 141 77" fill="none" xmlns="http://www.w3.org/2000/svg">
<circle cx="44.5" cy="18.5" r="13.5" fill="#DDF3FF"/>
<path fill-rule="evenodd" clip-rule="evenodd" d="M42.3949 0.142273C35.8264 0.978256 30.2498 5.18738 27.6395 11.2792C25.788 15.6005 25.7268 20.7183 27.4735 25.1489L27.8955 26.219L20.3612 33.7081C16.2174 37.8273 12.8138 41.3034 12.7975 41.433C12.7338 41.9433 12.8187 42.2313 13.1221 42.5324C13.8813 43.2859 13.8036 43.3494 21.5875 35.6221C25.5901 31.6487 28.9364 28.3997 29.0237 28.4019C29.111 28.4041 29.4318 28.7736 29.7364 29.2231C30.5658 30.447 32.2635 32.1603 33.5157 33.0372C34.1275 33.4655 34.631 33.887 34.6347 33.9739C34.6385 34.0606 31.8098 36.9417 28.3487 40.3761L22.0558 46.6204L19.7646 47.0239C18.392 47.2656 17.2715 47.5505 16.9698 47.7345C16.3533 48.1107 16.0636 48.8394 15.7291 50.8561C15.593 51.6767 15.4473 52.4625 15.4053 52.6023C15.3479 52.7941 14.8922 52.924 13.5531 53.13C11.5041 53.4455 10.6182 53.7991 10.2263 54.4576C10.0734 54.7145 9.76755 55.9353 9.54682 57.1702C9.18178 59.212 9.10061 59.4615 8.65012 59.9258L8.15486 60.4362H5.25859H2.36232V57.5775V54.7189L6.05876 51.0207C8.09188 48.9867 9.79319 47.2126 9.83939 47.0787C9.88559 46.9446 9.82879 46.6113 9.71312 46.338C9.49397 45.8209 8.95535 45.5689 8.42607 45.7361C8.26752 45.7862 6.36162 47.5913 4.19084 49.7475L0.243913 53.6678L0.127454 55.4423C0.0633706 56.4182 0.00624898 58.1 0.00055264 59.1798C-0.0113147 61.3871 0.161632 61.8898 1.1346 62.4786C1.58192 62.7494 1.92291 62.7896 3.70729 62.7814C4.83864 62.7762 6.53235 62.7189 7.47114 62.6539L9.17783 62.5358L10.2013 61.5293C10.7641 60.9755 11.2627 60.403 11.3094 60.2571C11.356 60.1112 11.5617 59.0582 11.7665 57.9172C11.9712 56.7761 12.2187 55.7934 12.3163 55.7336C12.4141 55.6736 13.3053 55.4983 14.2968 55.344C16.1786 55.0511 16.8775 54.7607 17.3223 54.0868C17.4663 53.8688 17.7372 52.8112 17.9244 51.7365C18.1114 50.662 18.3079 49.7398 18.361 49.6873C18.414 49.6347 19.0904 49.4853 19.8642 49.3555C20.6379 49.2256 21.6626 49.0443 22.1413 48.9528L23.0115 48.7861L29.9255 41.9404L36.8394 35.0946L37.9162 35.5128C41.8625 37.0455 46.8411 37.1821 50.6133 35.861C51.4643 35.5631 51.3639 35.5412 51.6473 36.0854C51.9673 36.6995 51.9603 36.7215 51.4476 36.7215C50.6517 36.7215 49.6429 37.3624 49.2454 38.1203C48.9 38.779 48.8824 38.9752 48.8824 42.1701V45.5276L47.3396 46.9691C46.491 47.7617 45.4367 48.7686 44.9964 49.2063C43.616 50.5787 43.5291 51.8149 44.6864 53.6106C45.6445 55.0971 46.9852 55.5268 48.5992 54.8645C48.8519 54.761 48.8729 55.218 48.9156 61.7174C48.9655 69.2818 48.9357 69.0299 49.8568 69.6774C50.1927 69.9134 51.3491 69.9418 62.221 69.9808C75.5318 70.0287 74.9539 70.0709 75.621 68.9995C75.9281 68.5062 75.94 68.2311 75.94 61.5684V54.6493L76.4443 54.899C77.0745 55.2111 78.297 55.1941 78.9396 54.8643C79.8232 54.4108 80.9931 52.5156 80.9999 51.5267C81.0069 50.522 80.5463 49.7987 78.9668 48.3334C78.1288 47.556 77.2775 46.8778 77.075 46.8263C76.3014 46.6295 75.5003 47.5264 75.7897 48.2655C75.8571 48.4378 76.5237 49.178 77.271 49.9103C78.0185 50.6426 78.6299 51.3506 78.6299 51.4836C78.6299 51.7927 77.8783 52.8977 77.6682 52.8977C77.5807 52.8977 76.9783 52.4384 76.3297 51.8769C75.1656 50.8693 74.7726 50.7088 74.2056 51.0098C73.6092 51.3266 73.5665 51.9204 73.5665 59.9099V67.6605H70.7975H68.0284V61.7457V55.8308L67.6382 55.1699C66.9918 54.075 66.6684 53.9969 62.7829 53.9977C59.0125 53.9983 58.7124 54.0706 58.059 55.1343C57.7597 55.6215 57.7445 55.936 57.744 61.6533L57.7434 67.6605H54.4996H51.2559V59.6439V51.627L50.8674 51.2416C50.2392 50.618 49.8055 50.7372 48.5541 51.8769C47.9378 52.4384 47.3331 52.8977 47.2105 52.8977C46.9691 52.8977 46.1925 51.7819 46.1925 51.4348C46.1925 51.3178 47.2426 50.2426 48.5264 49.0454C49.8101 47.8484 50.9468 46.7236 51.0525 46.546C51.1875 46.319 51.2464 45.1619 51.2503 42.6502L51.2559 39.0773H52.4426H53.6293V40.5396C53.6293 41.7942 53.6752 42.0509 53.952 42.3456C54.3351 42.754 55.2302 42.8102 55.5352 42.4452C56.006 41.8823 56.3039 41.8624 57.0802 42.3416C57.4885 42.5936 58.0454 42.8861 58.3179 42.9914C58.6537 43.1215 58.9053 43.3858 59.0992 43.8128C59.4823 44.6562 60.5765 45.5845 61.4849 45.8369C62.8837 46.2256 64.4886 45.6459 65.3652 44.4355C67.1225 42.0092 65.4133 38.7267 62.3892 38.7201C61.1096 38.7173 59.829 39.4688 59.1939 40.5953C59.0863 40.7861 58.9891 40.8029 58.7556 40.6708C57.9518 40.2165 57.9339 40.2613 59.5061 38.7845C61.9007 36.5351 62.3093 36.2272 62.656 36.4113C62.8194 36.4982 64.7741 38.2644 66.9993 40.336C71.3601 44.3961 71.541 44.5128 72.2731 43.7395C72.6138 43.3795 72.7026 42.936 72.5255 42.4783C72.4752 42.348 70.9799 40.8865 69.2026 39.2304L65.9714 36.2191V35.1434C65.9714 31.8147 64.7209 26.6811 63.1625 23.6124C62.7726 22.8445 62.7696 22.8104 62.9772 21.4923C63.2702 19.6321 63.2329 16.5252 62.8984 14.9278C62.1061 11.1442 60.4431 8.01885 57.8495 5.44007C53.8105 1.42412 47.9928 -0.570267 42.3949 0.142273ZM47.9018 2.63294C52.7156 3.61891 56.7889 6.64921 59.0429 10.9215C60.4493 13.5872 61.0175 16.2039 60.8572 19.2758C60.6385 23.4615 59.0521 26.9323 55.974 29.959C55.073 30.845 52.8376 32.4811 52.5279 32.4811C52.3511 32.4811 51.482 30.0167 51.0323 28.2407C50.2823 25.2781 50.1196 22.0232 50.6234 20.0532C50.807 19.3352 50.8196 19.3242 51.5788 19.2243C53.6613 18.9501 55.9099 16.9499 56.5791 14.7766C57.0641 13.2011 56.7951 10.9037 55.9705 9.57742C54.6976 7.53011 52.6633 6.38301 50.3065 6.38301C46.6448 6.38301 43.7911 9.21542 43.7911 12.8497C43.7911 15.3896 45.2859 17.7362 47.5631 18.771C48.306 19.1085 48.4215 19.2171 48.342 19.5029C48.2906 19.6874 48.1719 20.5207 48.0779 21.3545C47.7724 24.0666 48.3147 27.6923 49.5823 31.415C50.05 32.7889 50.2324 33.5288 50.1204 33.5976C50.027 33.6548 49.2653 33.8687 48.4276 34.073C46.6295 34.5113 43.5106 34.5798 41.6829 34.2211C35.1286 32.9347 30.149 27.9946 28.7678 21.409C28.4645 19.9619 28.4976 16.6226 28.8307 15.091C30.2128 8.73547 35.418 3.71188 41.8148 2.55992C43.5405 2.24911 46.1825 2.28084 47.9018 2.63294ZM51.7833 8.92723C53.7912 9.67291 54.9803 11.8958 54.4374 13.8893L54.2613 14.536L53.0918 14.6106C51.6877 14.7 50.812 15.1449 49.8566 16.2543L49.2221 16.9912L48.5791 16.7033C47.1839 16.079 46.0342 14.338 46.0342 12.8497C46.0342 11.2117 47.3154 9.45508 48.9085 8.90901C50.0069 8.53241 50.7328 8.53696 51.7833 8.92723ZM61.9444 26.631C62.5954 28.1672 63.5952 32.4706 63.5973 33.7449C63.5979 34.1371 63.5782 34.144 62.609 34.0888C61.3034 34.0147 61.0746 34.1537 58.4717 36.6037C57.3017 37.7049 56.3073 38.6061 56.262 38.6061C56.1281 38.6061 54.8545 36.8842 54.145 35.7443L53.4882 34.6886L54.8112 33.8327C57.2565 32.2506 59.6551 29.6625 61.0438 27.1075C61.3607 26.5245 61.6368 26.0461 61.6575 26.0447C61.6781 26.0433 61.8072 26.3071 61.9444 26.631ZM63.7562 42.511C63.7562 42.9982 62.9889 43.6317 62.399 43.6317C61.686 43.6317 61.5835 43.3801 62.212 43.1728C62.4955 43.0794 62.9413 42.8289 63.2024 42.6162C63.7785 42.147 63.7562 42.1512 63.7562 42.511ZM65.6549 61.9282V67.6605H62.8068H59.9586V62.0329C59.9586 58.9376 60.0061 56.358 60.0641 56.3006C60.1221 56.2429 61.4037 56.1958 62.9123 56.1958H65.6549V61.9282Z" fill="#333333"/>
<path d="M23.482 56.548H25.876V67.872H31.595V70H23.482V56.548ZM32.9149 63.236C32.9149 62.1593 33.0922 61.1903 33.4469 60.329C33.8142 59.455 34.3146 58.714 34.9479 58.106C35.5939 57.498 36.3539 57.0293 37.2279 56.7C38.1146 56.3707 39.0772 56.206 40.1159 56.206C41.1672 56.206 42.1362 56.3707 43.0229 56.7C43.9096 57.0293 44.6759 57.498 45.3219 58.106C45.9679 58.714 46.4682 59.455 46.8229 60.329C47.1902 61.1903 47.3739 62.1593 47.3739 63.236C47.3739 64.2873 47.1902 65.25 46.8229 66.124C46.4682 66.9853 45.9679 67.7327 45.3219 68.366C44.6759 68.9867 43.9096 69.4743 43.0229 69.829C42.1362 70.171 41.1672 70.342 40.1159 70.342C39.0772 70.342 38.1146 70.171 37.2279 69.829C36.3539 69.4743 35.5939 68.9867 34.9479 68.366C34.3146 67.7327 33.8142 66.9853 33.4469 66.124C33.0922 65.25 32.9149 64.2873 32.9149 63.236ZM35.5179 63.236C35.5179 63.958 35.6256 64.623 35.8409 65.231C36.0689 65.8263 36.3856 66.3457 36.7909 66.789C37.2089 67.2323 37.6966 67.5807 38.2539 67.834C38.8239 68.0747 39.4509 68.195 40.1349 68.195C40.8189 68.195 41.4459 68.0747 42.0159 67.834C42.5859 67.5807 43.0736 67.2323 43.4789 66.789C43.8969 66.3457 44.2136 65.8263 44.4289 65.231C44.6569 64.623 44.7709 63.958 44.7709 63.236C44.7709 62.5393 44.6569 61.8933 44.4289 61.298C44.2136 60.7027 43.9032 60.1833 43.4979 59.74C43.0926 59.2967 42.6049 58.9483 42.0349 58.695C41.4649 58.4417 40.8316 58.315 40.1349 58.315C39.4382 58.315 38.8049 58.4417 38.2349 58.695C37.6776 58.9483 37.1962 59.2967 36.7909 59.74C36.3856 60.1833 36.0689 60.7027 35.8409 61.298C35.6256 61.8933 35.5179 62.5393 35.5179 63.236ZM90.9149 69.297C90.2309 69.6263 89.4773 69.8797 88.6539 70.057C87.8433 70.247 86.9059 70.342 85.8419 70.342C84.7526 70.342 83.7583 70.171 82.8589 69.829C81.9596 69.4743 81.1869 68.9867 80.5409 68.366C79.8949 67.7327 79.3883 66.9853 79.0209 66.124C78.6663 65.25 78.4889 64.2873 78.4889 63.236C78.4889 62.1593 78.6726 61.1903 79.0399 60.329C79.4199 59.455 79.9329 58.714 80.5789 58.106C81.2376 57.498 82.0103 57.0293 82.8969 56.7C83.7836 56.3707 84.7463 56.206 85.7849 56.206C86.8616 56.206 87.8433 56.3643 88.7299 56.681C89.6293 56.985 90.3513 57.3903 90.8959 57.897L89.2429 59.683C88.9009 59.303 88.4196 58.98 87.7989 58.714C87.1909 58.448 86.5259 58.315 85.8039 58.315C85.0946 58.315 84.4486 58.4417 83.8659 58.695C83.2959 58.9483 82.8083 59.2967 82.4029 59.74C81.9976 60.1833 81.6809 60.7027 81.4529 61.298C81.2376 61.8933 81.1299 62.5393 81.1299 63.236C81.1299 63.958 81.2376 64.623 81.4529 65.231C81.6809 65.8263 81.9976 66.3457 82.4029 66.789C82.8209 67.2323 83.3213 67.5807 83.9039 67.834C84.4993 68.0747 85.1706 68.195 85.9179 68.195C86.9439 68.195 87.8369 68.0367 88.5969 67.72V64.3H85.7659V62.324H90.9149V69.297ZM94.1342 63.236C94.1342 62.1593 94.3116 61.1903 94.6662 60.329C95.0336 59.455 95.5339 58.714 96.1672 58.106C96.8132 57.498 97.5732 57.0293 98.4472 56.7C99.3339 56.3707 100.297 56.206 101.335 56.206C102.387 56.206 103.356 56.3707 104.242 56.7C105.129 57.0293 105.895 57.498 106.541 58.106C107.187 58.714 107.688 59.455 108.042 60.329C108.41 61.1903 108.593 62.1593 108.593 63.236C108.593 64.2873 108.41 65.25 108.042 66.124C107.688 66.9853 107.187 67.7327 106.541 68.366C105.895 68.9867 105.129 69.4743 104.242 69.829C103.356 70.171 102.387 70.342 101.335 70.342C100.297 70.342 99.3339 70.171 98.4472 69.829C97.5732 69.4743 96.8132 68.9867 96.1672 68.366C95.5339 67.7327 95.0336 66.9853 94.6662 66.124C94.3116 65.25 94.1342 64.2873 94.1342 63.236ZM96.7372 63.236C96.7372 63.958 96.8449 64.623 97.0602 65.231C97.2882 65.8263 97.6049 66.3457 98.0102 66.789C98.4282 67.2323 98.9159 67.5807 99.4732 67.834C100.043 68.0747 100.67 68.195 101.354 68.195C102.038 68.195 102.665 68.0747 103.235 67.834C103.805 67.5807 104.293 67.2323 104.698 66.789C105.116 66.3457 105.433 65.8263 105.648 65.231C105.876 64.623 105.99 63.958 105.99 63.236C105.99 62.5393 105.876 61.8933 105.648 61.298C105.433 60.7027 105.123 60.1833 104.717 59.74C104.312 59.2967 103.824 58.9483 103.254 58.695C102.684 58.4417 102.051 58.315 101.354 58.315C100.658 58.315 100.024 58.4417 99.4542 58.695C98.8969 58.9483 98.4156 59.2967 98.0102 59.74C97.6049 60.1833 97.2882 60.7027 97.0602 61.298C96.8449 61.8933 96.7372 62.5393 96.7372 63.236Z" fill="#333333"/>
<path d="M114.571 58.638H110.448V56.548H121.088V58.638H116.965V70H114.571V58.638ZM123.603 56.548H125.997V70H123.603V56.548ZM129.915 56.548H134.304C135.077 56.548 135.774 56.6177 136.394 56.757C137.015 56.8963 137.547 57.1243 137.99 57.441C138.434 57.7577 138.776 58.163 139.016 58.657C139.257 59.151 139.377 59.7463 139.377 60.443C139.377 61.1903 139.238 61.8173 138.959 62.324C138.681 62.8307 138.301 63.2423 137.819 63.559C137.351 63.863 136.8 64.0847 136.166 64.224C135.533 64.3633 134.862 64.433 134.152 64.433H132.309V70H129.915V56.548ZM133.981 62.419C134.374 62.419 134.748 62.3937 135.102 62.343C135.457 62.2797 135.774 62.1783 136.052 62.039C136.331 61.887 136.553 61.6843 136.717 61.431C136.882 61.1777 136.964 60.8483 136.964 60.443C136.964 60.0503 136.882 59.7337 136.717 59.493C136.553 59.2397 136.331 59.0433 136.052 58.904C135.786 58.7647 135.476 58.676 135.121 58.638C134.779 58.5873 134.425 58.562 134.057 58.562H132.309V62.419H133.981Z" fill="#FF5F5F"/>
<path d="M89.7 44.628H90.681L93.426 51H92.13L91.536 49.542H88.773L88.197 51H86.928L89.7 44.628ZM91.14 48.57L90.159 45.978L89.16 48.57H91.14ZM95.4875 46.68V47.283H95.5145C95.5685 47.199 95.6375 47.115 95.7215 47.031C95.8115 46.941 95.9195 46.863 96.0455 46.797C96.1715 46.725 96.3125 46.668 96.4685 46.626C96.6305 46.578 96.8105 46.554 97.0085 46.554C97.3145 46.554 97.5965 46.614 97.8545 46.734C98.1125 46.848 98.3345 47.007 98.5205 47.211C98.7065 47.415 98.8505 47.655 98.9525 47.931C99.0545 48.207 99.1055 48.504 99.1055 48.822C99.1055 49.14 99.0545 49.44 98.9525 49.722C98.8565 49.998 98.7155 50.241 98.5295 50.451C98.3495 50.655 98.1275 50.82 97.8635 50.946C97.6055 51.066 97.3115 51.126 96.9815 51.126C96.6755 51.126 96.3935 51.063 96.1355 50.937C95.8835 50.811 95.6885 50.64 95.5505 50.424H95.5325V53.16H94.4525V46.68H95.4875ZM98.0075 48.822C98.0075 48.654 97.9805 48.489 97.9265 48.327C97.8785 48.159 97.8035 48.009 97.7015 47.877C97.5995 47.745 97.4705 47.64 97.3145 47.562C97.1585 47.478 96.9755 47.436 96.7655 47.436C96.5675 47.436 96.3905 47.478 96.2345 47.562C96.0785 47.646 95.9435 47.754 95.8295 47.886C95.7215 48.018 95.6375 48.168 95.5775 48.336C95.5235 48.504 95.4965 48.672 95.4965 48.84C95.4965 49.008 95.5235 49.176 95.5775 49.344C95.6375 49.506 95.7215 49.653 95.8295 49.785C95.9435 49.917 96.0785 50.025 96.2345 50.109C96.3905 50.187 96.5675 50.226 96.7655 50.226C96.9755 50.226 97.1585 50.184 97.3145 50.1C97.4705 50.016 97.5995 49.908 97.7015 49.776C97.8035 49.644 97.8785 49.494 97.9265 49.326C97.9805 49.158 98.0075 48.99 98.0075 48.822ZM103.28 50.451H103.253C103.145 50.643 102.971 50.802 102.731 50.928C102.491 51.048 102.218 51.108 101.912 51.108C101.738 51.108 101.555 51.084 101.363 51.036C101.177 50.994 101.003 50.922 100.841 50.82C100.685 50.712 100.553 50.574 100.445 50.406C100.343 50.232 100.292 50.019 100.292 49.767C100.292 49.443 100.382 49.185 100.562 48.993C100.748 48.801 100.985 48.654 101.273 48.552C101.561 48.45 101.879 48.384 102.227 48.354C102.581 48.318 102.926 48.3 103.262 48.3V48.192C103.262 47.922 103.163 47.724 102.965 47.598C102.773 47.466 102.542 47.4 102.272 47.4C102.044 47.4 101.825 47.448 101.615 47.544C101.405 47.64 101.231 47.757 101.093 47.895L100.535 47.238C100.781 47.01 101.063 46.839 101.381 46.725C101.705 46.611 102.032 46.554 102.362 46.554C102.746 46.554 103.061 46.608 103.307 46.716C103.559 46.824 103.757 46.965 103.901 47.139C104.045 47.313 104.144 47.508 104.198 47.724C104.258 47.94 104.288 48.156 104.288 48.372V51H103.28V50.451ZM103.262 49.029H103.019C102.845 49.029 102.662 49.038 102.47 49.056C102.278 49.068 102.101 49.101 101.939 49.155C101.777 49.203 101.642 49.275 101.534 49.371C101.426 49.461 101.372 49.587 101.372 49.749C101.372 49.851 101.393 49.938 101.435 50.01C101.483 50.076 101.543 50.13 101.615 50.172C101.687 50.214 101.768 50.244 101.858 50.262C101.948 50.28 102.038 50.289 102.128 50.289C102.5 50.289 102.782 50.19 102.974 49.992C103.166 49.794 103.262 49.524 103.262 49.182V49.029ZM105.996 46.68H107.031V47.4H107.049C107.169 47.148 107.337 46.944 107.553 46.788C107.769 46.632 108.021 46.554 108.309 46.554C108.351 46.554 108.396 46.557 108.444 46.563C108.492 46.563 108.534 46.569 108.57 46.581V47.571C108.498 47.553 108.435 47.541 108.381 47.535C108.333 47.529 108.285 47.526 108.237 47.526C107.991 47.526 107.793 47.571 107.643 47.661C107.493 47.751 107.376 47.859 107.292 47.985C107.208 48.111 107.151 48.24 107.121 48.372C107.091 48.504 107.076 48.609 107.076 48.687V51H105.996V46.68ZM108.998 47.544V46.68H109.754V45.429H110.816V46.68H111.896V47.544H110.816V49.551C110.816 49.743 110.849 49.902 110.915 50.028C110.987 50.154 111.143 50.217 111.383 50.217C111.455 50.217 111.533 50.211 111.617 50.199C111.701 50.181 111.776 50.157 111.842 50.127L111.878 50.973C111.782 51.009 111.668 51.036 111.536 51.054C111.404 51.078 111.278 51.09 111.158 51.09C110.87 51.09 110.636 51.051 110.456 50.973C110.276 50.889 110.132 50.778 110.024 50.64C109.922 50.496 109.85 50.334 109.808 50.154C109.772 49.968 109.754 49.77 109.754 49.56V47.544H108.998ZM118.284 46.554C118.566 46.554 118.806 46.605 119.004 46.707C119.208 46.803 119.373 46.932 119.499 47.094C119.631 47.256 119.727 47.442 119.787 47.652C119.847 47.862 119.877 48.078 119.877 48.3V51H118.797V48.606C118.797 48.48 118.788 48.348 118.77 48.21C118.752 48.072 118.713 47.949 118.653 47.841C118.593 47.727 118.509 47.634 118.401 47.562C118.299 47.49 118.161 47.454 117.987 47.454C117.819 47.454 117.675 47.49 117.555 47.562C117.435 47.634 117.336 47.727 117.258 47.841C117.18 47.955 117.123 48.084 117.087 48.228C117.051 48.366 117.033 48.504 117.033 48.642V51H115.953V48.39C115.953 48.12 115.887 47.898 115.755 47.724C115.629 47.544 115.428 47.454 115.152 47.454C114.99 47.454 114.849 47.49 114.729 47.562C114.609 47.628 114.51 47.715 114.432 47.823C114.36 47.931 114.303 48.057 114.261 48.201C114.225 48.339 114.207 48.48 114.207 48.624V51H113.127V46.68H114.153V47.373H114.171C114.219 47.265 114.282 47.163 114.36 47.067C114.444 46.971 114.54 46.884 114.648 46.806C114.762 46.728 114.891 46.668 115.035 46.626C115.179 46.578 115.338 46.554 115.512 46.554C115.848 46.554 116.127 46.629 116.349 46.779C116.571 46.929 116.742 47.127 116.862 47.373C117.006 47.109 117.198 46.908 117.438 46.77C117.678 46.626 117.96 46.554 118.284 46.554ZM124.626 48.408C124.626 48.27 124.605 48.138 124.563 48.012C124.527 47.886 124.467 47.775 124.383 47.679C124.299 47.583 124.191 47.508 124.059 47.454C123.933 47.394 123.783 47.364 123.609 47.364C123.285 47.364 123.009 47.463 122.781 47.661C122.559 47.853 122.436 48.102 122.412 48.408H124.626ZM125.706 48.894C125.706 48.942 125.706 48.99 125.706 49.038C125.706 49.086 125.703 49.134 125.697 49.182H122.412C122.424 49.338 122.463 49.482 122.529 49.614C122.601 49.74 122.694 49.851 122.808 49.947C122.922 50.037 123.051 50.109 123.195 50.163C123.339 50.217 123.489 50.244 123.645 50.244C123.915 50.244 124.143 50.196 124.329 50.1C124.515 49.998 124.668 49.86 124.788 49.686L125.508 50.262C125.082 50.838 124.464 51.126 123.654 51.126C123.318 51.126 123.009 51.075 122.727 50.973C122.445 50.865 122.199 50.715 121.989 50.523C121.785 50.331 121.623 50.097 121.503 49.821C121.389 49.539 121.332 49.221 121.332 48.867C121.332 48.519 121.389 48.204 121.503 47.922C121.623 47.634 121.785 47.391 121.989 47.193C122.193 46.989 122.433 46.833 122.709 46.725C122.991 46.611 123.294 46.554 123.618 46.554C123.918 46.554 124.194 46.605 124.446 46.707C124.704 46.803 124.926 46.95 125.112 47.148C125.298 47.34 125.442 47.583 125.544 47.877C125.652 48.165 125.706 48.504 125.706 48.894ZM127.202 46.68H128.228V47.373H128.246C128.342 47.157 128.507 46.968 128.741 46.806C128.981 46.638 129.263 46.554 129.587 46.554C129.869 46.554 130.109 46.605 130.307 46.707C130.511 46.803 130.676 46.932 130.802 47.094C130.934 47.256 131.03 47.442 131.09 47.652C131.15 47.862 131.18 48.078 131.18 48.3V51H130.1V48.606C130.1 48.48 130.091 48.348 130.073 48.21C130.055 48.072 130.016 47.949 129.956 47.841C129.896 47.727 129.812 47.634 129.704 47.562C129.602 47.49 129.464 47.454 129.29 47.454C129.116 47.454 128.966 47.49 128.84 47.562C128.714 47.628 128.609 47.715 128.525 47.823C128.447 47.931 128.387 48.057 128.345 48.201C128.303 48.339 128.282 48.48 128.282 48.624V51H127.202V46.68ZM132.27 47.544V46.68H133.026V45.429H134.088V46.68H135.168V47.544H134.088V49.551C134.088 49.743 134.121 49.902 134.187 50.028C134.259 50.154 134.415 50.217 134.655 50.217C134.727 50.217 134.805 50.211 134.889 50.199C134.973 50.181 135.048 50.157 135.114 50.127L135.15 50.973C135.054 51.009 134.94 51.036 134.808 51.054C134.676 51.078 134.55 51.09 134.43 51.09C134.142 51.09 133.908 51.051 133.728 50.973C133.548 50.889 133.404 50.778 133.296 50.64C133.194 50.496 133.122 50.334 133.08 50.154C133.044 49.968 133.026 49.77 133.026 49.56V47.544H132.27ZM138.766 47.832C138.67 47.706 138.538 47.598 138.37 47.508C138.202 47.412 138.019 47.364 137.821 47.364C137.647 47.364 137.488 47.4 137.344 47.472C137.2 47.544 137.128 47.664 137.128 47.832C137.128 48 137.206 48.12 137.362 48.192C137.524 48.258 137.758 48.327 138.064 48.399C138.226 48.435 138.388 48.483 138.55 48.543C138.718 48.603 138.868 48.684 139 48.786C139.138 48.882 139.249 49.005 139.333 49.155C139.417 49.299 139.459 49.476 139.459 49.686C139.459 49.95 139.408 50.175 139.306 50.361C139.21 50.541 139.078 50.688 138.91 50.802C138.748 50.916 138.556 50.997 138.334 51.045C138.118 51.099 137.893 51.126 137.659 51.126C137.323 51.126 136.996 51.066 136.678 50.946C136.36 50.82 136.096 50.643 135.886 50.415L136.597 49.749C136.717 49.905 136.873 50.034 137.065 50.136C137.257 50.238 137.47 50.289 137.704 50.289C137.782 50.289 137.86 50.28 137.938 50.262C138.022 50.244 138.097 50.217 138.163 50.181C138.235 50.139 138.292 50.085 138.334 50.019C138.376 49.953 138.397 49.872 138.397 49.776C138.397 49.596 138.313 49.467 138.145 49.389C137.983 49.311 137.737 49.233 137.407 49.155C137.245 49.119 137.086 49.074 136.93 49.02C136.78 48.96 136.645 48.885 136.525 48.795C136.405 48.699 136.309 48.582 136.237 48.444C136.165 48.306 136.129 48.135 136.129 47.931C136.129 47.691 136.177 47.484 136.273 47.31C136.375 47.136 136.507 46.995 136.669 46.887C136.831 46.773 137.014 46.689 137.218 46.635C137.422 46.581 137.632 46.554 137.848 46.554C138.16 46.554 138.463 46.608 138.757 46.716C139.057 46.824 139.294 46.989 139.468 47.211L138.766 47.832Z" fill="#333333"/>
</svg>
