<svg style="display: none;" aria-hidden="true" xmlns="http://www.w3.org/2000/svg" xmlns:xlink="http://www.w3.org/1999/xlink"><symbol viewBox="0 0 100 32" id="2gis"><path clip-rule="evenodd" d="M17.616.12a15.43 15.43 0 0 1 9.828 5.77c.76.977 1.248 1.773 1.83 2.983.802 1.668 1.244 3.144 1.478 4.942.643 4.94-.974 9.914-4.367 13.428-6.437 6.667-16.912 6.218-22.741-.976-4.912-6.061-4.852-14.8.143-20.782C6.214 2.578 9.63.649 13.287.117c1.082-.157 3.295-.156 4.329.002Zm-3.058 5.16c-1.127.127-1.972.372-2.975.863-2.05 1.004-3.502 2.638-4.287 4.824-.777 2.162-.559 5.048.566 7.499l.269.586.817.051c2.256.141 3.957 1.12 4.809 2.766.575 1.114.737 1.784 1.07 4.44l.063.496h1.156l.098-.91c.288-2.656.793-4.078 1.815-5.116 1.013-1.029 2.343-1.563 4.2-1.687l.826-.055.274-.64c.851-1.986 1.064-4.883.51-6.925-.249-.917-.98-2.328-1.619-3.126-1.357-1.693-3.446-2.83-5.623-3.06-.929-.098-1.139-.099-1.969-.006Z"/><path clip-rule="evenodd" d="M91.975 5.036c3.05.312 5.318 1.78 6.42 4.153.245.528.599 1.682.682 2.225l.048.31h-4.521l-.14-.434c-.203-.63-.467-1.05-.93-1.483-.74-.693-1.55-.975-2.802-.975-1.717 0-2.789.764-2.964 2.113-.13 1.003.305 1.865 1.174 2.326.651.345 1.13.473 2.88.768 2.421.41 3.825.844 4.81 1.49 1.06.694 1.76 1.593 2.149 2.758.203.609.222.78.223 1.948.002 1.44-.097 1.946-.572 2.934-.834 1.736-2.601 2.983-4.918 3.47-2.823.595-5.98.112-7.904-1.207-1.614-1.107-2.695-3.025-2.89-5.131l-.053-.562h4.46l.143.517c.079.284.24.693.357.909.29.533 1.075 1.263 1.633 1.518 1.275.584 3.252.541 4.255-.092.373-.236.73-.65.89-1.033.147-.349.16-1.35.024-1.694-.403-1.016-1.293-1.447-4.012-1.944-1.738-.317-2.519-.513-3.326-.833-1.194-.474-2.12-1.131-2.72-1.927-.783-1.043-1.025-1.802-1.08-3.395-.034-.99-.014-1.264.138-1.9.524-2.199 2-3.708 4.344-4.444 1.172-.368 2.859-.523 4.202-.385Zm-26.761.366c3.836.614 6.674 3.04 7.6 6.496.115.427.208.804.208.838 0 .034-1.033.062-2.296.062h-2.297l-.284-.594c-.537-1.126-1.577-2.018-2.842-2.44-.61-.203-.779-.222-1.949-.222-1.172 0-1.338.019-1.953.224-1.88.626-3.14 2.079-3.686 4.254-.257 1.02-.252 2.901.009 3.86.612 2.245 2.034 3.748 4.028 4.258.876.224 2.328.224 3.205 0 1.385-.354 2.674-1.337 3.257-2.481l.273-.537-2.816-.022-2.816-.022.023-1.755.022-1.755 5.072-.021 5.073-.021-.047 1.632c-.035 1.193-.092 1.824-.211 2.34-.818 3.545-3.35 6.016-7.036 6.866-1.007.232-3.018.293-4.05.124-2.217-.365-4.031-1.236-5.519-2.648-1.504-1.43-2.437-3.162-2.918-5.42-.269-1.26-.272-3.532-.007-4.857.854-4.271 3.547-7.085 7.7-8.047.948-.22 3.21-.279 4.257-.112ZM44.713 5.37c2.69.392 4.81 1.947 5.716 4.192.419 1.036.488 1.456.489 2.947 0 1.223-.025 1.49-.191 2.066-.601 2.077-2.116 3.663-4.809 5.034-1.199.61-3.197 1.473-4.626 1.998l-1.2.44 5.64.003 5.64.003v4.215H34.845v-6.259l.723-.27c2.307-.863 5.835-2.371 7.655-3.274 1.683-.835 2.436-1.444 2.92-2.363.213-.404.23-.506.23-1.388 0-.907-.013-.978-.268-1.496-.825-1.676-2.917-2.343-4.774-1.522-.638.282-1.455 1.11-1.779 1.802-.264.564-.489 1.472-.491 1.982l-.002.31h-4.402l.046-.889c.208-4.012 2.969-6.968 7.037-7.534.735-.102 2.262-.101 2.973.003Zm35.416 10.61v10.288H75.832V5.69H80.13V15.98Z"/></symbol><symbol viewBox="0 0 156 48" id="afreeca"><path clip-rule="evenodd" d="M22.369 37.636c1.593-.71 3.225.075 3.937 1.59.956 2.075-.375 5.572-2.437 8.677h5.325c1.481-3.273 2.137-5.33 2.137-7.462 0-4.974-4.256-7.779-7.781-7.779-5.794 0-9.394 5.984-7.088 11.07l4.294-2.113c-.487-1.01-.337-3.123 1.613-3.983Z"/><path clip-rule="evenodd" d="M39.637 7.716c6.62 0 14.438 6.19 14.344 14.418l4.556 10.528H54.3V42.74h-8.138l-2.1 5.142H33.356c3.356-6.376 2.194-11.182-.394-14.66-2.118-2.824-3.112-5.779-3.112-8.228 0-5.797 4.781-9.93 9.169-9.949 3.768-.018 6.675 2.693 6.675 5.91 0 2.505-1.294 5.236-3.825 6.058-1.163.374-2.138-.168-2.588-.953-.694-1.235-.056-2.431.863-3.011.562-.355 1.068-.973 1.03-1.87-.037-1.346-1.312-2.356-2.68-2.038-2.175.505-4.238 2.88-4.238 5.797 0 3.609 3.6 6.6 6.956 6.6 4.744 0 9.113-5.03 8.7-10.34-.393-5.087-4.65-9.388-10.256-9.388-3.862 0-5.812.673-10.537 4.507-4.425 3.721-9.994 5.011-14.25.916-3.825-3.665-2.832-10.827 1.93-13.146C21 2.05 24.788 3.116 27.47 6.22l-3.3 2.356c-1.07-1.384-3.638-2.17-5.72-.767-2.174 1.459-2.38 4.17-1.237 5.89 2.007 3.03 5.644 2.282 8.288.319 5.362-4.02 7.519-6.302 14.137-6.302Z"/><path clip-rule="evenodd" d="m49.163 7.96 2.343-3.33A21.42 21.42 0 0 0 42.15.966l-.563 4.04c2.832.374 5.4 1.42 7.575 2.954Zm-10.8-3.124L38.155.76c-3.3.168-6.6 1.084-9.656 2.842l2.044 3.534a17.39 17.39 0 0 1 7.818-2.3Z"/><path clip-rule="evenodd" d="M20.813 12.915c.843 0 1.537-.692 1.537-1.534 0-.841-.694-1.533-1.538-1.533-.843 0-1.537.692-1.537 1.533a1.53 1.53 0 0 0 1.538 1.534Z"/><path clip-rule="evenodd" d="M6.225 16.636a3.866 3.866 0 0 1 5.475 0 3.842 3.842 0 0 1 0 5.46 3.866 3.866 0 0 1-5.475 0c-1.5-1.514-1.5-3.964 0-5.46Zm.956 2.73 1.781 1.777 1.782-1.777-1.782-1.776-1.78 1.776Z"/><path clip-rule="evenodd" d="M7.069 7.734a3.069 3.069 0 0 1 3.075 3.105 3.065 3.065 0 0 1-3.094 3.066c-1.706 0-3.094-1.383-3.075-3.085a3.08 3.08 0 0 1 3.094-3.086ZM6.056 9.81v2.001h2.007v-2H6.056Z"/><path d="M10.247 3.199 8.902 4.684l1.489 1.34 1.345-1.484-1.49-1.341Z"/><path clip-rule="evenodd" d="M5.606 24.023C3.731 26.267 1.856 28.51 0 30.755l2.288 1.907L6 28.23l4.444 3.703 3.712-4.432 4.444 3.703 3.712-4.432 4.444 3.684 1.913-2.282c-2.25-1.87-4.5-3.74-6.75-5.591l-3.713 4.432-4.444-3.703-3.712 4.432c-1.481-1.253-2.963-2.487-4.444-3.721Z"/><path clip-rule="evenodd" d="m5.831 33.709 7.82.019v.018l-6.563 3.778 1.293 2.225L9.62 41.9l2.231-1.29-1.256-2.15 3.056-1.74v6.34H5.831v-9.35Z"/><path clip-rule="evenodd" d="M74.756 16.916h2.963V28.38h-2.963v-1.197c-.712.711-2.1 1.46-3.618 1.46-3.226 0-5.7-2.825-5.7-6.004 0-3.179 2.4-6.002 5.7-6.002 1.612 0 2.906.766 3.618 1.533v-1.253Zm77.457 0h2.962V28.38h-2.962v-1.197c-.713.711-2.101 1.46-3.619 1.46-3.225 0-5.7-2.825-5.7-6.004 0-3.179 2.4-6.002 5.7-6.002 1.612 0 2.906.766 3.619 1.533v-1.253Zm-3.244 8.957c1.687 0 3.225-1.346 3.225-3.216 0-1.664-1.332-3.216-3.225-3.216-1.707 0-3.225 1.346-3.225 3.216 0 1.683 1.331 3.216 3.225 3.216Zm-77.456 0c1.687 0 3.224-1.346 3.224-3.216 0-1.664-1.33-3.216-3.224-3.216-1.707 0-3.226 1.346-3.226 3.216 0 1.683 1.332 3.216 3.225 3.216Zm65.325 2.73c-3.375 0-6-2.748-6-5.965 0-3.253 2.587-6.002 6-6.002a5.993 5.993 0 0 1 5.156 2.936L139.5 21.03c-.525-.879-1.519-1.533-2.625-1.533-1.838 0-3.131 1.477-3.131 3.123 0 1.776 1.331 3.123 3.131 3.123 1.106 0 2.119-.674 2.625-1.59l2.494 1.496c-1.031 1.795-3 2.955-5.156 2.955Z"/><path clip-rule="evenodd" d="M71.513 35.168c-.582-.056-.994.056-1.276.299-.28.243-.412.636-.412 1.215v.243h1.688v.748h-1.688v5.105h-.769v-5.123h-.993v-.748h.993v-.243c0-.767.207-1.347.638-1.74.431-.392 1.031-.56 1.819-.504v.748Zm1.593 2.711c.357-.71.975-1.066 1.857-1.066v.748c-.525 0-.975.15-1.332.468-.356.318-.525.804-.525 1.477v3.254h-.768v-5.853h.768v.972Zm5.288-1.103c.862 0 1.575.299 2.118.916.544.617.807 1.346.807 2.17 0 .093 0 .205-.019.355h-5.156c.075.598.337 1.066.75 1.42.431.356.956.524 1.575.524.45 0 .825-.093 1.162-.28.319-.187.563-.43.731-.73l.675.393a2.962 2.962 0 0 1-1.05.991c-.45.244-.956.356-1.537.356-.919 0-1.669-.28-2.25-.86s-.862-1.31-.862-2.207c0-.879.28-1.608.862-2.188.563-.58 1.294-.86 2.194-.86Zm0 .748c-.619 0-1.125.187-1.538.542-.412.355-.656.842-.731 1.421h4.388c-.076-.617-.32-1.103-.713-1.44a2.086 2.086 0 0 0-1.406-.523Zm6.862-.748c.863 0 1.575.299 2.119.916.544.617.806 1.346.806 2.17 0 .093 0 .205-.019.355h-5.156c.075.598.338 1.066.75 1.42.431.356.957.524 1.575.524.45 0 .825-.093 1.163-.28.319-.187.562-.43.731-.73l.675.393a2.962 2.962 0 0 1-1.05.991c-.45.244-.956.356-1.537.356-.92 0-1.67-.28-2.25-.86-.582-.58-.863-1.31-.863-2.207 0-.879.281-1.608.862-2.188.563-.58 1.294-.86 2.194-.86Zm0 .748c-.618 0-1.125.187-1.537.542-.413.355-.656.842-.731 1.421h4.387c-.075-.617-.319-1.103-.713-1.44a2.086 2.086 0 0 0-1.406-.523Zm4.144 5.255v-8.565h.769v8.565H89.4Zm7.481-5.872h.769v5.853h-.769v-1.14c-.543.86-1.331 1.29-2.381 1.29-.844 0-1.556-.3-2.138-.898-.6-.599-.88-1.328-.88-2.188 0-.86.3-1.59.88-2.188.6-.598 1.313-.898 2.138-.898 1.05 0 1.838.43 2.381 1.29v-1.121Zm-3.956 4.581c.45.449.994.673 1.65.673.656 0 1.2-.224 1.65-.673.45-.449.675-.99.675-1.645s-.225-1.197-.675-1.646a2.238 2.238 0 0 0-1.65-.673c-.656 0-1.2.224-1.65.673-.45.449-.675.991-.675 1.646 0 .654.225 1.196.675 1.645Zm9.131-4.712c.713 0 1.275.224 1.688.654.412.43.619 1.01.619 1.758v3.59h-.769v-3.59c0-.524-.132-.935-.413-1.215-.281-.28-.675-.43-1.181-.43-.563 0-1.031.187-1.369.542-.356.355-.525.897-.525 1.645v3.067h-.768v-5.89h.768v.916c.413-.692 1.069-1.047 1.95-1.047Zm6.544 6.133c-.881 0-1.631-.299-2.213-.878-.581-.58-.881-1.328-.881-2.188 0-.86.3-1.59.881-2.188.582-.599 1.332-.88 2.213-.88.581 0 1.106.132 1.556.412.469.28.806.655 1.013 1.122l-.638.355a1.81 1.81 0 0 0-.75-.841 2.326 2.326 0 0 0-1.181-.318c-.656 0-1.2.224-1.65.673-.45.45-.675.991-.675 1.646 0 .654.225 1.197.675 1.645.45.45.994.674 1.65.674.431 0 .825-.112 1.181-.318a2.17 2.17 0 0 0 .806-.842l.638.374c-.244.468-.6.842-1.069 1.122-.469.3-.975.43-1.556.43Zm6.412-6.133c.863 0 1.575.299 2.119.916.544.617.806 1.346.806 2.17 0 .093 0 .205-.018.355h-5.175c.075.598.337 1.066.75 1.42.431.356.956.524 1.575.524.45 0 .825-.093 1.162-.28.319-.187.563-.43.731-.73l.675.393a2.951 2.951 0 0 1-1.05.991c-.45.244-.956.356-1.537.356-.919 0-1.669-.28-2.25-.86s-.863-1.31-.863-2.207c0-.879.282-1.608.863-2.188.581-.58 1.312-.86 2.212-.86Zm0 .748c-.618 0-1.125.187-1.537.542-.413.355-.656.842-.731 1.421h4.387c-.075-.617-.319-1.103-.712-1.44a2.089 2.089 0 0 0-1.407-.523Zm4.669 5.18a.61.61 0 0 1-.45.187c-.187 0-.337-.056-.45-.187a.607.607 0 0 1-.187-.45c0-.186.056-.336.187-.448a.61.61 0 0 1 .45-.187c.188 0 .338.056.45.187.131.131.188.28.188.449a.687.687 0 0 1-.188.449Zm6.3-8.135h.769v8.21h-.769v-1.141c-.544.86-1.331 1.29-2.381 1.29-.844 0-1.556-.3-2.138-.897-.6-.599-.881-1.328-.881-2.188 0-.86.3-1.59.881-2.188.6-.599 1.313-.898 2.138-.898 1.05 0 1.837.43 2.381 1.29V34.57Zm-3.956 6.92c.45.448.994.672 1.65.672.656 0 1.2-.224 1.65-.673.45-.449.675-.99.675-1.645s-.225-1.197-.675-1.646a2.238 2.238 0 0 0-1.65-.673c-.656 0-1.2.224-1.65.673-.45.449-.675.991-.675 1.646 0 .654.225 1.196.675 1.645Zm7.162-5.985a.538.538 0 0 1-.393.169.54.54 0 0 1-.394-.169.536.536 0 0 1-.169-.392c0-.15.056-.281.169-.393a.54.54 0 0 1 .394-.169c.15 0 .281.057.393.169a.536.536 0 0 1 .169.392c0 .15-.056.281-.169.393Zm-.787 7.275v-5.872h.769v5.853h-.769v.019Zm7.481-5.872h.769v5.628c0 .842-.281 1.515-.863 2.001-.581.486-1.274.73-2.081.73-1.387 0-2.306-.487-2.794-1.422l.675-.392c.357.71 1.05 1.066 2.1 1.066.675 0 1.2-.187 1.594-.543.394-.355.582-.841.582-1.44v-.916c-.544.86-1.332 1.29-2.382 1.29-.844 0-1.556-.299-2.137-.897-.6-.599-.882-1.328-.882-2.188 0-.86.3-1.59.882-2.188.6-.598 1.312-.898 2.137-.898 1.05 0 1.838.43 2.382 1.29v-1.121h.018Zm-3.975 4.581c.45.449.994.673 1.65.673.656 0 1.2-.224 1.65-.673.45-.449.675-.99.675-1.645s-.225-1.197-.675-1.646a2.238 2.238 0 0 0-1.65-.673c-.656 0-1.2.224-1.65.673-.45.449-.675.991-.675 1.646.019.654.244 1.196.675 1.645Zm7.181-5.984a.538.538 0 0 1-.393.169.54.54 0 0 1-.394-.169.54.54 0 0 1 0-.785.54.54 0 0 1 .394-.169c.15 0 .281.057.393.169a.536.536 0 0 1 .169.392c0 .15-.056.281-.169.393Zm-.787 7.275v-5.872h.769v5.853h-.769v.019Zm5.531-5.124h-1.687v3.553c0 .318.056.542.187.692.132.13.319.205.563.205.244 0 .562 0 .937-.018v.673c-.825.13-1.444.075-1.856-.168-.413-.244-.619-.711-.619-1.384v-3.553h-1.237v-.748h1.237v-1.403l.769-.243v1.646h1.687v.748h.019Zm6-.748h.769v5.853h-.769v-1.14c-.544.86-1.331 1.29-2.381 1.29-.844 0-1.556-.3-2.138-.898-.6-.599-.881-1.328-.881-2.188 0-.86.3-1.59.881-2.188.6-.598 1.313-.898 2.138-.898 1.05 0 1.837.43 2.381 1.29v-1.121Zm-3.956 4.581c.45.449.994.673 1.65.673.656 0 1.2-.224 1.65-.673.45-.449.675-.99.675-1.645s-.225-1.197-.675-1.646a2.238 2.238 0 0 0-1.65-.673c-.656 0-1.2.224-1.65.673-.45.449-.675.991-.675 1.646 0 .654.225 1.196.675 1.645Zm6.375 1.29v-8.564h.769v8.565h-.769Z"/><path clip-rule="evenodd" d="M80.869 12.41v15.97h2.962v-6.19h6.244v-2.954h-6.244v-3.871h6.431V12.41H80.87Zm48.506 15.97v-2.955h-6.862v-3.553h6.3v-2.954h-6.3v-3.553h6.862V12.41h-9.825v15.97h9.825Zm-12.394 0v-2.955h-6.862v-3.553h6.3v-2.954h-6.3v-3.553h6.862V12.41h-9.825v15.97h9.825Zm-11.887 0-3.881-6.414a4.897 4.897 0 0 0 3.412-4.656 4.91 4.91 0 0 0-4.912-4.9h-6.9v15.97h2.962v-6.19h2.231l3.75 6.19h3.338Zm-5.381-9.144h-3.938v-3.871h3.938c1.068 0 1.95.86 1.95 1.945-.019 1.047-.882 1.926-1.95 1.926Z"/></symbol><symbol viewBox="0 0 10 15" id="arrow-left"><path d="m1 8 7-7m.414 13-7-7" stroke="#758492" stroke-width="2"/></symbol><symbol viewBox="0 0 10 15" id="arrow-left-small"><path clip-rule="evenodd" d="m.293 7.293 7-7 1.414 1.414-5.586 5.586 6 6-1.414 1.414L.293 7.293Z"/></symbol><symbol viewBox="0 0 10 15" id="arrow-right"><path d="M9 8 2 1m-.414 13 7-7" stroke="#758492" stroke-width="2"/></symbol><symbol viewBox="0 0 10 15" id="arrow-right-small"><path clip-rule="evenodd" d="m9.707 7.293-7-7-1.414 1.414 5.586 5.586-6 6 1.414 1.414 7.414-7.414Z"/></symbol><symbol viewBox="0 0 15 10" id="arrow-top"><path clip-rule="evenodd" d="m7.293.293-7 7 1.414 1.414 5.586-5.586 6 6 1.414-1.414L7.293.293Z"/></symbol><symbol viewBox="0 0 10 11" id="calendar"><path clip-rule="evenodd" d="M2.346.032a.825.825 0 0 0-.55.497c-.037.093-.051.187-.06.384a.283.283 0 0 1-.27.27l-.068.003c-.28.011-.352.022-.508.074-.327.11-.586.327-.744.622-.16.296-.15.006-.143 4.277l.006 3.713c0 .086.016.17.047.25.137.35.356.59.684.75.277.134.065.128 4.26.128 4.195 0 3.983.006 4.26-.128.328-.16.547-.4.684-.75a.686.686 0 0 0 .047-.25l.006-3.713c.007-4.27.016-3.98-.142-4.279a1.463 1.463 0 0 0-.556-.544c-.202-.097-.362-.133-.67-.15a.295.295 0 0 1-.277-.284C8.34.572 8.296.44 8.138.27A.79.79 0 0 0 7.66.015a.812.812 0 0 0-.885.514c-.037.094-.05.188-.06.387a.275.275 0 0 1-.274.263h-.305A.266.266 0 0 1 5.87.927C5.856.624 5.82.496 5.703.337A.815.815 0 0 0 4.311.47c-.063.13-.068.158-.076.424a.293.293 0 0 1-.292.285h-.334a.232.232 0 0 1-.233-.232c0-.265-.035-.413-.135-.567A.793.793 0 0 0 2.723.02a.69.69 0 0 0-.377.01Zm.335.446c.085.036.18.131.211.214.015.039.024.352.024.876 0 .902 0 .904-.138 1.023-.185.159-.438.098-.545-.132-.037-.08-.04-.157-.04-.888-.001-.676.004-.814.033-.881.085-.2.273-.288.455-.212Zm2.574.046c.15.113.15.116.15 1.053 0 .934.004.916-.153 1.033a.34.34 0 0 1-.503-.106.393.393 0 0 1-.056-.202v-.73c0-.831 0-.838.05-.932.1-.189.341-.243.511-.116ZM7.66.478c.085.036.18.131.212.214.015.039.023.354.023.883 0 .817 0 .823-.05.916a.396.396 0 0 1-.305.193.38.38 0 0 1-.346-.275c-.03-.107-.03-1.579 0-1.686.06-.211.276-.325.466-.245ZM9.234 6.45c0 3.352-.001 3.38-.045 3.476a.516.516 0 0 1-.3.28c-.115.042-.172.043-3.889.043-3.717 0-3.774-.001-3.89-.043a.516.516 0 0 1-.299-.28C.767 9.83.767 9.802.766 6.45V4.07a1 1 0 0 1 1-1h6.468a1 1 0 0 1 1 1v2.38ZM1.456 4.43a9.522 9.522 0 0 0-.005.618.601.601 0 0 0 .596.595l.117.001.084.001a.619.619 0 0 0 .624-.619.624.624 0 0 0-.624-.623H2.17c-.546 0-.705.006-.713.027Zm1.899.596c0 .344.279.623.623.623h.157a.623.623 0 0 0 0-1.246h-.158a.623.623 0 0 0-.622.623Zm1.886 0c0 .344.28.623.624.623h.158a.623.623 0 1 0 0-1.246h-.158a.623.623 0 0 0-.624.623Zm1.887 0c0 .344.28.623.624.623h.185c.34 0 .615-.277.612-.617a.629.629 0 0 0-.624-.623l-.09-.001h-.083a.619.619 0 0 0-.624.618ZM1.456 6.085a9.522 9.522 0 0 0-.005.618.601.601 0 0 0 .596.595l.117.001h.084a.619.619 0 0 0 .624-.618.624.624 0 0 0-.624-.623H2.17c-.546 0-.705.006-.713.027Zm1.899.596c0 .344.279.623.623.623h.157a.623.623 0 0 0 0-1.246h-.158a.623.623 0 0 0-.622.623Zm1.886 0c0 .344.28.623.624.623h.158a.623.623 0 0 0 0-1.246h-.158a.623.623 0 0 0-.624.623Zm1.887 0c0 .344.28.622.624.619h.084l.095-.002a.617.617 0 0 0 0-1.234l-.095-.001h-.084a.619.619 0 0 0-.624.618ZM1.446 8.325c0 .338.274.613.612.613h.201a.612.612 0 1 0 0-1.225h-.2a.612.612 0 0 0-.613.612Zm1.909 0c0 .338.274.613.612.613h.18a.612.612 0 1 0 0-1.225h-.18a.613.613 0 0 0-.612.612Zm1.886 0c0 .338.275.613.613.613h.179a.612.612 0 1 0 0-1.225h-.18a.613.613 0 0 0-.612.612Zm1.887 0c0 .338.274.613.613.613h.2a.612.612 0 1 0 0-1.225h-.2a.613.613 0 0 0-.613.612Z"/></symbol><symbol viewBox="0 0 34 33" id="clock"><path clip-rule="evenodd" d="M15.178.039c-3.244.31-6.453 1.612-8.982 3.645-.79.635-2.178 2.054-2.76 2.823C1.7 8.798.633 11.334.182 14.242c-.162 1.04-.162 3.48 0 4.52.292 1.88.755 3.356 1.572 5.005.871 1.758 1.842 3.096 3.244 4.47 2.65 2.596 5.835 4.135 9.68 4.679.897.127 3.413.107 4.34-.035 2.51-.383 4.922-1.28 6.87-2.558 2.537-1.665 4.493-3.865 5.826-6.556.816-1.649 1.28-3.125 1.572-5.005.162-1.04.162-3.48 0-4.52-.292-1.88-.756-3.356-1.572-5.004-.871-1.759-1.843-3.097-3.245-4.47-1.376-1.348-2.637-2.234-4.394-3.088A16.52 16.52 0 0 0 19.084.135c-.82-.123-3.052-.178-3.906-.096Zm1.883 9.418v5.481l.169.042c.424.106.936.612 1.043 1.032l.042.166 4.055.017 4.055.017.02.401c.026.552-.073.87-.346 1.107-.456.396-.459.397-5.281.396-2.943 0-4.46-.023-4.632-.07-.341-.094-.916-.663-1.011-1.001-.049-.173-.071-2.089-.071-6.068 0-6.526-.016-6.29.455-6.758l.247-.244h1.255v5.482Z"/></symbol><symbol viewBox="0 0 26 26" id="close"><path clip-rule="evenodd" d="M10.172 13.172 0 3 2.828.172 13 10.343 23.172.172 26 3 15.828 13.172l10 10L23 26 13 16 3 26 .172 23.172l10-10Z"/></symbol><symbol viewBox="0 0 60 59" id="data"><path clip-rule="evenodd" d="M22.522.306c-.921.463-1.214 1.041-1.286 2.54l-.055 1.168H9.768l-.255.274c-.338.362-.33.912.015 1.24l.27.255 20.162.031c16.883.026 20.193.057 20.355.193.174.145.194.609.194 4.5 0 4.469.046 4.97.474 5.201.373.201.877.132 1.147-.158.252-.27.254-.312.254-4.904 0-5.045-.01-5.13-.68-5.85a3.02 3.02 0 0 0-.785-.558c-.444-.207-.977-.218-10.166-.22l-9.697-.004V2.89c0-.679-.063-1.278-.159-1.508C30.689.877 30 .28 29.448.125 29.194.053 27.757 0 26.07 0c-2.927 0-2.938 0-3.547.306Zm6.655 1.811c.066.126.121.604.121 1.063v.834h-6.211v-.92c0-.56.055-.978.14-1.063.102-.103.93-.142 2.985-.142 2.691 0 2.85.012 2.965.228ZM1.465 4.238A2.585 2.585 0 0 0 .183 5.575C.02 5.966 0 8.084 0 24.8c0 20.59-.047 19.22.68 20.001.686.738.914.777 4.564.78l3.31.003v1.253c0 1.44.175 1.905.906 2.41l.425.293 4.667.033c2.566.018 4.667.058 4.667.087 0 .03-.923 1.862-2.051 4.072-1.255 2.46-2.051 4.15-2.051 4.358 0 .52.358.885.865.885.235 0 .502-.077.594-.171.092-.094 1.195-2.19 2.451-4.659l2.284-4.487 4.856-.031 4.856-.03 2.292 4.518c1.434 2.827 2.4 4.6 2.584 4.74.513.39 1.367-.053 1.367-.71 0-.171-.923-2.131-2.051-4.356-1.128-2.224-2.05-4.077-2.05-4.117 0-.04 2.016-.074 4.482-.076 4.107-.002 4.521-.02 4.951-.22.985-.459 1.23-.98 1.23-2.62v-1.172h2.762c1.577 0 2.854-.05 2.976-.116.34-.183.474-.721.29-1.162-.086-.207-.172-.389-.192-.404-.019-.016-10.698-.056-23.732-.089-22.548-.057-23.708-.07-23.907-.27-.199-.201-.209-1.11-.209-18.743 0-17.626.01-18.543.21-18.743.182-.185.512-.218 2.675-.27 2.269-.054 2.48-.078 2.633-.288.256-.354.206-.932-.105-1.227-.262-.247-.364-.256-2.784-.254-2.194.002-2.571.03-2.98.221Zm35.783 5.02c-1.601.576-2.38 2.577-1.602 4.122l.226.45-2.366 3.344-2.366 3.343-.745-.06c-.668-.054-.825-.02-1.507.317l-.76.378-1.522-.863-1.52-.864-.005-.65c-.01-1.64-1.31-2.946-2.932-2.946-1.623 0-2.922 1.306-2.93 2.947l-.004.65-1.53.86-1.529.862-.713-.36c-1.112-.56-2.203-.467-3.159.268a2.947 2.947 0 0 0-.87 3.565c.529 1.128 1.462 1.736 2.66 1.736 1.637 0 2.91-1.257 2.917-2.88l.002-.672 1.585-.908c1.47-.842 1.6-.894 1.792-.72.799.729 2.757.731 3.554.005.184-.168.333-.109 1.776.712l1.575.896.006.63c.01 1.155.61 2.132 1.614 2.627 1.607.793 3.451.051 4.094-1.644.26-.684.188-1.785-.153-2.368l-.234-.4 2.375-3.349 2.375-3.348.732.04c.94.053 1.646-.213 2.29-.863.799-.804 1.07-1.964.703-3.01-.55-1.57-2.282-2.405-3.83-1.848Zm1.833 2.048c.533.538.312 1.531-.397 1.78-.478.168-.912.04-1.254-.37-.242-.29-.29-.445-.238-.77.16-.994 1.19-1.343 1.889-.64Zm5.269 5.153c-2.638.436-4.723 1.565-6.62 3.586-1.079 1.15-1.56 1.881-2.166 3.299-2.072 4.839-.678 10.381 3.45 13.708 2.338 1.886 5.773 2.82 8.692 2.364l1.005-.158 2.628 4.593c1.624 2.84 2.774 4.723 3.011 4.933.755.668 1.29.869 2.312.869.79 0 1.032-.05 1.542-.32 1.481-.782 2.179-2.627 1.584-4.192-.117-.31-1.307-2.464-2.642-4.789-1.336-2.324-2.457-4.299-2.49-4.388-.034-.088.206-.496.533-.905 1.65-2.064 2.61-5.173 2.424-7.851-.417-5.994-5.147-10.625-11.088-10.857-.71-.027-1.631.018-2.175.108Zm-21.434 1.544c.2.2.288.421.288.716 0 .57-.177.872-.625 1.06-.952.4-1.826-.469-1.43-1.423.195-.472.459-.635 1.035-.64.32-.002.526.079.732.287Zm25.535.468c1.78.499 3.01 1.184 4.264 2.372 1.448 1.372 2.374 2.993 2.848 4.983.311 1.31.256 3.383-.127 4.738-1.62 5.73-7.958 8.69-13.32 6.221a9.655 9.655 0 0 1-4.788-4.821c-.637-1.403-.819-2.302-.816-4.036.005-2.677.766-4.679 2.5-6.574 1.437-1.571 3.034-2.48 5.286-3.007.861-.202 3.245-.13 4.153.124Zm-3.977 1.18c-2.665.624-4.743 2.233-5.866 4.544-2.026 4.168-.325 9.201 3.815 11.288 1.67.842 3.807 1.1 5.513.666 2.679-.682 4.635-2.267 5.729-4.641.799-1.734 1.009-3.378.664-5.193-.315-1.655-.769-2.461-1.387-2.461-.892 0-1.129.568-.718 1.728.36 1.016.483 2.578.285 3.607-.455 2.375-2.436 4.503-4.759 5.112-.875.23-2.387.232-3.252.005-2.846-.747-4.887-3.403-4.887-6.358 0-1.779.578-3.227 1.818-4.552 1.357-1.449 3.012-2.095 5.096-1.99 1.236.063 1.988.299 3.097.972.854.518 1.354.544 1.708.09.322-.413.24-.933-.206-1.3-.487-.403-1.784-1.061-2.622-1.332-.983-.319-3.05-.413-4.028-.185Zm-29.807 2.795c.308.166.563.791.487 1.192-.16.845-1.316 1.174-1.865.531-.82-.962.267-2.322 1.378-1.723Zm16.314.184c.536.54.393 1.406-.293 1.764-.914.476-1.93-.549-1.456-1.47.23-.45.48-.597 1.017-.602.304-.002.51.084.732.308Zm-11.24 3.994-.287.29v13.011l.288.29c.284.286.313.29 2.407.29 2.095 0 2.124-.004 2.408-.29l.288-.29V26.914l-.288-.29c-.284-.287-.313-.29-2.408-.29-2.094 0-2.123.003-2.407.29Zm3.229 6.795v5.196h-1.64V28.223h1.64v5.196Zm-11.09-2.46c-.482.235-.512.516-.512 4.833v4.133l.288.29c.284.286.313.29 2.407.29 2.095 0 2.124-.004 2.408-.29l.288-.29v-4.188c0-2.303-.033-4.274-.073-4.379-.167-.439-.66-.537-2.646-.529-1.058.005-2.022.063-2.16.13Zm16.188-.001c-.528.29-.528.29-.528 4.766v4.267l.271.257c.258.244.376.257 2.39.257 1.91 0 2.145-.022 2.395-.226l.276-.226.034-4.266.033-4.267-.346-.35-.347-.349-1.972.004c-1.2.002-2.064.054-2.207.133Zm-13.184 4.705v2.952h-1.641v-5.904h1.64v2.952Zm16.172 0v2.952h-1.758v-5.904h1.758v2.952Zm4.805.709c-.213.214-.235.393-.235 1.928 0 2.32-.136 2.206 2.645 2.201 1.538-.003 2.155-.045 2.302-.157.307-.236.457-.735.325-1.085-.18-.477-.754-.644-2.221-.644h-1.293v-.981c0-.825-.038-1.023-.239-1.24-.31-.336-.962-.347-1.284-.023Zm19.917 5.293c2.553 4.473 2.607 4.607 2.187 5.426-.234.454-.731.735-1.303.735-.73 0-1.06-.273-1.744-1.448-1.547-2.652-4.406-7.686-4.38-7.71.017-.013.346-.187.733-.385.387-.199.967-.543 1.29-.766.518-.359.6-.383.71-.214.07.105 1.197 2.068 2.507 4.362Zm-13.824 4.981v1.063l-15.79-.03-15.792-.03-.034-1.033-.034-1.033h31.65v1.063Z"/></symbol><symbol viewBox="0 0 51 51" id="documents"><path clip-rule="evenodd" d="M10.35.079C8.727.349 7.325 1.64 6.905 3.25c-.12.462-.142 3.457-.142 19.86v19.316H3.731c-2.01 0-3.114.037-3.275.11-.451.206-.48.392-.446 2.886l.032 2.337.319.673c.624 1.32 1.835 2.247 3.216 2.463.861.135 36.067.14 36.887.006 1.754-.288 3.228-1.693 3.545-3.38.141-.748.135-8.633-.006-8.898-.06-.11-.259-.264-.444-.341-.386-.162-.686-.085-.992.256-.191.212-.201.398-.25 4.571-.048 4.218-.056 4.363-.264 4.75-.808 1.498-2.76 1.79-3.958.592-.68-.682-.757-1.025-.757-3.409V43.01l-.29-.292-.292-.291H8.454l.027-19.312.026-19.312.287-.584a2.705 2.705 0 0 1 1.487-1.327c.238-.088 4.394-.119 16.575-.125 8.942-.004 16.258.008 16.258.027 0 .018-.132.299-.294.623-.458.918-.512 1.582-.48 5.886.026 3.74.036 3.911.227 4.123.283.314.588.408.936.287.557-.195.607-.393.607-2.378V8.538h6.19l.3-.3.298-.3-.036-2.316c-.035-2.14-.055-2.362-.268-2.9-.433-1.093-1.36-1.984-2.576-2.475l-.571-.232L29.172.001C18.472-.007 10.67.025 10.349.08Zm37.398 1.957c.414.213.774.564 1.1 1.07.166.258.197.523.225 1.968l.034 1.67H44.11l.001-1.371c0-.754.05-1.546.108-1.76.22-.794.773-1.38 1.63-1.727.426-.173 1.424-.094 1.9.15ZM10.15 7.641v.897h27.188V6.744H10.15v.897Zm0 3.389v.897h27.188v-1.795H10.15v.898Zm21.388 7.85c-5.65 5.655-6.25 6.286-6.25 6.573 0 .192.095.428.24.597l.24.28 1.95.03 1.952.031.003 4.804c.003 5.065-.004 4.986.463 5.235.16.086 2.274.116 7.997.116 8.565 0 8.236.024 8.456-.61.075-.214.11-1.81.11-4.93v-4.614l1.885-.031c1.837-.03 1.891-.038 2.141-.273.422-.397.358-.864-.191-1.403l-.448-.44v-2.756c0-1.759-.04-2.87-.11-3.072-.192-.548-.452-.61-2.582-.61H45.49l-.29.292c-.183.182-.292.395-.292.568 0 .242-.395-.117-3.171-2.883-3.075-3.063-3.184-3.16-3.56-3.16-.38 0-.51.122-6.638 6.256ZM10.15 14.419v.896h22.906v-1.794H10.15v.897Zm31.322 3.698c1.807 1.814 3.46 3.429 3.674 3.588.436.324.751.362 1.102.133.325-.213.452-.636.452-1.504v-.732h1.593V24.57l-1.453.032c-1.451.032-1.453.032-1.693.312l-.24.28v9.558h-3.266l-.038-2.368c-.044-2.644-.104-2.923-.787-3.606-.584-.584-1.079-.743-2.447-.787-1.937-.06-2.834.343-3.386 1.527-.223.478-.232.596-.233 2.866l-.001 2.367h-3.386v-9.634l-.257-.241c-.239-.225-.344-.244-1.51-.275l-1.253-.034 4.87-4.875c2.68-2.682 4.894-4.876 4.922-4.876.028 0 1.53 1.485 3.337 3.3Zm-31.322-.26v.848h19.52V17.01H10.15v.847Zm25.904 1.78c-.451.257-.501.492-.505 2.385-.004 1.994.075 2.348.568 2.552.21.087.853.114 2.2.092 2.544-.041 2.348.165 2.388-2.513l.03-2.029-.245-.286-.246-.286-1.976-.025c-1.516-.019-2.03.007-2.214.11Zm-25.904 1.61v.846h16.134V20.4H10.15v.847Zm28.782.846v.798h-1.594V21.296h1.594v.797ZM10.15 24.635v.847h14.44v-1.694H10.15v.847Zm0 3.389v.847h14.44v-1.694H10.15v.847Zm29.22 1.858c.396.18.458.56.458 2.792v2.078h-3.4l.032-2.251.032-2.252.28-.24c.256-.221.363-.24 1.314-.24.57 0 1.147.05 1.284.113Zm-29.22 1.531v.847h14.44v-1.694H10.15v.847Zm.021 3.414.029.872 7.195.026 7.196.025v-1.795H10.142l.03.872Zm-.02 3.415v.898l5.103-.026 5.104-.026.029-.872.029-.872H10.15v.898Zm10.996-.764c-.028.073-.038.466-.022.872l.03.738 1.718.027 1.718.027v-1.799h-1.696c-1.328 0-1.708.03-1.748.135Zm14.4 8.064c.002 1.5.17 2.468.543 3.137.139.248.252.468.252.489 0 .02-7.338.037-16.307.036l-16.308-.001-.498-.236a3.274 3.274 0 0 1-.817-.572c-.554-.585-.656-.97-.706-2.654l-.045-1.52H35.546l.001 1.32Z"/></symbol><symbol viewBox="0 0 6 7" id="faq-arrow"><path d="M5.5 4.366a1 1 0 0 0 0-1.732L1.75.469a1 1 0 0 0-1.5.866v4.33a1 1 0 0 0 1.5.866L5.5 4.366Z"/></symbol><symbol viewBox="0 0 34 36" id="floors"><path clip-rule="evenodd" d="M15.9.1a6.184 6.184 0 0 0-1.632.545C14.073.743 11.105 2.38 7.67 4.28 1.101 7.918 1.031 7.961.538 8.721a3.418 3.418 0 0 0-.468 2.502c.25 1.181.799 1.863 2.06 2.561.45.25.82.474.82.5.002.025-.339.23-.757.457-.95.512-1.464.999-1.82 1.721-.667 1.355-.406 2.94.657 3.99.263.26.665.538 1.163.807.418.226.76.432.758.457-.002.026-.37.25-.82.5-1.264.699-1.81 1.373-2.057 2.538-.322 1.52.417 3.001 1.9 3.813.246.135 3.05 1.685 6.23 3.446 3.18 1.76 5.941 3.28 6.136 3.376 1.684.833 3.685.813 5.427-.054.712-.354 1.064-.82 1.064-1.404 0-1.09-1.17-1.704-2.211-1.16-.793.414-1.63.521-2.435.313-.298-.077-2.258-1.125-6.8-3.64-5.766-3.19-6.391-3.553-6.479-3.76-.123-.291-.06-.536.188-.744.108-.09.791-.489 1.518-.886l1.32-.723 4.213 2.33c2.317 1.281 4.4 2.405 4.63 2.497.623.252 1.423.392 2.225.392 1.129 0 2.063-.242 3.077-.796.24-.131 2.08-1.15 4.089-2.263a399.146 399.146 0 0 1 3.795-2.087c.114-.052.409.083 1.49.682.741.41 1.417.81 1.502.889.209.194.257.435.142.709-.086.204-.446.422-3.276 1.987-2.934 1.623-3.195 1.782-3.376 2.063-.394.612-.33 1.244.174 1.744.28.278.662.447 1.01.448.283.001.638-.168 2.405-1.147l3.107-1.719c.801-.442 1.485-.874 1.713-1.08a3.425 3.425 0 0 0 .204-4.917c-.265-.285-.596-.521-1.186-.848-.45-.248-.818-.47-.82-.491-.001-.021.34-.227.757-.457.952-.523 1.469-1.015 1.821-1.73.496-1.006.496-2.068 0-3.075-.352-.714-.87-1.206-1.82-1.729-.419-.23-.76-.436-.758-.457.002-.021.37-.243.82-.492.59-.326.92-.562 1.186-.847a3.425 3.425 0 0 0-.201-4.914c-.274-.249-1.511-.97-4.48-2.613a8814.711 8814.711 0 0 1-6.16-3.412A121.513 121.513 0 0 0 19.732.646 6.153 6.153 0 0 0 15.9.1Zm1.92 2.816c.302.078 2.106 1.04 6.346 3.386 7.523 4.162 6.854 3.77 6.949 4.056.102.307.012.543-.294.766-.374.274-12.243 6.815-12.718 7.01-.613.25-1.59.25-2.202 0-.234-.096-1.862-.97-3.618-1.943a3931.68 3931.68 0 0 0-5.995-3.312c-1.541-.85-2.928-1.635-3.08-1.746-.349-.252-.439-.493-.304-.81.09-.216.648-.54 6.487-3.77 4.027-2.228 6.528-3.571 6.768-3.635a3.476 3.476 0 0 1 1.66-.002Zm-7.588 15.363c2.991 1.656 4.424 2.411 4.838 2.549.846.282 1.763.38 2.601.278 1.116-.136 1.662-.366 4.199-1.772l4.271-2.364 1.94-1.074 1.394.774c.767.426 1.458.837 1.535.912.19.186.19.65 0 .837-.225.222-12.578 7.031-13.029 7.181-.55.184-1.412.184-1.963 0-.225-.075-.918-.42-1.54-.765a22316.975 22316.975 0 0 1-9.006-4.985c-1.287-.713-2.404-1.358-2.481-1.433-.19-.185-.19-.649 0-.835.149-.145 2.877-1.69 2.95-1.669.023.007 1.954 1.071 4.291 2.366Z"/></symbol><symbol viewBox="0 0 53 53" id="free"><path clip-rule="evenodd" d="M18.836.973c-.4.186-.614.426-2.695 3.01a175.338 175.338 0 0 1-1.87 2.302c-.06.064-1.483.33-3.16.59-1.677.262-3.21.524-3.405.582-.501.15-.976.636-1.107 1.134-.062.232-.32 1.748-.573 3.368a225.84 225.84 0 0 1-.483 3.019c-.013.04-1.163 1-2.557 2.133C1.592 18.245.357 19.301.242 19.46c-.421.574-.318 1.047.936 4.291.627 1.624 1.14 3.018 1.14 3.099 0 .08-.513 1.472-1.14 3.092-1.255 3.239-1.358 3.71-.936 4.285.115.158 1.35 1.215 2.744 2.348 1.394 1.134 2.544 2.094 2.557 2.134.012.04.23 1.398.483 3.019.254 1.62.511 3.136.573 3.368.12.456.594.979 1.005 1.11.14.044 1.682.311 3.428.595l3.173.514 2.062 2.533c1.133 1.393 2.19 2.628 2.348 2.743.572.42 1.047.315 4.29-.936 1.623-.627 3.02-1.14 3.103-1.14.083 0 1.454.504 3.046 1.12 1.592.615 3.079 1.146 3.304 1.179.874.128 1.011.001 3.892-3.579l1.557-1.935 3.068-.481c1.687-.265 3.228-.53 3.423-.589.418-.126.893-.537 1.038-.896.056-.14.337-1.703.625-3.474l.523-3.22 2.534-2.063c1.394-1.135 2.63-2.192 2.745-2.35.421-.575.318-1.047-.936-4.285-.628-1.62-1.142-3.012-1.141-3.092 0-.08.508-1.47 1.13-3.09.621-1.618 1.152-3.108 1.179-3.31.111-.83-.048-1.002-3.589-3.848l-1.934-1.555-.484-3.067c-.267-1.687-.533-3.236-.593-3.443-.133-.457-.618-.935-1.097-1.08-.195-.059-1.736-.324-3.423-.588l-3.068-.482-1.557-1.935C33.37.871 33.232.745 32.358.873c-.225.033-1.712.563-3.304 1.179-1.592.615-2.963 1.12-3.046 1.12-.084 0-1.48-.51-3.103-1.133C21.282 1.417 19.771.89 19.547.87c-.223-.02-.543.026-.711.104Zm-6.595 18.002c.533.399.7.723.7 1.366 0 .642-.167.967-.7 1.365-.234.175-.462.215-1.391.244l-1.111.034V25.2l1.11.035c1.201.037 1.428.125 1.882.733.294.394.294 1.358 0 1.751-.454.608-.681.697-1.877.734l-1.106.034-.03 2.727c-.028 2.57-.042 2.743-.24 3.007-.398.533-.723.7-1.366.7-.643 0-.967-.167-1.366-.7-.207-.277-.21-.368-.21-7.367v-7.087l.273-.357c.502-.657.69-.698 3.05-.67 1.941.025 2.123.043 2.382.236Zm10.422.011c3.43 1.213 4.429 5.487 1.872 8.01-.373.367-.869.728-1.252.91-.35.166-.635.328-.635.361 0 .033.731 1.04 1.626 2.236 1.666 2.23 1.813 2.509 1.685 3.194-.193 1.026-1.565 1.588-2.454 1.005-.153-.1-1.115-1.296-2.137-2.657l-1.86-2.477-.031 2.186c-.029 2.023-.047 2.207-.24 2.466-.4.533-.724.7-1.367.7-.642 0-.967-.167-1.366-.7-.207-.277-.21-.368-.21-7.367v-7.087l.273-.357c.513-.672.67-.704 3.235-.663 1.966.032 2.367.065 2.861.24Zm12.147-.104c.194.091.475.328.625.525.359.47.39 1.373.065 1.809-.455.608-.681.697-1.882.734l-1.11.034v3.233h.975c1.132 0 1.533.143 1.953.692.358.47.39 1.373.064 1.809-.455.608-.681.697-1.882.734l-1.11.034v3.233h.975c1.132 0 1.533.143 1.953.692.358.47.39 1.373.064 1.81-.517.692-.548.699-2.992.699-2.445 0-2.476-.008-2.993-.7-.207-.277-.21-.368-.21-7.367v-7.087l.273-.357c.485-.636.71-.689 2.914-.691 1.616-.002 2.03.027 2.318.164Zm9.758 0c.194.091.475.328.626.525.358.47.39 1.373.064 1.809-.455.608-.68.697-1.882.734l-1.11.034v3.233h.975c1.132 0 1.533.143 1.953.692.358.47.39 1.373.064 1.809-.455.608-.68.697-1.882.734l-1.11.034v3.233h.975c1.132 0 1.533.143 1.953.692.358.47.39 1.373.064 1.81-.517.692-.548.699-2.992.699-2.445 0-2.475-.008-2.993-.7-.206-.276-.21-.394-.24-7.156-.02-4.524.005-7 .075-7.237.115-.396.4-.707.87-.952.457-.238 4.087-.232 4.59.007Zm-25.071 4.71v1.643l1.11-.034c.93-.029 1.158-.069 1.392-.244.443-.331.667-.697.721-1.179.067-.59-.155-1.1-.638-1.468-.359-.274-.453-.295-1.484-.327l-1.101-.035v1.644Z"/></symbol><symbol viewBox="0 0 45 45" id="house-sale"><path clip-rule="evenodd" d="M21.877.103C21.449.303.387 18.178.18 18.517c-.24.393-.24 1.111 0 1.562.344.647 1.266.971 1.984.698.152-.058.81-.558 1.464-1.112l1.188-1.007v11.04c0 12.01-.02 11.559.564 12.71.359.709 1.231 1.599 1.935 1.974 1.22.65.418.618 15.185.618 14.767 0 13.964.032 15.185-.618.703-.375 1.576-1.265 1.935-1.974.584-1.151.564-.7.564-12.71v-11.04l1.188 1.007c.654.554 1.312 1.054 1.463 1.112.72.273 1.64-.051 1.985-.698.241-.454.24-1.169-.003-1.567-.155-.254-20.073-17.217-21.342-18.175-.438-.33-1.163-.437-1.598-.234ZM17.221 17.82c2.573.67 4.172 3.308 3.521 5.806-.674 2.59-3.303 4.19-5.809 3.538-2.584-.673-4.188-3.308-3.536-5.81.676-2.597 3.303-4.19 5.824-3.534Zm12.59 1.723c.631.472.884 1.264.612 1.917-.075.178-3.116 3.677-6.759 7.774-4.967 5.588-6.711 7.487-6.98 7.599-.966.404-2.076-.25-2.193-1.293-.029-.255.007-.575.086-.764.2-.479 13.31-15.192 13.69-15.364.412-.186 1.21-.119 1.544.131Zm-14.4 1.48c-1.013.442-1.253 1.79-.459 2.585 1.13 1.129 2.98.117 2.682-1.467-.178-.947-1.308-1.515-2.223-1.117Zm14.67 8.053a4.906 4.906 0 0 1 3.522 3.533c.65 2.5-.948 5.136-3.522 5.806-2.514.655-5.148-.937-5.82-3.518-.895-3.439 2.383-6.717 5.82-5.821Zm-1.809 3.203c-1.013.442-1.253 1.79-.459 2.584 1.129 1.129 2.979.118 2.682-1.466-.178-.948-1.309-1.516-2.223-1.118Z"/></symbol><symbol viewBox="0 0 43 46" id="house-search"><path clip-rule="evenodd" d="M19.613.044c-.816.297-1.217.651-10.047 8.886C-.41 18.233.07 17.733.005 18.887c-.063 1.116.473 2.067 1.453 2.577.621.323 1.68.34 2.304.036.28-.136 3.004-2.613 8.422-7.658l8.01-7.457.27.256c.148.14 3.733 3.497 7.966 7.457 5.24 4.902 7.828 7.265 8.109 7.402.59.287 1.674.284 2.272-.007.542-.263 1.173-.964 1.357-1.507.274-.808.143-1.825-.32-2.477-.108-.153-4.211-4.04-9.118-8.637C24.452 2.99 21.675.444 21.36.284c-.438-.224-1.421-.359-1.747-.24Zm10.726 2.922c-.187.1-.419.311-.515.47-.373.615-.513.45 3.813 4.51 2.605 2.444 4.006 3.7 4.037 3.618.026-.068.035-1.84.02-3.937-.025-3.625-.035-3.828-.206-4.118a1.994 1.994 0 0 0-.432-.495c-.244-.183-.358-.19-3.315-.21-2.923-.019-3.078-.012-3.402.162Zm-17.133 13.62c-3.843 3.584-7.201 6.66-7.461 6.838l-.473.323.025 7.93c.024 7.746.029 7.938.204 8.236.098.168.293.39.432.495l.253.19 11.574.022 11.575.023-.583-.515c-1.993-1.76-2.507-2.453-2.704-3.645l-.1-.603-.92-.767-.92-.766-.406.174c-3.431 1.477-7.596.594-10.231-2.168a9.526 9.526 0 0 1-2.39-4.234c-.173-.638-.201-.962-.201-2.316 0-1.354.028-1.678.202-2.316.481-1.768 1.238-3.06 2.567-4.384 1.836-1.829 3.942-2.696 6.546-2.696 2.605 0 4.711.867 6.547 2.696 1.328 1.323 2.083 2.606 2.56 4.352.267.978.332 2.951.128 3.924l-.15.717.365.328c.2.18.64.555.978.832.517.425.654.497.872.453.762-.15 2.174.364 2.972 1.085.244.22.469.374.5.343.032-.032.057-1.703.057-3.715v-3.657l-.425-.305c-.32-.229-11.61-10.716-14.045-13.045l-.359-.343-6.989 6.515Zm5.66 2.613c-2.594.583-4.53 2.438-5.17 4.954-.238.933-.239 2.365-.002 3.295a6.777 6.777 0 0 0 4.713 4.846c1.009.29 2.568.29 3.576 0a6.777 6.777 0 0 0 4.713-4.846c.237-.928.237-2.362 0-3.29-.591-2.321-2.382-4.175-4.665-4.83-.894-.257-2.338-.316-3.166-.13Zm9.015 11.98c-.158.234-.537.7-.84 1.038-.305.337-.518.644-.474.682.119.104 2.316 1.927 2.344 1.945.013.009-.037.133-.112.276-.163.314-.177.928-.028 1.256.158.347 9.872 9.087 10.42 9.374.616.323 1.673.335 2.308.026.542-.264 1.173-.965 1.357-1.508.294-.865.127-1.927-.403-2.573-.489-.595-9.952-9.072-10.282-9.21a1.237 1.237 0 0 0-1.205.158c-.224.166-.275.174-.406.063-.909-.772-2.34-1.956-2.362-1.954-.016.001-.158.193-.317.427Z"/></symbol><symbol viewBox="0 0 51 51" id="key"><path clip-rule="evenodd" d="M29.185.024c-3.097.56-5.498 2.082-7.106 4.502-2.594 3.906-2.136 9.23 1.084 12.581l.624.65.046 2.541c.041 2.325.067 2.624.3 3.503.337 1.273.712 2.022 1.317 2.631.559.563 1.02.747 1.854.74 1.39-.012 2.334-.862 2.93-2.638.281-.84.446-2.242.32-2.727-.083-.322-.49-.612-.859-.612-.108 0-.328.111-.49.247-.258.218-.301.334-.362.972-.138 1.447-.583 2.59-1.122 2.879-.9.482-1.578-.362-1.981-2.468-.198-1.034-.221-3.999-.046-5.766.393-3.954 1.559-6.684 3.265-7.648.676-.381.867-.658.78-1.125-.138-.738-1.01-.851-1.967-.256l-.506.315.06-.303c.263-1.314 2.153-1.64 2.927-.507.519.761.388 1.487-.418 2.313-.564.578-.648.812-.435 1.211.528.993 1.902.329 2.634-1.272.48-1.05.286-2.502-.458-3.443-1.559-1.97-4.707-1.597-5.759.682-.34.738-.404 1.69-.165 2.453l.175.554-.397.871c-.62 1.359-.896 2.235-1.17 3.706-.086.462-.173.856-.193.876-.056.056-.7-.954-1.043-1.637a11.27 11.27 0 0 1-.573-1.496c-.352-1.18-.373-3.045-.047-4.266 1.01-3.782 4.271-6.332 8.118-6.345 2.512-.009 4.525.858 6.256 2.694 3.388 3.595 2.914 9.366-1.02 12.418a8.22 8.22 0 0 1-3.45 1.601c-.884.188-2.597.183-3.422-.01-1.26-.294-1.548-.295-1.835-.007a.802.802 0 0 0-.256.588c0 .518.231.748.975.97 3.983 1.185 8.437-.307 10.998-3.685.697-.92 1.43-2.463 1.728-3.638.718-2.832.221-5.712-1.41-8.183C38.08 2.962 36.15 1.377 34.474.7 33.24.2 32.408.041 30.878.01c-.794-.017-1.556-.011-1.693.014ZM8.76 7.033l-.29.291v2.807H2.31l-.307.258-.306.258v38.658h-.602c-.507 0-.641.04-.847.245a.853.853 0 0 0 0 1.205L.494 51h50.012l.245-.245a.852.852 0 0 0 0-1.205l-.245-.245H37.451V45.82l.274-.064c.977-.23 2.225-1.3 2.683-2.299.402-.876.47-1.564.34-3.464-.3-4.431-1.118-7.268-2.486-8.628-1.068-1.06-2.252-1.09-3.352-.083-1.304 1.193-2.188 4.05-2.532 8.185-.2 2.412-.116 3.212.447 4.247.484.89 1.652 1.822 2.56 2.04l.273.066v3.488l-3.361-.026-3.361-.026-.05-10.002-.05-10.002-.235-.19a.85.85 0 0 0-1.145.072l-.263.262v19.91l-11.876-.025-11.876-.025-.025-18.666-.025-18.665h3.042c3.369 0 3.515-.024 3.72-.61.06-.174.11-.87.11-1.548V8.536h3.787c3.041 0 3.854-.028 4.125-.141.62-.26.74-.884.262-1.362l-.291-.291H9.052l-.29.291Zm3.693 3.168c-.727.268-.742 1.317-.023 1.615.203.084 1.083.11 3.05.089l2.766-.03.24-.28c.333-.386.315-.808-.05-1.173l-.291-.291-2.772.008c-1.524.004-2.838.032-2.92.063ZM5.618 13.62c-.574.231-.698.949-.243 1.404.252.252.366.291.847.291h.555v4.984h-.401c-1.114 0-1.695.865-1.03 1.532.225.224.349.263.847.263h.584v5.083h-.584c-.498 0-.622.039-.846.263-.343.343-.35.81-.019 1.168.212.23.323.264.847.264h.602v5.084h-.555c-.481 0-.595.038-.847.29-.362.364-.383.788-.057 1.167.196.228.332.28.847.316l.612.045v4.936l-.612.044c-.515.038-.65.088-.847.317-.326.379-.305.803.057 1.166.252.252.366.291.847.291h.555v2.2c0 2.227.037 2.485.39 2.756.264.203.769.15 1.073-.113l.28-.24.032-2.301.031-2.302h3.263l.03 2.302.03 2.301.28.24c.357.308.777.308 1.134 0l.279-.24.03-2.301.03-2.302h3.263l.031 2.302.032 2.301.28.24c.305.263.81.316 1.073.113.353-.271.39-.53.39-2.756v-2.2h3.386v4.594l.244.245c.338.338.839.33 1.186-.018l.263-.263v-4.558h.505c.805 0 1.18-.285 1.185-.905.005-.538-.344-.816-1.094-.87l-.596-.043v-4.936l.596-.043c.75-.055 1.099-.332 1.094-.87-.006-.62-.38-.905-1.186-.905h-.504v-2.542c0-2.395.01-2.542.182-2.542.305 0 .654-.461.654-.863 0-.268-.069-.419-.274-.595-.15-.13-.339-.237-.418-.237a.144.144 0 0 1-.144-.144c0-.079-.106-.267-.236-.418-.176-.206-.327-.275-.595-.275-.401 0-.862.35-.862.655 0 .17-.12.182-1.693.182h-1.693v-5.083h1.43c1.413 0 1.434-.004 1.693-.263a.88.88 0 0 0 .155-1.048c-.195-.365-.692-.484-2.03-.484h-1.248V15.34l.406-.054c.688-.092 1.023-.602.78-1.188-.245-.594-.05-.579-7.38-.572-3.687.004-6.799.045-6.916.093Zm6.238 4.187v2.492H8.57v-4.984h3.286v2.492Zm5.08 0v2.492h-3.287v-4.984h3.286v2.492ZM40.74 16.01a.895.895 0 0 0-.21.98c.063.152 2.062 2.226 4.443 4.608l4.329 4.332v2.941h-1.528c-1.95 0-1.858.08-1.858-1.613 0-1.217-.007-1.257-.263-1.513-.224-.224-.348-.262-.846-.262h-.584v-.505c0-.526-.121-.856-.39-1.062-.104-.08-.584-.123-1.412-.125-1.625-.004-1.584.036-1.584-1.536 0-1.826-.139-1.954-2.11-1.955-.586 0-1.09-.042-1.122-.093-.114-.184-.634-.221-.933-.067-.625.324-.59 1.124.076 1.684.3.253.38.27 1.308.27h.988v.902c0 1.07.077 1.25.831 1.965l.551.522h1.98l.044.596c.06.848.31 1.098 1.093 1.098h.58v.841c0 .463.048.967.105 1.122.161.428 1.085 1.316 1.487 1.428.193.053 1.26.097 2.37.098 2.148 0 2.584-.075 2.803-.483.068-.129.107-1.093.107-2.673v-2.471l-4.608-4.613-4.608-4.612h-.422c-.286 0-.483.063-.617.196Zm-28.884 8.625v2.542H8.57v-5.083h3.286v2.541Zm5.08 0v2.542h-3.287v-5.083h3.286v2.541Zm-5.08 6.779v2.542H8.57V28.87h3.286v2.542Zm5.08 0v2.542h-3.287V28.87h3.286v2.542Zm5.155.025.026 2.517H18.728v-5.089l1.668.027 1.668.028.027 2.517Zm15.087 1.307c.902.999 1.7 4.39 1.837 7.81.05 1.259.034 1.532-.117 1.929-.48 1.255-1.815 1.908-3.147 1.538-.513-.143-1.18-.758-1.45-1.34-.197-.423-.235-.664-.235-1.508-.003-2.72.656-6.264 1.46-7.852.535-1.057 1.055-1.239 1.652-.577ZM11.856 38.24v2.492H8.57v-4.984h3.286v2.492Zm5.08 0v2.492h-3.287v-4.984h3.286v2.492Zm5.178 0v2.492h-3.386v-4.984h3.386v2.492Z"/></symbol><symbol viewBox="0 0 37 34" id="ladder"><path clip-rule="evenodd" d="M14.38 7.114 3 14.227H0v2.189h2.168v11.017H0V34h37V14.227h-2.168V2.188H37V0H25.763L14.38 7.114Zm18.284 1.094v6.02h-5.492V2.188h5.492v6.02Zm-7.66.438v5.581h-2.168V18.678h-3.252V6.448l2.692-1.687c1.48-.928 2.7-1.69 2.71-1.692.01-.003.018 2.507.018 5.577Zm-7.588 4.596v5.436h-2.168v4.378h-3.252V11.19l2.692-1.687c1.48-.929 2.7-1.69 2.71-1.693.01-.002.018 2.442.018 5.431Zm-7.605 4.579-.019 5.198-1.102.02-1.102.02V27.434H4.335l.019-5.738.018-5.738 2.669-1.667c1.468-.917 2.696-1.668 2.728-1.668.033 0 .052 2.34.042 5.199Zm25.003 6.311.019 7.68H2.168v-2.19h7.66V25.245h7.588v-4.378h7.588V18.69c0-1.197.022-2.199.049-2.226.026-.027 2.23-.04 4.896-.03l4.847.019.018 7.679Z"/></symbol><symbol viewBox="0 0 34 33" id="phone"><path clip-rule="evenodd" d="M17.279.039c0 .036-.073.564-.163 1.174-.09.61-.163 1.16-.163 1.223 0 .092.096.129.505.194 2.002.315 4.403 1.25 6.144 2.39 1.071.703 1.75 1.247 2.636 2.113 2.298 2.245 3.807 4.962 4.506 8.11.123.553.161.643.269.634.323-.027 2.348-.368 2.389-.402.025-.021-.025-.36-.11-.752C32.06 9.093 28.286 4.31 23.072 1.774 21.42.97 19.753.415 18.191.15a20.44 20.44 0 0 1-.765-.141c-.08-.02-.147-.006-.147.03ZM5.171 3.213c-.628.129-.915.35-2.59 1.99-.893.875-1.722 1.74-1.843 1.924-1.17 1.782-.82 4.737 1.034 8.713 2.076 4.45 5.81 8.942 10.094 12.14 2.522 1.883 5.529 3.505 8.022 4.328 2.06.68 3.997.871 5.23.519.924-.264 1.13-.418 2.968-2.228 1.548-1.524 1.728-1.724 1.92-2.13.18-.381.21-.52.21-.939 0-.418-.03-.557-.21-.939-.195-.414-.388-.622-2.572-2.777-1.924-1.898-2.427-2.36-2.72-2.498-.494-.234-.962-.312-1.386-.233-.703.13-.965.324-2.6 1.916-.847.825-1.59 1.5-1.651 1.5-.159 0-1.696-.784-2.289-1.166-2.304-1.488-4.922-4.01-6.597-6.354-.576-.806-.846-1.254-1.23-2.041-.239-.488-.296-.666-.261-.806.029-.115.576-.708 1.538-1.665 1.334-1.328 1.514-1.532 1.694-1.925.342-.745.269-1.456-.224-2.187-.124-.185-1.233-1.33-2.464-2.542-2.009-1.98-2.28-2.225-2.661-2.398-.466-.213-.994-.288-1.412-.202Zm11.762 3.54c-.09.467-.328 2.33-.301 2.356.017.017.265.079.551.137A8.85 8.85 0 0 1 24 15.815c.067.28.131.514.142.523.03.024 2.464-.396 2.5-.432.04-.04-.071-.587-.241-1.18-1.177-4.106-4.676-7.258-8.935-8.049l-.5-.092-.032.168Z"/></symbol><symbol viewBox="0 0 33 36" id="platen"><path clip-rule="evenodd" d="M4.025.104a4.018 4.018 0 0 0-.645.242c-.431.22-.98.819-1.223 1.335-.216.457-.218.473-.24 1.773l-.024 1.31-.545.032c-.65.038-.95.194-1.188.619-.312.557-.155 1.263.356 1.603.22.145.384.188.826.213l.551.032.023 1.311c.023 1.31.024 1.312.248 1.788.247.524.77 1.092 1.217 1.32.709.364.248.35 12.095.35 7.16 0 11.151-.025 11.397-.071 1.1-.208 2.027-1.14 2.234-2.244.04-.208.071-.85.071-1.425V7.246h1.402v7.178l-7.286.018c-7.236.019-7.288.02-7.48.164-.107.08-.259.232-.338.34-.14.186-.146.295-.165 2.685l-.02 2.49-.26.04c-1.21.182-1.913.655-2.357 1.585l-.218.458-.019 5.73c-.021 6.378-.037 6.144.453 6.884.292.443.637.73 1.19.99l.41.192h3.996l.41-.192c.552-.26.897-.547 1.19-.99.49-.74.474-.506.453-6.884l-.02-5.73-.218-.458c-.443-.93-1.145-1.402-2.358-1.586l-.263-.04v-3.3l7.28-.018 7.28-.018.257-.198c.535-.41.503-.044.503-5.75V5.732l-.173-.302c-.326-.571-.456-.61-2.159-.635l-1.49-.023V3.731c0-.573-.032-1.212-.07-1.42C28.9 1.205 27.972.274 26.872.066 26.626.021 22.646-.003 15.444 0 6.152.004 4.334.02 4.025.104Zm22.59 2.466c.096.097.11.507.11 3.444s-.014 3.347-.11 3.444c-.1.1-1.204.11-11.105.11-10.142 0-11.002-.008-11.09-.116-.143-.172-.143-6.704 0-6.876.088-.108.948-.117 11.09-.117 9.901 0 11.005.011 11.104.11ZM18.03 22.66c.092.058.108.744.124 5.35.013 3.603-.004 5.328-.055 5.423-.07.131-.154.139-1.611.139-1.458 0-1.542-.008-1.612-.139-.05-.095-.068-1.82-.055-5.423.017-4.606.033-5.292.124-5.35.058-.037.752-.067 1.543-.067.79 0 1.484.03 1.542.067Z"/></symbol><symbol viewBox="0 0 14 8" id="quiz-arrow"><path clip-rule="evenodd" d="m10.172.464 3.182 3.182a.5.5 0 0 1 0 .708l-3.182 3.182a.5.5 0 0 1-.708-.708L11.793 4.5H0v-1h11.793L9.464 1.172a.5.5 0 1 1 .708-.708Z"/></symbol><symbol viewBox="0 0 34 40" id="target"><path clip-rule="evenodd" d="M14.969.088c-3.446.35-6.906 1.873-9.472 4.166C2.63 6.814.83 10.095.21 13.88c-.212 1.297-.197 3.341.033 4.464 1.089 5.307 5.58 11.992 12.996 19.343 1.64 1.627 1.94 1.889 2.38 2.086.422.19.61.226 1.147.227.56 0 .715-.032 1.205-.257.512-.235.762-.454 2.813-2.464 6.401-6.272 10.231-11.673 11.912-16.8.888-2.707.944-5.458.17-8.33C30.778 4.396 23.15-.744 14.97.09Zm3.16 8.162c1.517.313 2.811 1.068 3.881 2.263.517.578 1.232 1.961 1.436 2.78.21.843.19 2.327-.043 3.168-.627 2.266-2.328 4.024-4.588 4.743-.98.312-2.414.394-3.42.195-2.183-.43-3.978-1.821-4.925-3.816-.458-.965-.61-1.654-.61-2.764 0-1.195.159-1.842.727-2.972.94-1.869 2.623-3.155 4.703-3.594.685-.145 2.145-.146 2.839-.003Z"/></symbol><symbol viewBox="0 0 35 35" id="value"><path clip-rule="evenodd" d="M4.374.095c-.817.178-1.181.429-2.627 1.814C.098 3.488 0 3.619 0 4.234c0 .387.029.498.187.724.37.53.941.742 1.554.577.244-.066.454-.23 1.11-.872l.808-.79.019 11.45.018 11.45.191.615a5.63 5.63 0 0 0 3.71 3.708l.616.191 11.421.018 11.421.019-.791.814c-.632.65-.808.874-.871 1.11-.286 1.06.647 1.986 1.712 1.7.263-.072.502-.279 1.766-1.53 1.345-1.33 1.484-1.49 1.732-1.994.517-1.052.514-2.058-.01-3.103-.235-.47-.412-.673-1.723-1.97-1.263-1.25-1.502-1.458-1.765-1.528a1.424 1.424 0 0 0-1.572.593c-.14.206-.171.335-.171.702 0 .56.064.661 1.088 1.699l.76.77-11.328-.018-11.327-.018-.368-.15c-.766-.314-1.296-.838-1.594-1.577l-.16-.393-.018-11.355-.018-11.354.771.759c1.038 1.022 1.14 1.088 1.695 1.086.37-.001.491-.033.719-.187.534-.363.747-.93.584-1.557-.07-.272-.246-.47-1.53-1.727C7.046.538 6.68.28 5.801.094c-.56-.119-.878-.118-1.427.001Zm8.429-.052c-.314.08-.658.388-.834.748-.314.642-.129 1.296.487 1.717l.274.187 9.308.035 9.308.034.262.162c.143.09.344.287.445.44l.183.277.034 9.342.035 9.342.187.273c.255.373.581.578.998.627.474.056 1.006-.196 1.287-.61l.197-.29.018-9.286c.02-10.319.04-9.812-.439-10.79-.346-.707-1.096-1.457-1.803-1.803-.969-.474-.472-.453-10.643-.445-5.044.003-9.231.021-9.304.04Zm12.836 7.412c-1.247.245-2.286 1.347-2.486 2.637-.092.595-.04.887.226 1.253.526.727 1.651.727 2.178 0 .115-.158.226-.398.248-.535.08-.497.107-.562.268-.636.224-.101.473-.027.58.174.08.147.067.206-.102.518-.297.544-1.223 1.648-2.307 2.75-.826.84-1.001 1.054-1.074 1.315a1.374 1.374 0 0 0 1.117 1.72c.156.023 1.192.032 2.303.02 1.987-.021 2.023-.024 2.28-.184a1.75 1.75 0 0 0 .445-.44c.152-.23.183-.353.183-.727 0-.801-.466-1.289-1.298-1.356-.246-.02-.447-.05-.447-.068 0-.017.15-.22.334-.452.768-.968 1.253-1.91 1.344-2.609a3.274 3.274 0 0 0-.027-.778c-.29-1.765-2.002-2.948-3.765-2.602ZM10.04 12.242c-.316.097-.745.548-.834.878-.05.187-.068 1.73-.055 4.848l.02 4.574.183.277c.283.427.617.602 1.15.602.534 0 .869-.175 1.152-.602l.184-.277.034-3.46c.034-3.442.035-3.46.187-3.673a1.041 1.041 0 0 1 1.68 0c.151.213.152.231.186 3.674l.034 3.46.184.276c.283.427.617.602 1.15.602.534 0 .869-.175 1.152-.602l.183-.277.035-3.46c.034-3.442.035-3.46.186-3.673.443-.62 1.433-.543 1.756.138.098.205.11.63.11 3.516v3.282l.191.365c.155.295.26.4.556.555.466.243.78.243 1.246 0 .295-.154.4-.26.555-.555l.19-.365v-3.331c0-2.08-.027-3.484-.073-3.737-.258-1.425-1.536-2.694-2.994-2.976-.872-.168-1.895.027-2.682.512l-.407.252-.456-.275c-.67-.405-1.09-.513-1.977-.512-.545 0-.843.034-1.08.12-.322.118-.334.117-.564-.025-.272-.168-.85-.232-1.182-.13Z"/></symbol><symbol viewBox="0 0 22 22" id="ws"><path clip-rule="evenodd" d="M9.883.057a10.77 10.77 0 0 0-6.36 3.115 10.63 10.63 0 0 0-3.096 6.55c-.07.75-.03 1.998.087 2.693.187 1.115.502 2.08 1.016 3.11l.319.64-.925 2.727C.416 20.392 0 21.673 0 21.74c0 .146.12.261.27.261.061 0 1.393-.407 2.958-.905l2.846-.906.497.234c1.077.508 2.277.845 3.462.974.55.06 1.766.06 2.32.001 2.006-.214 3.912-.992 5.565-2.27.439-.34 1.399-1.288 1.726-1.706C21.214 15.42 22 13.184 22 10.717 22 5.272 17.92.71 12.46.054c-.61-.073-1.972-.072-2.577.003Zm2.542 2.28c2.72.388 5.129 2.113 6.394 4.578.358.697.639 1.543.804 2.426.09.479.122 1.748.06 2.302-.352 3.134-2.488 5.876-5.439 6.983a8.556 8.556 0 0 1-5.256.28 8.92 8.92 0 0 1-2.217-.944c-.197-.12-.386-.218-.419-.218-.032 0-.696.203-1.475.45-.778.247-1.424.44-1.434.43-.01-.01.188-.625.44-1.367.251-.742.457-1.376.456-1.409 0-.032-.128-.253-.284-.49a8.812 8.812 0 0 1-1.13-2.535c-.336-1.32-.345-2.843-.022-4.115.39-1.538 1.118-2.816 2.251-3.948a8.505 8.505 0 0 1 7.271-2.424Zm-4.82 3.42c-.73.15-1.095.399-1.42.967-.322.563-.474 1.368-.387 2.049.104.818.442 1.568 1.155 2.566 1.537 2.15 3.003 3.34 4.992 4.054 1.779.638 2.717.655 3.709.07.427-.252.853-.692.968-.997.134-.358.234-.914.212-1.177-.034-.415-.092-.457-1.688-1.213-.808-.383-.876-.408-1.144-.41-.338-.004-.345 0-.79.555-.17.213-.385.47-.477.57l-.167.184-.332-.147c-.98-.431-2.105-1.382-2.919-2.465l-.302-.401.166-.195c.58-.687.723-.945.692-1.254-.03-.299-.903-2.364-1.093-2.585-.239-.28-.48-.315-1.175-.172Z"/></symbol></svg>