<svg style="display: none;" aria-hidden="true" xmlns="http://www.w3.org/2000/svg" xmlns:xlink="http://www.w3.org/1999/xlink"><symbol viewBox="0 0 60 59" id="data"><path clip-rule="evenodd" d="M22.522.306c-.921.463-1.214 1.041-1.286 2.54l-.055 1.168H9.768l-.255.274c-.338.362-.33.912.015 1.24l.27.255 20.162.031c16.883.026 20.193.057 20.355.193.174.145.194.609.194 4.5 0 4.469.046 4.97.474 5.201.373.201.877.132 1.147-.158.252-.27.254-.312.254-4.904 0-5.045-.01-5.13-.68-5.85a3.02 3.02 0 0 0-.785-.558c-.444-.207-.977-.218-10.166-.22l-9.697-.004V2.89c0-.679-.063-1.278-.159-1.508C30.689.877 30 .28 29.448.125 29.194.053 27.757 0 26.07 0c-2.927 0-2.938 0-3.547.306Zm6.655 1.811c.066.126.121.604.121 1.063v.834h-6.211v-.92c0-.56.055-.978.14-1.063.102-.103.93-.142 2.985-.142 2.691 0 2.85.012 2.965.228ZM1.465 4.238A2.585 2.585 0 0 0 .183 5.575C.02 5.966 0 8.084 0 24.8c0 20.59-.047 19.22.68 20.001.686.738.914.777 4.564.78l3.31.003v1.253c0 1.44.175 1.905.906 2.41l.425.293 4.667.033c2.566.018 4.667.058 4.667.087 0 .03-.923 1.862-2.051 4.072-1.255 2.46-2.051 4.15-2.051 4.358 0 .52.358.885.865.885.235 0 .502-.077.594-.171.092-.094 1.195-2.19 2.451-4.659l2.284-4.487 4.856-.031 4.856-.03 2.292 4.518c1.434 2.827 2.4 4.6 2.584 4.74.513.39 1.367-.053 1.367-.71 0-.171-.923-2.131-2.051-4.356-1.128-2.224-2.05-4.077-2.05-4.117 0-.04 2.016-.074 4.482-.076 4.107-.002 4.521-.02 4.951-.22.985-.459 1.23-.98 1.23-2.62v-1.172h2.762c1.577 0 2.854-.05 2.976-.116.34-.183.474-.721.29-1.162-.086-.207-.172-.389-.192-.404-.019-.016-10.698-.056-23.732-.089-22.548-.057-23.708-.07-23.907-.27-.199-.201-.209-1.11-.209-18.743 0-17.626.01-18.543.21-18.743.182-.185.512-.218 2.675-.27 2.269-.054 2.48-.078 2.633-.288.256-.354.206-.932-.105-1.227-.262-.247-.364-.256-2.784-.254-2.194.002-2.571.03-2.98.221Zm35.783 5.02c-1.601.576-2.38 2.577-1.602 4.122l.226.45-2.366 3.344-2.366 3.343-.745-.06c-.668-.054-.825-.02-1.507.317l-.76.378-1.522-.863-1.52-.864-.005-.65c-.01-1.64-1.31-2.946-2.932-2.946-1.623 0-2.922 1.306-2.93 2.947l-.004.65-1.53.86-1.529.862-.713-.36c-1.112-.56-2.203-.467-3.159.268a2.947 2.947 0 0 0-.87 3.565c.529 1.128 1.462 1.736 2.66 1.736 1.637 0 2.91-1.257 2.917-2.88l.002-.672 1.585-.908c1.47-.842 1.6-.894 1.792-.72.799.729 2.757.731 3.554.005.184-.168.333-.109 1.776.712l1.575.896.006.63c.01 1.155.61 2.132 1.614 2.627 1.607.793 3.451.051 4.094-1.644.26-.684.188-1.785-.153-2.368l-.234-.4 2.375-3.349 2.375-3.348.732.04c.94.053 1.646-.213 2.29-.863.799-.804 1.07-1.964.703-3.01-.55-1.57-2.282-2.405-3.83-1.848Zm1.833 2.048c.533.538.312 1.531-.397 1.78-.478.168-.912.04-1.254-.37-.242-.29-.29-.445-.238-.77.16-.994 1.19-1.343 1.889-.64Zm5.269 5.153c-2.638.436-4.723 1.565-6.62 3.586-1.079 1.15-1.56 1.881-2.166 3.299-2.072 4.839-.678 10.381 3.45 13.708 2.338 1.886 5.773 2.82 8.692 2.364l1.005-.158 2.628 4.593c1.624 2.84 2.774 4.723 3.011 4.933.755.668 1.29.869 2.312.869.79 0 1.032-.05 1.542-.32 1.481-.782 2.179-2.627 1.584-4.192-.117-.31-1.307-2.464-2.642-4.789-1.336-2.324-2.457-4.299-2.49-4.388-.034-.088.206-.496.533-.905 1.65-2.064 2.61-5.173 2.424-7.851-.417-5.994-5.147-10.625-11.088-10.857-.71-.027-1.631.018-2.175.108Zm-21.434 1.544c.2.2.288.421.288.716 0 .57-.177.872-.625 1.06-.952.4-1.826-.469-1.43-1.423.195-.472.459-.635 1.035-.64.32-.002.526.079.732.287Zm25.535.468c1.78.499 3.01 1.184 4.264 2.372 1.448 1.372 2.374 2.993 2.848 4.983.311 1.31.256 3.383-.127 4.738-1.62 5.73-7.958 8.69-13.32 6.221a9.655 9.655 0 0 1-4.788-4.821c-.637-1.403-.819-2.302-.816-4.036.005-2.677.766-4.679 2.5-6.574 1.437-1.571 3.034-2.48 5.286-3.007.861-.202 3.245-.13 4.153.124Zm-3.977 1.18c-2.665.624-4.743 2.233-5.866 4.544-2.026 4.168-.325 9.201 3.815 11.288 1.67.842 3.807 1.1 5.513.666 2.679-.682 4.635-2.267 5.729-4.641.799-1.734 1.009-3.378.664-5.193-.315-1.655-.769-2.461-1.387-2.461-.892 0-1.129.568-.718 1.728.36 1.016.483 2.578.285 3.607-.455 2.375-2.436 4.503-4.759 5.112-.875.23-2.387.232-3.252.005-2.846-.747-4.887-3.403-4.887-6.358 0-1.779.578-3.227 1.818-4.552 1.357-1.449 3.012-2.095 5.096-1.99 1.236.063 1.988.299 3.097.972.854.518 1.354.544 1.708.09.322-.413.24-.933-.206-1.3-.487-.403-1.784-1.061-2.622-1.332-.983-.319-3.05-.413-4.028-.185Zm-29.807 2.795c.308.166.563.791.487 1.192-.16.845-1.316 1.174-1.865.531-.82-.962.267-2.322 1.378-1.723Zm16.314.184c.536.54.393 1.406-.293 1.764-.914.476-1.93-.549-1.456-1.47.23-.45.48-.597 1.017-.602.304-.002.51.084.732.308Zm-11.24 3.994-.287.29v13.011l.288.29c.284.286.313.29 2.407.29 2.095 0 2.124-.004 2.408-.29l.288-.29V26.914l-.288-.29c-.284-.287-.313-.29-2.408-.29-2.094 0-2.123.003-2.407.29Zm3.229 6.795v5.196h-1.64V28.223h1.64v5.196Zm-11.09-2.46c-.482.235-.512.516-.512 4.833v4.133l.288.29c.284.286.313.29 2.407.29 2.095 0 2.124-.004 2.408-.29l.288-.29v-4.188c0-2.303-.033-4.274-.073-4.379-.167-.439-.66-.537-2.646-.529-1.058.005-2.022.063-2.16.13Zm16.188-.001c-.528.29-.528.29-.528 4.766v4.267l.271.257c.258.244.376.257 2.39.257 1.91 0 2.145-.022 2.395-.226l.276-.226.034-4.266.033-4.267-.346-.35-.347-.349-1.972.004c-1.2.002-2.064.054-2.207.133Zm-13.184 4.705v2.952h-1.641v-5.904h1.64v2.952Zm16.172 0v2.952h-1.758v-5.904h1.758v2.952Zm4.805.709c-.213.214-.235.393-.235 1.928 0 2.32-.136 2.206 2.645 2.201 1.538-.003 2.155-.045 2.302-.157.307-.236.457-.735.325-1.085-.18-.477-.754-.644-2.221-.644h-1.293v-.981c0-.825-.038-1.023-.239-1.24-.31-.336-.962-.347-1.284-.023Zm19.917 5.293c2.553 4.473 2.607 4.607 2.187 5.426-.234.454-.731.735-1.303.735-.73 0-1.06-.273-1.744-1.448-1.547-2.652-4.406-7.686-4.38-7.71.017-.013.346-.187.733-.385.387-.199.967-.543 1.29-.766.518-.359.6-.383.71-.214.07.105 1.197 2.068 2.507 4.362Zm-13.824 4.981v1.063l-15.79-.03-15.792-.03-.034-1.033-.034-1.033h31.65v1.063Z"/></symbol><symbol viewBox="0 0 51 51" id="documents"><path clip-rule="evenodd" d="M10.35.079C8.727.349 7.325 1.64 6.905 3.25c-.12.462-.142 3.457-.142 19.86v19.316H3.731c-2.01 0-3.114.037-3.275.11-.451.206-.48.392-.446 2.886l.032 2.337.319.673c.624 1.32 1.835 2.247 3.216 2.463.861.135 36.067.14 36.887.006 1.754-.288 3.228-1.693 3.545-3.38.141-.748.135-8.633-.006-8.898-.06-.11-.259-.264-.444-.341-.386-.162-.686-.085-.992.256-.191.212-.201.398-.25 4.571-.048 4.218-.056 4.363-.264 4.75-.808 1.498-2.76 1.79-3.958.592-.68-.682-.757-1.025-.757-3.409V43.01l-.29-.292-.292-.291H8.454l.027-19.312.026-19.312.287-.584a2.705 2.705 0 0 1 1.487-1.327c.238-.088 4.394-.119 16.575-.125 8.942-.004 16.258.008 16.258.027 0 .018-.132.299-.294.623-.458.918-.512 1.582-.48 5.886.026 3.74.036 3.911.227 4.123.283.314.588.408.936.287.557-.195.607-.393.607-2.378V8.538h6.19l.3-.3.298-.3-.036-2.316c-.035-2.14-.055-2.362-.268-2.9-.433-1.093-1.36-1.984-2.576-2.475l-.571-.232L29.172.001C18.472-.007 10.67.025 10.349.08Zm37.398 1.957c.414.213.774.564 1.1 1.07.166.258.197.523.225 1.968l.034 1.67H44.11l.001-1.371c0-.754.05-1.546.108-1.76.22-.794.773-1.38 1.63-1.727.426-.173 1.424-.094 1.9.15ZM10.15 7.641v.897h27.188V6.744H10.15v.897Zm0 3.389v.897h27.188v-1.795H10.15v.898Zm21.388 7.85c-5.65 5.655-6.25 6.286-6.25 6.573 0 .192.095.428.24.597l.24.28 1.95.03 1.952.031.003 4.804c.003 5.065-.004 4.986.463 5.235.16.086 2.274.116 7.997.116 8.565 0 8.236.024 8.456-.61.075-.214.11-1.81.11-4.93v-4.614l1.885-.031c1.837-.03 1.891-.038 2.141-.273.422-.397.358-.864-.191-1.403l-.448-.44v-2.756c0-1.759-.04-2.87-.11-3.072-.192-.548-.452-.61-2.582-.61H45.49l-.29.292c-.183.182-.292.395-.292.568 0 .242-.395-.117-3.171-2.883-3.075-3.063-3.184-3.16-3.56-3.16-.38 0-.51.122-6.638 6.256ZM10.15 14.419v.896h22.906v-1.794H10.15v.897Zm31.322 3.698c1.807 1.814 3.46 3.429 3.674 3.588.436.324.751.362 1.102.133.325-.213.452-.636.452-1.504v-.732h1.593V24.57l-1.453.032c-1.451.032-1.453.032-1.693.312l-.24.28v9.558h-3.266l-.038-2.368c-.044-2.644-.104-2.923-.787-3.606-.584-.584-1.079-.743-2.447-.787-1.937-.06-2.834.343-3.386 1.527-.223.478-.232.596-.233 2.866l-.001 2.367h-3.386v-9.634l-.257-.241c-.239-.225-.344-.244-1.51-.275l-1.253-.034 4.87-4.875c2.68-2.682 4.894-4.876 4.922-4.876.028 0 1.53 1.485 3.337 3.3Zm-31.322-.26v.848h19.52V17.01H10.15v.847Zm25.904 1.78c-.451.257-.501.492-.505 2.385-.004 1.994.075 2.348.568 2.552.21.087.853.114 2.2.092 2.544-.041 2.348.165 2.388-2.513l.03-2.029-.245-.286-.246-.286-1.976-.025c-1.516-.019-2.03.007-2.214.11Zm-25.904 1.61v.846h16.134V20.4H10.15v.847Zm28.782.846v.798h-1.594V21.296h1.594v.797ZM10.15 24.635v.847h14.44v-1.694H10.15v.847Zm0 3.389v.847h14.44v-1.694H10.15v.847Zm29.22 1.858c.396.18.458.56.458 2.792v2.078h-3.4l.032-2.251.032-2.252.28-.24c.256-.221.363-.24 1.314-.24.57 0 1.147.05 1.284.113Zm-29.22 1.531v.847h14.44v-1.694H10.15v.847Zm.021 3.414.029.872 7.195.026 7.196.025v-1.795H10.142l.03.872Zm-.02 3.415v.898l5.103-.026 5.104-.026.029-.872.029-.872H10.15v.898Zm10.996-.764c-.028.073-.038.466-.022.872l.03.738 1.718.027 1.718.027v-1.799h-1.696c-1.328 0-1.708.03-1.748.135Zm14.4 8.064c.002 1.5.17 2.468.543 3.137.139.248.252.468.252.489 0 .02-7.338.037-16.307.036l-16.308-.001-.498-.236a3.274 3.274 0 0 1-.817-.572c-.554-.585-.656-.97-.706-2.654l-.045-1.52H35.546l.001 1.32Z"/></symbol><symbol viewBox="0 0 51 51" id="key"><path clip-rule="evenodd" d="M29.185.024c-3.097.56-5.498 2.082-7.106 4.502-2.594 3.906-2.136 9.23 1.084 12.581l.624.65.046 2.541c.041 2.325.067 2.624.3 3.503.337 1.273.712 2.022 1.317 2.631.559.563 1.02.747 1.854.74 1.39-.012 2.334-.862 2.93-2.638.281-.84.446-2.242.32-2.727-.083-.322-.49-.612-.859-.612-.108 0-.328.111-.49.247-.258.218-.301.334-.362.972-.138 1.447-.583 2.59-1.122 2.879-.9.482-1.578-.362-1.981-2.468-.198-1.034-.221-3.999-.046-5.766.393-3.954 1.559-6.684 3.265-7.648.676-.381.867-.658.78-1.125-.138-.738-1.01-.851-1.967-.256l-.506.315.06-.303c.263-1.314 2.153-1.64 2.927-.507.519.761.388 1.487-.418 2.313-.564.578-.648.812-.435 1.211.528.993 1.902.329 2.634-1.272.48-1.05.286-2.502-.458-3.443-1.559-1.97-4.707-1.597-5.759.682-.34.738-.404 1.69-.165 2.453l.175.554-.397.871c-.62 1.359-.896 2.235-1.17 3.706-.086.462-.173.856-.193.876-.056.056-.7-.954-1.043-1.637a11.27 11.27 0 0 1-.573-1.496c-.352-1.18-.373-3.045-.047-4.266 1.01-3.782 4.271-6.332 8.118-6.345 2.512-.009 4.525.858 6.256 2.694 3.388 3.595 2.914 9.366-1.02 12.418a8.22 8.22 0 0 1-3.45 1.601c-.884.188-2.597.183-3.422-.01-1.26-.294-1.548-.295-1.835-.007a.802.802 0 0 0-.256.588c0 .518.231.748.975.97 3.983 1.185 8.437-.307 10.998-3.685.697-.92 1.43-2.463 1.728-3.638.718-2.832.221-5.712-1.41-8.183C38.08 2.962 36.15 1.377 34.474.7 33.24.2 32.408.041 30.878.01c-.794-.017-1.556-.011-1.693.014ZM8.76 7.033l-.29.291v2.807H2.31l-.307.258-.306.258v38.658h-.602c-.507 0-.641.04-.847.245a.853.853 0 0 0 0 1.205L.494 51h50.012l.245-.245a.852.852 0 0 0 0-1.205l-.245-.245H37.451V45.82l.274-.064c.977-.23 2.225-1.3 2.683-2.299.402-.876.47-1.564.34-3.464-.3-4.431-1.118-7.268-2.486-8.628-1.068-1.06-2.252-1.09-3.352-.083-1.304 1.193-2.188 4.05-2.532 8.185-.2 2.412-.116 3.212.447 4.247.484.89 1.652 1.822 2.56 2.04l.273.066v3.488l-3.361-.026-3.361-.026-.05-10.002-.05-10.002-.235-.19a.85.85 0 0 0-1.145.072l-.263.262v19.91l-11.876-.025-11.876-.025-.025-18.666-.025-18.665h3.042c3.369 0 3.515-.024 3.72-.61.06-.174.11-.87.11-1.548V8.536h3.787c3.041 0 3.854-.028 4.125-.141.62-.26.74-.884.262-1.362l-.291-.291H9.052l-.29.291Zm3.693 3.168c-.727.268-.742 1.317-.023 1.615.203.084 1.083.11 3.05.089l2.766-.03.24-.28c.333-.386.315-.808-.05-1.173l-.291-.291-2.772.008c-1.524.004-2.838.032-2.92.063ZM5.618 13.62c-.574.231-.698.949-.243 1.404.252.252.366.291.847.291h.555v4.984h-.401c-1.114 0-1.695.865-1.03 1.532.225.224.349.263.847.263h.584v5.083h-.584c-.498 0-.622.039-.846.263-.343.343-.35.81-.019 1.168.212.23.323.264.847.264h.602v5.084h-.555c-.481 0-.595.038-.847.29-.362.364-.383.788-.057 1.167.196.228.332.28.847.316l.612.045v4.936l-.612.044c-.515.038-.65.088-.847.317-.326.379-.305.803.057 1.166.252.252.366.291.847.291h.555v2.2c0 2.227.037 2.485.39 2.756.264.203.769.15 1.073-.113l.28-.24.032-2.301.031-2.302h3.263l.03 2.302.03 2.301.28.24c.357.308.777.308 1.134 0l.279-.24.03-2.301.03-2.302h3.263l.031 2.302.032 2.301.28.24c.305.263.81.316 1.073.113.353-.271.39-.53.39-2.756v-2.2h3.386v4.594l.244.245c.338.338.839.33 1.186-.018l.263-.263v-4.558h.505c.805 0 1.18-.285 1.185-.905.005-.538-.344-.816-1.094-.87l-.596-.043v-4.936l.596-.043c.75-.055 1.099-.332 1.094-.87-.006-.62-.38-.905-1.186-.905h-.504v-2.542c0-2.395.01-2.542.182-2.542.305 0 .654-.461.654-.863 0-.268-.069-.419-.274-.595-.15-.13-.339-.237-.418-.237a.144.144 0 0 1-.144-.144c0-.079-.106-.267-.236-.418-.176-.206-.327-.275-.595-.275-.401 0-.862.35-.862.655 0 .17-.12.182-1.693.182h-1.693v-5.083h1.43c1.413 0 1.434-.004 1.693-.263a.88.88 0 0 0 .155-1.048c-.195-.365-.692-.484-2.03-.484h-1.248V15.34l.406-.054c.688-.092 1.023-.602.78-1.188-.245-.594-.05-.579-7.38-.572-3.687.004-6.799.045-6.916.093Zm6.238 4.187v2.492H8.57v-4.984h3.286v2.492Zm5.08 0v2.492h-3.287v-4.984h3.286v2.492ZM40.74 16.01a.895.895 0 0 0-.21.98c.063.152 2.062 2.226 4.443 4.608l4.329 4.332v2.941h-1.528c-1.95 0-1.858.08-1.858-1.613 0-1.217-.007-1.257-.263-1.513-.224-.224-.348-.262-.846-.262h-.584v-.505c0-.526-.121-.856-.39-1.062-.104-.08-.584-.123-1.412-.125-1.625-.004-1.584.036-1.584-1.536 0-1.826-.139-1.954-2.11-1.955-.586 0-1.09-.042-1.122-.093-.114-.184-.634-.221-.933-.067-.625.324-.59 1.124.076 1.684.3.253.38.27 1.308.27h.988v.902c0 1.07.077 1.25.831 1.965l.551.522h1.98l.044.596c.06.848.31 1.098 1.093 1.098h.58v.841c0 .463.048.967.105 1.122.161.428 1.085 1.316 1.487 1.428.193.053 1.26.097 2.37.098 2.148 0 2.584-.075 2.803-.483.068-.129.107-1.093.107-2.673v-2.471l-4.608-4.613-4.608-4.612h-.422c-.286 0-.483.063-.617.196Zm-28.884 8.625v2.542H8.57v-5.083h3.286v2.541Zm5.08 0v2.542h-3.287v-5.083h3.286v2.541Zm-5.08 6.779v2.542H8.57V28.87h3.286v2.542Zm5.08 0v2.542h-3.287V28.87h3.286v2.542Zm5.155.025.026 2.517H18.728v-5.089l1.668.027 1.668.028.027 2.517Zm15.087 1.307c.902.999 1.7 4.39 1.837 7.81.05 1.259.034 1.532-.117 1.929-.48 1.255-1.815 1.908-3.147 1.538-.513-.143-1.18-.758-1.45-1.34-.197-.423-.235-.664-.235-1.508-.003-2.72.656-6.264 1.46-7.852.535-1.057 1.055-1.239 1.652-.577ZM11.856 38.24v2.492H8.57v-4.984h3.286v2.492Zm5.08 0v2.492h-3.287v-4.984h3.286v2.492Zm5.178 0v2.492h-3.386v-4.984h3.386v2.492Z"/></symbol></svg>